<svg xmlns="http://www.w3.org/2000/svg" xmlns:xlink="http://www.w3.org/1999/xlink" fill="none" version="1.1" width="2138" height="2138" viewBox="0 0 2138 2138"><defs><clipPath id="master_svg0_8469_30433"><rect x="0" y="0" width="2138" height="2138" rx="0"/></clipPath></defs><g><g clip-path="url(#master_svg0_8469_30433)"><g style="opacity:0;"><rect x="0" y="0" width="2138" height="2138" rx="0" fill="#FFFFFF" fill-opacity="1"/></g><g><path d="M437.75673046875,581.4466374511719L908.65123046875,853.3296374511718C1007.87623046875,910.6166374511719,1130.12623046875,910.6166374511719,1229.3512304687501,853.3296374511718L1700.33123046875,581.4466374511719C1709.15123046875,576.3766374511719,1714.58123046875,566.983637451172,1714.58123046875,556.8156374511718C1714.58123046875,546.6476374511719,1709.15123046875,537.2546374511719,1700.33123046875,532.1836374511719L1372.86423046875,343.1491174511719C1355.27923046875,332.99647745117187,1333.61423046875,332.99647745117187,1316.02923046875,343.1491174511719L1069.00123046875,485.77163745117184L821.97323046875,343.2381874511719C804.38823046875,333.0855774511719,782.72323046875,333.0855774511719,765.13823046875,343.2381874511719L437.75673046875,532.1836374511719C428.94362046875,537.2546374511719,423.51123046875,546.6476374511719,423.51123046875,556.8156374511718C423.51123046875,566.983637451172,428.94362046875,576.3766374511719,437.75673046875,581.4466374511719Z" fill="#FFC91D" fill-opacity="1"/></g><g><path d="M1372.863,343.1491174511719C1355.278,332.99647745117187,1333.613,332.99647745117187,1316.028,343.1491174511719L1069,485.77163745117184C1264.092,598.4616374511719,1456.958,721.8426374511719,1624.435,625.1866374511719L1700.245,581.4466374511719C1709.058,576.3766374511719,1714.49,566.983637451172,1714.49,556.8156374511718C1714.49,546.6476374511719,1709.058,537.2546374511719,1700.245,532.1836374511719L1372.863,343.1491174511719Z" fill="#F8F309" fill-opacity="1"/></g><g><path d="M1011.72053125,1774.0026440429688L1011.72053125,1230.5976440429688C1011.66753125,1116.0756440429686,950.54953125,1010.2736440429687,851.37053125,953.0136440429687L380.47643125,680.5966340429687C361.51593125,669.6955640429687,337.86377705,683.4019040429688,337.8945652326,705.2726440429688L337.8945652326,1083.2536440429687C337.87937505,1103.5506440429688,348.67283125,1122.3196440429688,366.22303125,1132.516644042969L613.25153125,1275.0496440429688L613.25153125,1560.1166440429688C613.13553125,1580.4406440429689,623.86453125,1599.2846440429687,641.4015312500001,1609.5576440429686L968.87153125,1798.5926440429687C977.67353125,1803.7826440429687,988.58453125,1803.8426440429687,997.44653125,1798.7626440429688C1006.30953125,1793.6726440429688,1011.75953125,1784.2226440429688,1011.72053125,1774.0026440429688Z" fill="#A50EC5" fill-opacity="1"/></g><g><path d="M337.8945652326,1083.2536440429687C337.87937505,1103.5506440429688,348.67283125,1122.3196440429688,366.22303125,1132.516644042969L613.25153125,1275.0496440429688C613.25153125,1049.7576440429689,623.7625312499999,820.7246440429687,456.28653125,724.3365440429687L380.47643125,680.5966340429687C361.51593125,669.6955640429687,337.86377705,683.4019040429688,337.8945652326,705.2726440429688L337.8945652326,1083.2536440429687Z" fill="#B557DD" fill-opacity="1"/></g><g><path d="M1757.5249179687498,680.5968017578125L1286.54091796875,952.5683017578125C1187.36261796875,1009.8293017578126,1126.24481436875,1115.6303017578125,1126.19091796875,1230.1523017578124L1126.19091796875,1773.5593017578126C1126.22857066875,1795.3893017578125,1149.84671796875,1809.0293017578124,1168.77271796875,1798.1493017578125L1496.59991796875,1609.5573017578126C1514.15691796875,1599.4003017578125,1524.98191796875,1580.6673017578125,1525.01691796875,1560.3833017578127L1525.01691796875,1275.3173017578124L1772.04491796875,1132.7833017578125C1789.59491796875,1122.5873017578124,1800.3889179687499,1103.8173017578124,1800.37391796875,1083.5203017578124L1800.37391796875,705.2729017578125C1800.4439179687502,695.0393017578125,1795.00691796875,685.5581217578125,1786.1379179687501,680.4509417578125C1777.26991796875,675.3437717578125,1766.33991796875,675.3994317578125,1757.5249179687498,680.5968017578125Z" fill="#35BAD8" fill-opacity="1"/></g><g><path d="M1496.5993632812501,1609.5577724609375C1514.15636328125,1599.3997724609376,1524.98236328125,1580.6667724609374,1525.01736328125,1560.3837724609375L1525.01736328125,1275.3167724609375C1329.83536328125,1387.9177724609376,1126.54736328125,1493.2147724609374,1126.54736328125,1686.6147724609375L1126.54736328125,1774.1837724609375C1126.58501598125,1796.0147724609374,1150.20306328125,1809.6517724609375,1169.12916328125,1798.7707724609375L1496.5993632812501,1609.5577724609375Z" fill="#62DCE3" fill-opacity="1"/></g></g></g></svg>