<svg xmlns="http://www.w3.org/2000/svg" xmlns:xlink="http://www.w3.org/1999/xlink" fill="none" version="1.1" width="1456.0400390625" height="1455.326171875" viewBox="0 0 1456.0400390625 1455.326171875"><g><g></g><g><path d="M891.19612890625,409.121C893.4771289062501,477.288,798.1791289062501,498.293,767.83412890625,436.764Q675.21442890625,247.323,642.88672890625,181.435C612.44302890625,118.916,633.56519890625,23.1054,722.91292890625,3.78486C809.68212890625,-14.9412,879.5931289062501,37.472,881.57712890625,124.464Q883.26312890625,197.09,891.19612890625,409.121Z" fill="#FFC500" fill-opacity="1"/></g><g><path d="M410.24520666503906,227.20994792480468C344.8962066650391,164.78964792480468,253.66400666503907,158.8448479248047,207.45310666503906,223.0486479248047C159.06060666503907,290.22474792480466,187.62011666503906,369.98474792480465,276.86860666503907,417.34474792480466C358.48120666503905,460.6417479248047,501.9732066650391,526.3317479248046,578.925206665039,564.7757479248047C653.993206665039,602.4257479248047,707.8392066650391,517.9107479248047,651.9102066650391,461.7327479248047C589.8332066650391,399.7077479248047,473.6122066650391,287.94574792480466,410.24520666503906,227.20994792480468Z" fill="#FC741B" fill-opacity="1"/></g><g><path d="M160.449,597.17326875C74.6712,584.59011875,0,626.79811875,0,727.66171875C0,830.20971875,78.0429,870.33671875,160.449,858.34771875C256.143,844.47671875,439.797,810.88871875,532.814,794.73871875C604.907,782.74971875,604.907,673.76201875,532.814,660.78261875C439.797,644.63251875,255.35,610.74721875,160.449,597.17326875Z" fill="#B400CB" fill-opacity="1"/></g><g><path d="M1277.542728515625,838.729390625C1382.360728515625,874.299390625,1456.039728515625,832.487390625,1456.039728515625,725.283390625C1456.039728515625,627.392390625,1372.9397285156251,582.608190625,1277.542728515625,614.908290625Q1244.719728515625,626.005190625,1143.967728515625,661.277690625C1084.468728515625,686.3448906250001,1082.287128515625,762.141390625,1143.967728515625,787.902390625Q1242.934728515625,826.939390625,1277.542728515625,838.729390625Z" fill="#91E9AC" fill-opacity="1"/></g><g><path d="M1240.3553676757813,403.47246240234375C1299.8543676757813,349.5724624023437,1310.4653676757812,252.27636240234375,1230.4393676757813,204.32156240234374C1144.0663676757813,152.99816240234375,1070.1884676757813,206.30316240234376,1047.1822676757813,278.6315624023438C1032.5058676757812,325.0004624023437,1002.6572676757812,425.76546240234376,990.4599076757812,472.92746240234374C975.6843676757812,529.8984624023437,1044.2072676757812,571.0164624023437,1091.4103676757813,534.6544624023438C1130.4803676757813,504.53346240234373,1205.3503676757812,435.97046240234374,1240.3553676757813,403.47246240234375Z" fill="#E1E75F" fill-opacity="1"/></g><g><path d="M881.5773408203124,1330.86201953125C879.5943408203125,1417.85401953125,809.6823408203124,1470.26701953125,722.9130408203125,1451.54101953125C633.6645708203125,1432.32001953125,612.4432408203126,1336.0140195312501,642.8869408203125,1273.89101953125Q675.2147408203125,1208.00301953125,767.8343408203125,1018.56181953125C798.1793408203125,956.63691953125,893.4763408203125,978.03815953125,891.1963408203126,1046.20511953125Q883.2623408203125,1258.33501953125,881.5773408203124,1330.86201953125Z" fill="#00B2DB" fill-opacity="1"/></g><g><path d="M651.8112445068359,993.6915205078125C708.0382445068359,937.4137205078125,653.894244506836,852.9976205078125,578.826244506836,890.5489505078125C501.87424450683596,929.0910205078125,358.38224450683595,994.6825205078125,276.7695445068359,1037.9795205078126C187.52108450683593,1085.3395205078125,159.06074450683593,1165.1985205078124,207.35404450683595,1232.2755205078124C253.56494450683596,1296.4795205078126,344.7972445068359,1290.5345205078124,410.14624450683596,1228.1145205078124C473.61224450683596,1167.3785205078125,589.8332445068359,1055.6165205078125,651.8112445068359,993.6915205078125Z" fill="#5A55FF" fill-opacity="1"/></g><g><path d="M1090.81582421875,920.6715803710938C1043.61272421875,884.3092803710938,975.08982421875,925.4273803710937,989.86536421875,982.4973803710938C1002.06272421875,1029.5598803710936,1031.91132421875,1130.3248803710937,1046.58772421875,1176.6938803710937C1069.59402421875,1249.0228803710938,1143.47182421875,1302.3278803710937,1229.84482421875,1251.0038803710938C1310.36682421875,1203.0498803710939,1299.25982421875,1105.7528803710939,1239.76082421875,1051.8528803710938C1205.35082421875,1019.8508803710938,1130.48182421875,951.1881803710937,1090.81582421875,920.6715803710938Z" fill="#42E4E6" fill-opacity="1"/></g></g></svg>