<?xml version="1.0" encoding="UTF-8"?>
<svg width="450px" height="450px" viewBox="0 0 450 450" version="1.1" xmlns="http://www.w3.org/2000/svg" xmlns:xlink="http://www.w3.org/1999/xlink">
    <title>image_nilai_logo</title>
    <g id="image_nilai_logo" stroke="none" stroke-width="1" fill="none" fill-rule="evenodd">
        <g id="nilai" transform="translate(15.000000, 45.997784)">
            <path d="M174.301912,325.120572 C169.292742,325.120572 165.225563,329.18221 165.225563,334.202462 C165.225563,339.211631 169.292742,343.273269 174.301912,343.273269 C179.316622,343.273269 183.37826,339.211631 183.37826,334.202462 C183.37826,329.18221 179.316622,325.120572 174.301912,325.120572" id="Fill-1" fill="#2B2B2B"></path>
            <path d="M236.371835,63.4513239 C235.873135,60.1155719 235.989498,56.5470929 236.820666,52.7015581 C237.557634,49.7038141 238.566117,46.6007889 240.472261,43.1486734 C243.935459,38.6271224 246.07433,33.0305949 246.07433,26.8910379 C246.07433,12.0408459 234.033484,0 219.183292,0 C204.3331,0 192.292254,12.0408459 192.292254,26.8910379 C192.292254,32.7479979 194.215022,38.128422 197.390081,42.5446917 C199.806008,46.1076296 201.246698,49.221737 202.354922,52.1806932 C203.452063,55.3834584 204.189031,58.4199902 203.540721,60.8137525 C204.942623,58.7635395 207.729805,57.3560959 210.877159,56.1093447 C212.766679,55.4222463 214.811351,54.8071823 217.116456,54.314023 C219.565629,55.3723762 221.649089,56.5692574 223.549692,57.8437141 C226.757998,60.1266541 229.24596,62.6866499 231.129939,65.4849137 C232.975131,68.2942597 234.775994,71.120229 236.388459,74.023774 C238.017547,76.9162368 239.602306,79.8253229 240.876763,82.8563136 C239.774081,79.7588295 238.992783,76.5394409 238.239192,73.3034289 C237.474517,70.072958 236.903782,66.7704527 236.371835,63.4513239" id="Fill-3" fill="#2B2B2B"></path>
            <path d="M373.925617,26.8904838 C399.375965,26.8904838 420,47.5200602 420,72.9648667 C420,98.4152143 399.375965,119.044791 373.925617,119.044791 C368.683721,119.044791 363.657928,118.124965 358.964603,116.506959 C346.247741,113.215536 336.622821,114.024539 327.923269,116.074752 C319.123976,118.329987 311.709962,122.435954 305.359843,127.949365 C299.037429,133.507105 293.695793,140.367007 289.805929,149.160758 C285.993641,157.976675 283.151048,168.089212 283.516762,182.462868 C283.743948,184.668232 283.860311,186.906843 283.860311,189.17316 C283.860311,196.880853 282.447326,204.233914 279.975988,211.088275 C277.238677,218.934496 276.141536,225.428685 275.631753,231.429714 C275.177382,237.874032 275.46552,243.703286 276.551579,248.873148 C278.601792,259.301529 283.511221,267.363853 289.983245,274.118474 L290.437616,274.855443 L289.778223,274.284708 C284.320224,266.687837 277.294088,260.39867 267.403195,256.47556 C262.521472,254.464134 256.847369,253.112102 250.425215,252.386216 C244.252411,251.771152 237.470085,251.66033 228.892436,253.045609 C225.717377,253.527686 222.492447,253.854612 219.1844,253.854612 C187.106878,253.854612 160.553848,230.476642 155.456021,199.850891 L155.389527,200.006042 C153.062258,185.355331 148.55179,175.663918 143.320976,167.596053 C138.062456,159.600222 131.806536,153.865166 124.874599,149.676082 C117.948204,145.453751 110.223887,143.054448 101.35256,143.259469 C96.9252081,143.337045 92.1764714,144.140507 87.0897265,145.719725 C82.8951014,147.077299 78.5009961,148.900326 73.5915669,151.870364 C72.7991873,152.418935 71.9680198,152.917635 71.1368524,153.421877 C70.8764199,153.599193 70.6270697,153.732179 70.3610961,153.915036 C69.3747774,154.857026 68.4771165,155.776851 67.690278,156.668971 C65.551407,159.251131 64.3379026,161.583941 63.8890721,163.722812 C63.1188569,167.961766 62.6589443,172.117604 63.3349605,175.979762 C62.0327981,172.283837 59.5947069,168.881592 56.8463132,165.562463 C55.4056229,163.922292 53.2057997,162.481602 50.0750689,161.27918 C48.9502223,160.885761 47.7034711,160.520047 46.3791443,160.176498 C20.7126931,159.882819 0,139.009433 0,113.276489 C0,87.3606871 21.0063723,66.3543148 46.9221737,66.3543148 C69.3359896,66.3543148 88.0483396,82.074462 92.7084185,103.080834 L92.7139597,103.075293 C92.7139597,103.102999 92.7195008,103.125163 92.7250419,103.15841 C92.918981,104.039447 93.0575089,104.937108 93.2015779,105.834769 C94.3153423,111.979867 96.0275473,116.778474 97.966938,121.045134 C100.233255,125.860364 102.84312,129.91092 105.76883,133.230049 C111.609167,139.912635 118.585432,144.001979 126.376242,146.262754 C134.150428,148.556777 142.600631,149.304827 152.053775,147.792103 C161.534625,146.207343 171.73028,142.999037 184.114675,134.831431 L184.086969,134.892384 C194.199507,128.342784 206.234811,124.497249 219.1844,124.497249 C227.723261,124.497249 235.85762,126.192831 243.327045,129.196116 L243.321503,129.196116 C257.141048,133.617927 267.702416,133.712126 277.288547,132.498621 C286.813726,131.207541 294.892674,127.988153 301.996385,123.466602 C309.055767,118.900722 315.062338,112.921857 319.683629,105.103342 C324.133145,97.2183332 327.635131,88.0810322 327.934351,74.6715305 C327.912186,74.1007955 327.851234,73.5411428 327.851234,72.9648667 C327.851234,47.5200602 348.475269,26.8904838 373.925617,26.8904838" id="Fill-5" fill="#F7C80C"></path>
            <path d="M289.808145,274.284708 C295.421296,281.759674 300.186656,289.938362 303.649854,299.197567 C306.065781,305.686214 307.955302,312.618151 308.819716,320.408961 C306.276343,322.503503 303.716348,324.149214 301.156352,325.534493 C296.496273,327.933797 291.819571,329.368946 287.120704,330.011716 C277.722971,331.086692 268.325237,332.21708 258.91088,332.527382 C268.330778,332.471971 277.767299,333.231104 287.19828,333.934826 C291.91377,334.394739 296.651424,335.647031 301.400161,337.857936 C306.132274,340.174123 310.87547,343.205114 315.668536,348.624326 C319.65814,353.472802 325.204797,357.096692 331.859678,358.365608 C346.981384,361.258071 361.582226,351.339473 364.469148,336.217766 C367.361611,321.1016 357.443012,306.500759 342.321306,303.608296 C342.088579,303.569508 341.855852,303.591672 341.623125,303.552885 C329.659855,301.524836 320.345238,297.291423 311.972611,292.276713 C303.500244,287.184427 296.330039,281.000541 290.013167,274.118474 L288.345291,272.339776 L289.808145,274.284708 Z" id="Fill-7" fill="#2B2B2B"></path>
            <path d="M143.420162,314.287135 C142.295315,312.724541 141.491853,310.441601 141.07627,307.277623 C140.993153,306.496326 140.926659,305.67624 140.88233,304.822909 C141.369949,302.113303 141.663628,299.337203 141.663628,296.483528 C141.663628,272.845126 124.109371,253.345937 101.329842,250.193042 C96.6475982,247.79928 93.1844004,245.089674 90.0979986,242.274787 C86.3355806,238.656438 83.498529,234.788738 81.4261514,230.7271 C77.408842,222.565036 73.7018352,214.325395 71.1362983,205.786535 C73.0812301,214.486088 73.8902331,223.490402 74.3833925,232.572292 C74.5662493,237.127089 73.9899732,241.886908 72.4827896,246.884995 C71.1640039,250.852435 69.4739633,254.914073 66.5648772,259.291555 C55.3551988,267.841498 48.085254,281.295328 48.085254,296.483528 C48.085254,322.327295 69.0362152,343.272715 94.8744409,343.272715 C106.045332,343.272715 116.290856,339.344064 124.342098,332.811088 L124.170323,333.193425 C124.436297,332.87204 124.657942,332.644854 124.912833,332.340093 C127.234561,330.395161 129.356808,328.228584 131.262952,325.87361 C132.105202,325.158806 132.925287,324.510495 133.712126,323.928678 C136.333074,322.111192 138.566144,321.169202 140.477829,320.947557 C144.251329,320.626173 147.897384,320.598467 151.061361,321.645738 C148.152275,320.005568 145.725266,317.295962 143.420162,314.287135" id="Fill-9" fill="#2B2B2B"></path>
        </g>
    </g>
</svg>