<?xml version="1.0" encoding="UTF-8"?>
<svg width="180px" height="180px" viewBox="0 0 180 180" version="1.1" xmlns="http://www.w3.org/2000/svg" xmlns:xlink="http://www.w3.org/1999/xlink">
    <title>nilai_logo_02</title>
    <defs>
        <linearGradient x1="88.0094528%" y1="9.67671871%" x2="0%" y2="100%" id="linearGradient-1">
            <stop stop-color="#FFD940" offset="0%"></stop>
            <stop stop-color="#F7C807" offset="100%"></stop>
        </linearGradient>
        <linearGradient x1="16.0068684%" y1="29.5482165%" x2="97.7790814%" y2="76.2446603%" id="linearGradient-2">
            <stop stop-color="#4C453B" offset="0%"></stop>
            <stop stop-color="#353129" offset="100%"></stop>
        </linearGradient>
    </defs>
    <g id="页面-1" stroke="none" stroke-width="1" fill="none" fill-rule="evenodd">
        <g id="尼来_logo01" transform="translate(-285.000000, -850.000000)">
            <g id="编组备份-3" transform="translate(0.000000, 780.000000)">
                <g id="nilai_logo_02" transform="translate(285.000000, 70.000000)">
                    <rect id="bg" fill="url(#linearGradient-1)" x="0" y="0" width="180" height="180" rx="45"></rect>
                    <path d="M80.1680088,99.3850172 C86.9641042,104.036311 99.7360325,105.060797 106.154312,100.770153 C109.46939,98.5540108 112.23101,94.9639599 114.439173,90 C105.088871,98.68397 95.1932609,99.0355325 84.7523439,91.0546875 C74.3114269,83.0738425 71.4188862,68.3903289 76.0747218,47.0041466 C71.3133001,52.5844431 68.4286666,58.5511923 67.4208212,64.9043941 C64.7669083,81.6339883 70.676411,92.8889032 80.1680088,99.3850172 Z M118.081084,151.523437 C147.169743,129.03388 158.739889,104.84975 152.791522,78.9710462 C143.868971,40.1529908 102.915738,39.2802644 90.7272971,53.262915 C82.60167,62.5846821 82.1972376,73.2310635 89.5139998,85.2020591 C87.7286249,80.5027646 87.7286249,75.9606655 89.5139998,71.575762 C92.1920621,64.9984067 97.9677486,60.4286671 106.709754,60.4286671 C115.45176,60.4286671 138.784468,61.4566934 139.704337,95.5102015 C140.317583,118.21254 133.109832,136.883619 118.081084,151.523437 Z M134.634276,98.4375 C132.231846,136.206164 115.552611,155.090497 84.5965719,155.090497 C53.6405325,155.090497 34.0507943,139.650406 25.8273574,108.770224 C41.9474676,129.258984 62.2556317,138.837662 86.7518499,137.506256 C111.248068,136.17485 127.208877,123.151932 134.634276,98.4375 Z M89.3637219,21.0801566 C89.3637219,21.0801566 56.7222834,40.3760004 56.7222834,70.7054329 C56.7222834,101.034865 79.1015625,107.785138 95.5847008,107.785138 C112.067839,107.785138 121.983483,93.5543701 118.144934,80.0396705 C115.675081,71.3438523 106.430043,68.0620301 100.492158,70.0023079 C96.5335679,71.2958264 93.9736819,73.6471646 92.8125,77.0563224 C93.0936384,73.0189841 95.0152874,69.6956384 98.5774469,67.0862854 C103.920686,63.1722558 121.424674,62.600441 128.381038,79.688108 C135.337401,96.775775 120.84343,130.605469 85.9040093,130.605469 C50.9645891,130.605469 28.3785439,102.029269 37.1901369,65.3284729 C46.00173,28.6276767 89.3637219,21.0801566 89.3637219,21.0801566 Z M102.832031,74.53125 C107.394853,74.53125 111.09375,78.2301475 111.09375,82.7929688 C111.09375,87.35579 107.394853,91.0546875 102.832031,91.0546875 C98.26921,91.0546875 94.5703125,87.35579 94.5703125,82.7929688 C94.5703125,78.2301475 98.26921,74.53125 102.832031,74.53125 Z" id="Fill-1" fill="url(#linearGradient-2)"></path>
                </g>
            </g>
        </g>
    </g>
</svg>