<svg xmlns="http://www.w3.org/2000/svg" xmlns:xlink="http://www.w3.org/1999/xlink" fill="none" version="1.1" width="400.0000305175781" height="400" viewBox="0 0 400.0000305175781 400"><defs><clipPath id="master_svg0_8309_26688"><rect x="0" y="0" width="400.0000305175781" height="400" rx="0"/></clipPath></defs><g clip-path="url(#master_svg0_8309_26688)"><g><g><path d="M335.983331237793,188.5756137939453L202.96773123779298,161.07091379394532L219.35223123779298,129.7677637939453C220.09253123779297,128.35064379394532,219.45243123779295,126.60435379394531,217.97133123779298,126.00023379394531L203.66593123779296,120.21713579394532C201.91913123779295,119.50475579394531,199.91163123779296,120.01412879394532,198.71643123779296,121.47298379394532L155.64519423779296,173.89301379394533C154.30607023779297,175.53651379394532,155.24383423779298,178.01251379394532,157.33639123779298,178.3582137939453L335.99833123779297,206.56051379394532C337.053331237793,206.72231379394532,338.00333123779296,205.90551379394532,338.000331237793,204.83951379394532L338.000331237793,191.05621379394532C337.99633123779296,189.85761379394532,337.156331237793,188.8240137939453,335.983331237793,188.5756137939453Z" fill="#FFB700" fill-opacity="1"/></g><g><path d="M282.7488757476807,159.505L300.79387574768066,164.156C301.77987574768065,164.411,302.7928757476807,163.853,303.10587574768067,162.885C309.19787574768065,143.52609999999999,308.1578757476807,122.6278,300.1728757476807,103.96860000000001C287.38787574768065,74.9291,258.0948757476807,54.77349,221.81887574768066,50.1222C188.87987574768067,45.84301,157.30537574768067,53.88975,133.02347574768066,72.7585C108.74157574768066,91.6272,93.17944574768066,120.0156,88.61786574768067,153.086Q87.62486374768066,160.21800000000002,87.31455666768066,166.777C87.27331494768066,167.767,87.99215674768067,168.626,88.97473574768067,168.761L107.42277574768066,171.35C108.55617574768067,171.498,109.56767574768067,170.632,109.59497574768066,169.49C109.75657574768067,165.023,110.15017574768066,160.567,110.77417574768066,156.14100000000002C118.53187574768066,99.5964,163.06167574768068,65.0994,218.91787574768065,72.24680000000001C247.74587574768066,75.93690000000001,269.8868757476807,90.852,279.62987574768067,112.9456C285.6728757476807,126.9365,286.30887574768064,142.6696,281.41487574768064,157.102C281.10587574768067,158.135,281.7088757476806,159.22,282.7488757476807,159.505Z" fill="#FFB700" fill-opacity="1"/></g><g><path d="M63.01703,212.45282229003905L196.017,239.95742229003906L179.57,271.26062229003907C178.84199999999998,272.68282229003904,179.487,274.42282229003905,180.96699999999998,275.0282222900391L195.272,280.81122229003904C197.019,281.52362229003904,199.026,281.0142222900391,200.221,279.5554222900391L243.293,227.13542229003906C243.925,226.37322229003905,244.097,225.32972229003906,243.744,224.40492229003905C243.39,223.48002229003907,242.566,222.81712229003907,241.586,222.67012229003907L62.98599,194.46786769003907C61.937408,194.31662429003907,60.99857951,195.13016429003906,61,196.18884229003908L61,209.97212229003907C61.00319611,211.17072229003907,61.843608,212.20432229003907,63.01703,212.45282229003905Z" fill="#611EC8" fill-opacity="1"/></g><g><path d="M116.2510655090332,241.522088671875L98.1908955090332,236.870828671875C97.20606550903321,236.624718671875,96.1979455090332,237.179108671875,95.8790655090332,238.142188671875C89.79972550903321,257.503988671875,90.84525550903321,278.399288671875,98.8270155090332,297.058588671875C111.61186550903321,326.098088671875,140.9053655090332,346.253388671875,177.18076550903322,350.905388671875C210.1668655090332,355.122388671875,241.6948655090332,347.075388671875,265.91486550903323,328.206588671875C290.13386550903317,309.337888671875,305.75886550903317,280.949488671875,310.3198655090332,247.878888671875C310.98686550903324,243.118988671875,311.4058655090332,238.576288671875,311.6228655090332,234.188568671875C311.66486550903323,233.198328671875,310.9458655090332,232.339008671875,309.96286550903324,232.204018671875L291.5148655090332,229.614807071875C290.3818655090332,229.467135671875,289.36986550903316,230.333527671875,289.34286550903323,231.475318671875C289.1808655090332,235.942428671875,288.78786550903317,240.398188671875,288.1638655090332,244.824488671875C280.4058655090332,301.368688671875,235.8758655090332,335.865388671875,180.0200655090332,328.71828867187503C151.1765655090332,325.028288671875,129.0513655090332,310.113088671875,119.3075655090332,288.019488671875C113.2921655090332,274.040888671875,112.6785655090332,258.329788671875,117.58536550903321,243.925288671875C117.89356550903321,242.892088671875,117.2914655090332,241.807588671875,116.2510655090332,241.522088671875Z" fill="#611EC8" fill-opacity="1"/></g></g></g></svg>