<svg id="图层_1" data-name="图层 1" xmlns="http://www.w3.org/2000/svg" xmlns:xlink="http://www.w3.org/1999/xlink" viewBox="0 0 286.97 318.4"><defs><style>.cls-1{fill:url(#未命名的渐变_320);}.cls-2{fill:#2b496d;}.cls-3{fill:#ff9700;}.cls-4{fill:url(#未命名的渐变_388);}.cls-5{fill:url(#未命名的渐变_397);}.cls-6{fill:url(#未命名的渐变_392);}.cls-7{fill:url(#未命名的渐变_170);}.cls-8{fill:url(#未命名的渐变_315);}.cls-9{fill:url(#未命名的渐变_312);}.cls-10{fill:url(#未命名的渐变_376);}.cls-11{fill:url(#未命名的渐变_383);}</style><linearGradient id="未命名的渐变_320" x1="118.69" y1="174.68" x2="393.31" y2="337.32" gradientUnits="userSpaceOnUse"><stop offset="0.02" stop-color="#39567f"/><stop offset="1" stop-color="#243547"/></linearGradient><linearGradient id="未命名的渐变_388" x1="179.15" y1="311.13" x2="230.89" y2="340.55" gradientUnits="userSpaceOnUse"><stop offset="0" stop-color="#ea8500"/><stop offset="1" stop-color="#ff9700"/></linearGradient><linearGradient id="未命名的渐变_397" x1="666.14" y1="311.02" x2="717.88" y2="340.43" gradientTransform="matrix(-1, 0, 0, 1, 999.11, 0)" gradientUnits="userSpaceOnUse"><stop offset="0" stop-color="#1b3b5b"/><stop offset="1" stop-color="#2b496d"/></linearGradient><linearGradient id="未命名的渐变_392" x1="342.6" y1="217.73" x2="342.6" y2="309.46" gradientUnits="userSpaceOnUse"><stop offset="0" stop-color="#2b496d"/><stop offset="1" stop-color="#137cd3"/></linearGradient><linearGradient id="未命名的渐变_170" x1="254.34" y1="158.25" x2="158.35" y2="212.58" gradientUnits="userSpaceOnUse"><stop offset="0.19" stop-color="#ffd18f"/><stop offset="0.88" stop-color="#ff9700"/></linearGradient><linearGradient id="未命名的渐变_315" x1="187.02" y1="282.4" x2="240.23" y2="252.35" gradientUnits="userSpaceOnUse"><stop offset="0" stop-color="#ffd03b"/><stop offset="1" stop-color="#ff9700" stop-opacity="0.5"/></linearGradient><linearGradient id="未命名的渐变_312" x1="-0.04" y1="-303.61" x2="63.28" y2="-339.37" gradientTransform="translate(596.66 50.63) rotate(-119.92)" gradientUnits="userSpaceOnUse"><stop offset="0" stop-color="#137cd3"/><stop offset="1" stop-color="#2b496d" stop-opacity="0.5"/></linearGradient><linearGradient id="未命名的渐变_376" x1="241.69" y1="245.24" x2="241.69" y2="192.4" gradientUnits="userSpaceOnUse"><stop offset="0" stop-color="#ffd766"/><stop offset="0.98" stop-color="#ff9903" stop-opacity="0.3"/></linearGradient><linearGradient id="未命名的渐变_383" x1="340.55" y1="300.05" x2="340.55" y2="227.78" gradientTransform="matrix(-0.5, -0.87, -0.87, 0.5, 605.14, 347.91)" gradientUnits="userSpaceOnUse"><stop offset="0" stop-color="#ffd766"/><stop offset="1" stop-color="#ffd18f"/></linearGradient></defs><path class="cls-1" d="M380.3,162.42,275.08,101.89a38.29,38.29,0,0,0-38.16,0L131.7,162.42a38.27,38.27,0,0,0-19.18,33.17V316.41a38.27,38.27,0,0,0,19.18,33.17l105.22,60.53a38.29,38.29,0,0,0,38.16,0L380.3,349.58a38.27,38.27,0,0,0,19.18-33.17V195.59A38.27,38.27,0,0,0,380.3,162.42Zm4.84,148a34.45,34.45,0,0,1-17.27,29.85l-94.7,54.48a34.46,34.46,0,0,1-34.34,0l-94.7-54.48a34.45,34.45,0,0,1-17.27-29.85V201.63a34.45,34.45,0,0,1,17.27-29.85l94.7-54.48a34.46,34.46,0,0,1,34.34,0l94.7,54.48a34.45,34.45,0,0,1,17.27,29.85Z" transform="translate(-112.52 -96.8)"/><path class="cls-2" d="M327.53,301.59l-64,37a7.69,7.69,0,0,0-3.85,6.67v20.21h0l88.7-51.23Z" transform="translate(-112.52 -96.8)"/><path class="cls-3" d="M184.48,301.7l64.06,36.9a7.65,7.65,0,0,1,3.83,6.63v20.24h0l-88.71-51.23Z" transform="translate(-112.52 -96.8)"/><path class="cls-4" d="M231.42,333.1a7.65,7.65,0,0,0-3.84-6.63l-43-24.77s-21,12.54,46.79,51.64a0,0,0,0,0,0,0h0Z" transform="translate(-112.52 -96.8)"/><path class="cls-5" d="M280.7,333a7.68,7.68,0,0,1,3.84-6.64l43-24.76s21,12.54-46.79,51.63c0,0,0,0,0,0h0Z" transform="translate(-112.52 -96.8)"/><path class="cls-2" d="M353.28,225.24h0v-2.5h0V208a12.85,12.85,0,0,0-6.42-11.13l-87.2-50.35,0,20.21a7.68,7.68,0,0,0,3.84,6.66l68.45,39.52v61.67l-72.29-41.74V253.1a7.66,7.66,0,0,0,3.83,6.63l85.45,49.34a2.9,2.9,0,0,0,4.35-2.51l0-76.5h0Z" transform="translate(-112.52 -96.8)"/><path class="cls-6" d="M331.92,217.73v56.85c0,27,17,34.49,17,34.49a2.9,2.9,0,0,0,4.35-2.51l0-76.5h0Z" transform="translate(-112.52 -96.8)"/><path class="cls-7" d="M252.34,146.52l0,20.25a7.62,7.62,0,0,1-3.81,6.6l-89.84,51.87V208a12.85,12.85,0,0,1,6.42-11.13Z" transform="translate(-112.52 -96.8)"/><path class="cls-3" d="M180.08,217.73v56.85l72.29-41.74v20.25a7.68,7.68,0,0,1-3.84,6.65L163,309.11a2.86,2.86,0,0,1-4.28-2.47l0-76.58Z" transform="translate(-112.52 -96.8)"/><path class="cls-8" d="M196.28,283.66c-8.1.54-16.2-1-16.2-9.08l55.41-32,4.54,22L220.36,276A56,56,0,0,1,196.28,283.66Z" transform="translate(-112.52 -96.8)"/><path class="cls-9" d="M317.07,179.67c8.91,5.14,14.85,12.09,14.85,33.24L266.29,175l9.29-19.31Z" transform="translate(-112.52 -96.8)"/><path class="cls-3" d="M252.37,249.48H231V192.65a7.46,7.46,0,0,1,3.69-6.43l17.68-10.33Z" transform="translate(-112.52 -96.8)"/><path class="cls-10" d="M252.37,194.48v13.66c0,23.22-8.14,29.43-21.37,37.1h0V192.4Z" transform="translate(-112.52 -96.8)"/><path class="cls-11" d="M226.22,161.6l-24.73,14.21c-20.08,11.64-21.38,21.8-21.39,37.1h0l62.59-36.15Z" transform="translate(-112.52 -96.8)"/></svg>