<svg xmlns="http://www.w3.org/2000/svg" xmlns:xlink="http://www.w3.org/1999/xlink" fill="none" version="1.1" width="475.199951171875" height="475.199951171875" viewBox="0 0 475.199951171875 475.199951171875"><g><g><g><g><path d="M356.6002039794922,144.69349123535156L311.6612039794922,144.69349123535156C309.2522039794922,144.69349123535156,307.30020397949215,146.64579123535157,307.30020397949215,149.05409123535156L307.30020397949215,150.63979123535157L247.9091039794922,108.87149123535156L247.9091039794922,82.99601123535156C247.8895039794922,80.58198123535156,245.92680397949218,78.63539123535156,243.51250397949218,78.63539123535156L198.6088739794922,78.63539123535156C196.19464397949218,78.63530875045156,194.2319728794922,80.58190123535157,194.2122039794922,82.99601123535156L194.2122039794922,127.93569123535156C194.2122039794922,130.36389123535156,196.18065397949218,132.33229123535156,198.6088739794922,132.33229123535156L243.54850397949218,132.33229123535156C245.97670397949219,132.33229123535156,247.9452039794922,130.36389123535156,247.9452039794922,127.93569123535156L247.9452039794922,124.69219123535157L307.3362039794922,166.46049123535158L307.3362039794922,176.33499123535157L247.9091039794922,217.67039123535156L247.9091039794922,215.11239123535157C247.8895039794922,212.69839123535155,245.92680397949218,210.75139123535158,243.51250397949218,210.75139123535158L198.6088739794922,210.75139123535158C196.1946739794922,210.75139123535158,194.23200037949218,212.69839123535155,194.2122039794922,215.11239123535157L194.2122039794922,260.08739123535156C194.2319728794922,262.50139123535155,196.19462397949218,264.44839123535155,198.6088739794922,264.44839123535155L243.54850397949218,264.44839123535155C245.96270397949218,264.44839123535155,247.9254039794922,262.5023912353515,247.9452039794922,260.08739123535156L247.9452039794922,257.52939123535157L307.30020397949215,298.8653912353516L307.30020397949215,308.6673912353516L247.9091039794922,349.31839123535156L247.9091039794922,347.2643912353516C247.9092039794922,344.8363912353516,245.94070397949218,342.8673912353516,243.51250397949218,342.8673912353516L198.6088739794922,342.8673912353516C196.18065397949218,342.8673912353516,194.2122039794922,344.8363912353516,194.2122039794922,347.2643912353516L194.2122039794922,392.2043912353516C194.2319178794922,394.61839123535157,196.1945939794922,396.56439123535154,198.6088739794922,396.56439123535154L243.54850397949218,396.56439123535154C245.96280397949218,396.56439123535154,247.9254039794922,394.61839123535157,247.9452039794922,392.2043912353516L247.9452039794922,365.0313912353516L307.30020397949215,324.0913912353516L307.30020397949215,326.00139123535155C307.30020397949215,328.41039123535154,309.2522039794922,330.36239123535154,311.6612039794922,330.36239123535154L356.6002039794922,330.36239123535154C359.0232039794922,330.3823912353516,360.99720397949216,328.42439123535155,360.99720397949216,326.00139123535155L360.99720397949216,281.2063912353516C361.0172039794922,278.7693912353516,359.0372039794922,276.78939123535156,356.6002039794922,276.80939123535154L311.6612039794922,276.80939123535154C309.2382039794922,276.80939123535154,307.28020397949217,278.7833912353516,307.30020397949215,281.2063912353516L307.30020397949215,282.97239123535155L247.9091039794922,241.78039123535157L247.9091039794922,233.41939123535155L307.30020397949215,192.22739123535155L307.30020397949215,194.02939123535157C307.30020397949215,196.43839123535156,309.2522039794922,198.39039123535156,311.6612039794922,198.39039123535156L356.6002039794922,198.39039123535156C359.0232039794922,198.41039123535157,360.99720397949216,196.45239123535157,360.99720397949216,194.02939123535157L360.99720397949216,149.05409123535156C360.99720397949216,146.63159123535155,359.0232039794922,144.67339123535157,356.6002039794922,144.69349123535156Z" fill="#33D383" fill-opacity="1"/></g><g><rect x="138.0291748046875" y="124.98054504394531" width="21.98331069946289" height="78.38311767578125" rx="1" fill="#33D383" fill-opacity="1"/></g><g><rect x="138.0291748046875" y="271.80023193359375" width="21.98331069946289" height="78.38311767578125" rx="1" fill="#33D383" fill-opacity="1"/></g><g><path d="M237.6,0C106.377,0.0000137475,0,106.377,0,237.6C0,368.823,106.377,475.2,237.6,475.2C368.823,475.2,475.2,368.823,475.2,237.6C475.061,106.435,368.765,0.139028,237.6,0ZM237.6,458.55C115.572,458.55,16.6496,359.627,16.6496,237.6C16.6496,115.572,115.572,16.6496,237.6,16.6496C359.627,16.6496,458.55,115.572,458.55,237.6C458.411,359.57,359.57,458.411,237.6,458.55Z" fill="#33D383" fill-opacity="1"/></g></g></g></g></svg>