<svg xmlns="http://www.w3.org/2000/svg" xmlns:xlink="http://www.w3.org/1999/xlink" fill="none" version="1.1" width="720" height="720" viewBox="0 0 720 720"><g><g><g><rect x="0" y="0" width="720" height="720" rx="120" fill="#FFFFFF" fill-opacity="1"/></g><g><g><path d="M479.0002055053711,267.09349276123044L434.0612055053711,267.09349276123044C431.6522055053711,267.09349276123044,429.70020550537106,269.0457927612305,429.70020550537106,271.45409276123047L429.70020550537106,273.0397927612305L370.3091055053711,231.27149276123046L370.3091055053711,205.39601276123048C370.2895055053711,202.98198276123046,368.3268055053711,201.03539276123047,365.9125055053711,201.03539276123047L321.00887550537107,201.03539276123047C318.5946455053711,201.03531027633048,316.63197440537107,202.98190276123046,316.6122055053711,205.39601276123048L316.6122055053711,250.33569276123046C316.6122055053711,252.76389276123047,318.5806555053711,254.73229276123047,321.00887550537107,254.73229276123047L365.9485055053711,254.73229276123047C368.3767055053711,254.73229276123047,370.3452055053711,252.76389276123047,370.3452055053711,250.33569276123046L370.3452055053711,247.09219276123048L429.7362055053711,288.8604927612305L429.7362055053711,298.7349927612305L370.3091055053711,340.07039276123044L370.3091055053711,337.51239276123044C370.2895055053711,335.09839276123046,368.3268055053711,333.15139276123045,365.9125055053711,333.15139276123045L321.00887550537107,333.15139276123045C318.5946755053711,333.15139276123045,316.6320019053711,335.09839276123046,316.6122055053711,337.51239276123044L316.6122055053711,382.48739276123047C316.63197440537107,384.90139276123045,318.5946255053711,386.84839276123046,321.00887550537107,386.84839276123046L365.9485055053711,386.84839276123046C368.3627055053711,386.84839276123046,370.3254055053711,384.90239276123043,370.3452055053711,382.48739276123047L370.3452055053711,379.9293927612305L429.70020550537106,421.2653927612305L429.70020550537106,431.0673927612305L370.3091055053711,471.71839276123046L370.3091055053711,469.6643927612305C370.3092055053711,467.2363927612305,368.3407055053711,465.2673927612305,365.9125055053711,465.2673927612305L321.00887550537107,465.2673927612305C318.5806555053711,465.2673927612305,316.6122055053711,467.2363927612305,316.6122055053711,469.6643927612305L316.6122055053711,514.6043927612304C316.6319194053711,517.0183927612304,318.5945955053711,518.9643927612304,321.00887550537107,518.9643927612304L365.9485055053711,518.9643927612304C368.3628055053711,518.9643927612304,370.3254055053711,517.0183927612304,370.3452055053711,514.6043927612304L370.3452055053711,487.4313927612305L429.70020550537106,446.4913927612305L429.70020550537106,448.40139276123045C429.70020550537106,450.81039276123045,431.6522055053711,452.76239276123044,434.0612055053711,452.76239276123044L479.0002055053711,452.76239276123044C481.42320550537113,452.7823927612305,483.39720550537106,450.82439276123046,483.39720550537106,448.40139276123045L483.39720550537106,403.6063927612305C483.4172055053711,401.1693927612305,481.4372055053711,399.18939276123047,479.0002055053711,399.20939276123045L434.0612055053711,399.20939276123045C431.6382055053711,399.20939276123045,429.6802055053711,401.1833927612305,429.70020550537106,403.6063927612305L429.70020550537106,405.37239276123046L370.3091055053711,364.18039276123045L370.3091055053711,355.81939276123046L429.70020550537106,314.62739276123045L429.70020550537106,316.4293927612305C429.70020550537106,318.83839276123047,431.6522055053711,320.79039276123046,434.0612055053711,320.79039276123046L479.0002055053711,320.79039276123046C481.42320550537113,320.81039276123045,483.39720550537106,318.8523927612305,483.39720550537106,316.4293927612305L483.39720550537106,271.45409276123047C483.39720550537106,269.03159276123046,481.42320550537113,267.0733927612305,479.0002055053711,267.09349276123044Z" fill="#33D383" fill-opacity="1"/></g><g><rect x="260.4291763305664" y="247.38054656982422" width="21.98331069946289" height="78.38311767578125" rx="1" fill="#33D383" fill-opacity="1"/></g><g><rect x="260.4291763305664" y="394.20023345947266" width="21.98331069946289" height="78.38311767578125" rx="1" fill="#33D383" fill-opacity="1"/></g><g><path d="M360.00000152587893,122.4000015258789C228.77700152587892,122.40001527337891,122.4000015258789,228.77700152587892,122.4000015258789,360.00000152587893C122.4000015258789,491.2230015258789,228.77700152587892,597.600001525879,360.00000152587893,597.600001525879C491.2230015258789,597.600001525879,597.600001525879,491.2230015258789,597.600001525879,360.00000152587893C597.4610015258788,228.8350015258789,491.1650015258789,122.5390295258789,360.00000152587893,122.4000015258789ZM360.00000152587893,580.9500015258789C237.9720015258789,580.9500015258789,139.0496015258789,482.0270015258789,139.0496015258789,360.00000152587893C139.0496015258789,237.9720015258789,237.9720015258789,139.0496015258789,360.00000152587893,139.0496015258789C482.0270015258789,139.0496015258789,580.9500015258789,237.9720015258789,580.9500015258789,360.00000152587893C580.811001525879,481.9700015258789,481.9700015258789,580.811001525879,360.00000152587893,580.9500015258789Z" fill="#33D383" fill-opacity="1"/></g></g></g></g></svg>