<?xml version="1.0" encoding="UTF-8"?>
<svg width="359px" height="468px" viewBox="0 0 359 468" version="1.1" xmlns="http://www.w3.org/2000/svg" xmlns:xlink="http://www.w3.org/1999/xlink">
    <title>MetaLord logo</title>
    <g id="页面-1" stroke="none" stroke-width="1" fill="none" fill-rule="evenodd">
        <g id="MetaLord-logo" transform="translate(0, -0)">
            <path d="M47.0373987,401.479523 C26.250766,413.518819 0.213554951,398.540874 0.213554951,374.546132 L0.213554951,268.809366 C-0.0711849836,266.369916 -0.0711849836,263.901217 0.213554951,261.461768 L0.213554951,31.1824419 C0.213554951,7.18660762 26.250766,-7.79012857 47.0373987,4.24901156 L233.257642,112.103321 L311.962339,66.5205256 C332.749167,54.4814244 358.786357,69.4581996 358.786357,93.4539169 L358.786357,199.190488 C359.071214,201.629937 359.071214,204.098636 358.786357,206.538086 L358.786357,436.817412 C358.786357,460.814104 332.749167,475.790099 311.962339,463.750803 L125.740535,355.896338 L47.0373987,401.479523 Z" id="路径" fill="#000000"></path>
            <path d="M255.23528,202.284357 C255.597986,203.141577 256.088488,204.101171 256.628743,205.111271 C268.731695,196.736999 275.291232,189.778621 274.506897,185.398532 C274.463974,185.161022 274.395686,184.932093 274.302034,184.716618 C273.111874,181.980963 265.645083,181.094104 255.962643,182.482503 C255.220842,182.588778 254.488796,182.290818 254.03712,181.693144 C253.136891,180.501889 253.768261,178.74494 255.234695,178.460435 C276.381887,174.358221 293.014861,175.454121 295.545415,181.273309 C301.398661,194.728694 255.006418,227.851774 191.926961,255.2557 C128.847699,282.659626 72.9678902,293.967283 67.115885,280.511702 C66.8965756,280.007627 66.7489454,279.463577 66.6774519,278.896322 C65.9024174,272.746414 75.2538754,261.835193 91.2019613,250.112382 C92.7050749,249.007512 94.8458021,249.909192 95.2032403,251.725421 C95.3819594,252.635681 95.0608113,253.591765 94.3757864,254.21752 C89.1170351,259.019784 86.2569439,263.690032 87.2519958,265.977772 C87.3458428,266.193246 87.4662246,266.399751 87.6109949,266.592801 C90.0726751,269.87738 98.4008686,270.09227 110.9633,267.649116 C110.526063,266.243556 110.093508,264.891817 109.617054,263.765497 C105.618311,254.317165 103.407345,243.929129 103.407345,233.024927 C103.407345,189.408316 138.785145,154.049952 182.426167,154.049952 C204.246483,154.049952 224.001188,162.889534 238.300864,177.181235 C245.450604,184.327008 251.236732,192.83583 255.23528,202.284357 Z M259.850564,250.355742 C260.934195,245.959078 261.283244,241.379894 262.133135,235.835656 C259.465226,236.811046 258.022205,237.191686 256.709517,237.849031 C237.050415,247.497627 217.636173,257.568984 198.914761,269.006706 C186.006598,276.882168 173.447483,284.987145 163.352194,296.445732 C157.554554,303.022495 158.752518,307.987778 167.092418,310.903222 C168.660308,311.450782 173.022537,312.067762 174.621644,311.999902 C183.401513,311.999902 189.460208,311.888947 198.00302,310.454722 C214.14081,307.747733 228.127337,300.122651 239.49356,288.346019 C249.77108,277.690443 256.313643,264.729967 259.850564,250.355742 Z" id="形状" fill="#25F1F4"></path>
        </g>
    </g>
</svg>