<svg xmlns="http://www.w3.org/2000/svg" xmlns:xlink="http://www.w3.org/1999/xlink" fill="none" version="1.1" width="407.551025390625" height="469.0830078125" viewBox="0 0 407.551025390625 469.0830078125"><g><g><path d="M268.45009326171873,215.19104104003907C271.1310932617188,197.27614104003908,257.49009326171876,187.64544104003906,238.83919326171875,181.22084104003906L244.88909326171876,156.95274104003906L230.11729326171877,153.27132104003906L224.22709326171875,176.89984104003906C220.34359326171875,175.93214104003906,216.35509326171876,175.01914104003907,212.39179326171876,174.11454104003906L218.32409326171876,150.33038104003907L203.56049326171876,146.64894104003906L197.50609326171875,170.90854104003907C194.29169326171876,170.17654104003907,191.13619326171874,169.45284104003906,188.07319326171876,168.69134104003905L188.08999326171875,168.61554104003906L167.71799326171876,163.52884104003905L163.78829326171876,179.30644104003906Q174.74849326171875,181.81824104003906,174.51709326171874,181.97394104003905C180.49989326171874,183.46754104003907,181.58119326171874,187.42664104003907,181.40029326171876,190.56534104003907L174.50869326171875,218.21194104003905C174.92099326171876,218.31714104003908,175.45539326171874,218.46854104003904,176.04439326171877,218.70414104003908C175.55209326171877,218.58214104003906,175.02619326171876,218.44754104003906,174.48339326171876,218.31704104003904L164.82329326171876,257.04594104003905C164.09129326171876,258.86294104003906,162.23579326171875,261.5899410400391,158.05369326171876,260.55494104003907Q158.20099326171874,260.76894104003907,147.31650326171874,257.87494104003906L139.98309326171875,274.78394104003905L159.20649326171875,279.5759410400391C162.78279326171875,280.47194104003904,166.28749326171874,281.41094104003906,169.73759326171876,282.29394104003904L163.62429326171875,306.8399410400391L178.37949326171875,310.5209410400391L184.43389326171877,286.236941040039C188.46449326171876,287.3299410400391,192.37739326171874,288.3399410400391,196.20609326171876,289.29094104003906L190.17269326171873,313.46194104003905L204.94479326171876,317.14394104003907L211.05809326171874,292.64394104003907C236.24749326171874,297.41094104003906,255.18909326171877,295.4889410400391,263.1620932617187,272.7059410400391C269.5870932617188,254.36194104003906,262.84209326171873,243.78004104003907,249.58909326171874,236.87994104003906C259.24109326171873,234.65424104003907,266.51109326171877,228.30534104003908,268.45009326171873,215.19104104003907ZM234.69909326171876,262.51994104003904C230.13409326171876,280.8639410400391,199.24789326171876,270.94694104003906,189.23439326171876,268.4609410400391L197.34609326171875,235.94174104003906C207.35969326171875,238.44094104003906,239.47019326171875,243.38874104003906,234.69909326171876,262.51994104003904ZM239.26829326171875,214.92604104003908C235.10299326171875,231.61244104003907,209.39599326171873,223.13454104003907,201.05709326171876,221.05614104003905L208.41149326171876,191.56254104003906C216.75049326171876,193.64094104003905,243.60609326171874,197.52014104003905,239.26829326171875,214.92604104003908Z" fill="#F7931A" fill-opacity="1"/></g><g><path d="M179.262,86.90859436645508L64.0767,153.52769436645508L64.0767,388.8306943664551L0,351.60569436645505L0,116.50529436645508L115.948,49.47969436645508L179.262,86.90859436645508Z" fill-rule="evenodd" fill="#222222" fill-opacity="1"/></g><g><path d="M203.82494890136718,0L407.4467489013672,117.525L343.3697489013672,154.547L139.5957489013672,36.8695L203.82494890136718,0ZM343.4737489013672,287.583L343.3697489013672,154.547L407.4467489013672,117.525L407.5497489013672,251.476L343.4737489013672,287.583Z" fill-rule="evenodd" fill="#222222" fill-opacity="1"/></g><g><path d="M87.7237777709961,402.20922631835936L203.72677777099608,469.0832263183594L407.3477777709961,351.5073263183594L407.5507777709961,277.4632263183594L203.7227777709961,395.08922631835935L88.4865927709961,328.62292631835936L87.7237777709961,402.20922631835936Z" fill="#222222" fill-opacity="1"/></g></g></svg>