<svg xmlns="http://www.w3.org/2000/svg" xmlns:xlink="http://www.w3.org/1999/xlink" viewBox="0 0 781.57 781.58"><defs><style>.cls-1{fill:#5f00ff;}.cls-2{fill:url(#未命名的渐变_367);}.cls-3{fill:url(#未命名的渐变_352);}.cls-4{fill:url(#未命名的渐变_482);}.cls-5{fill:url(#未命名的渐变_936);}.cls-6{fill:url(#未命名的渐变_351);}.cls-7{fill:url(#未命名的渐变_482-2);}.cls-8{fill:url(#未命名的渐变_482-3);}.cls-9{fill:url(#未命名的渐变_270);}.cls-10{fill:url(#未命名的渐变_262);}.cls-11{fill:url(#未命名的渐变_252);}.cls-12{fill:url(#未命名的渐变_250);}.cls-13{fill:url(#未命名的渐变_482-4);}.cls-14{fill:url(#未命名的渐变_415);}.cls-15{fill:url(#未命名的渐变_98);}.cls-16{fill:url(#未命名的渐变_513);}.cls-17{fill:url(#未命名的渐变_513-2);}.cls-18{fill:url(#未命名的渐变_353);}.cls-19{fill:url(#未命名的渐变_500);}.cls-20{fill:url(#未命名的渐变_169);}.cls-21{fill:url(#未命名的渐变_169-2);}.cls-22{fill:url(#未命名的渐变_169-3);}.cls-23{fill:url(#未命名的渐变_169-4);}.cls-24{fill:url(#未命名的渐变_98-2);}.cls-25{fill:url(#未命名的渐变_98-3);}.cls-26{fill:url(#未命名的渐变_104);}.cls-27{fill:url(#未命名的渐变_98-4);}.cls-28{fill:url(#未命名的渐变_498);}.cls-29{fill:url(#未命名的渐变_498-2);}</style><linearGradient id="未命名的渐变_367" x1="313.37" y1="558.19" x2="318.69" y2="566.83" gradientUnits="userSpaceOnUse"><stop offset="0" stop-color="#4e12c6" stop-opacity="0.96"/><stop offset="0.99" stop-color="#8537f2"/></linearGradient><linearGradient id="未命名的渐变_352" x1="342.79" y1="500.64" x2="320.18" y2="543.21" gradientUnits="userSpaceOnUse"><stop offset="0.17" stop-color="#470cc6"/><stop offset="0.64" stop-color="#5f00ff"/><stop offset="1" stop-color="#8738f2"/></linearGradient><linearGradient id="未命名的渐变_482" x1="127.89" y1="383.36" x2="602.76" y2="656.04" gradientUnits="userSpaceOnUse"><stop offset="0.14" stop-color="#5f00ff"/><stop offset="0.21" stop-color="#f0cecf"/><stop offset="0.26" stop-color="#fff"/><stop offset="0.58" stop-color="#dcb1d6"/><stop offset="1" stop-color="#5f00ff"/></linearGradient><linearGradient id="未命名的渐变_936" x1="290.76" y1="320.01" x2="367.91" y2="347.95" gradientUnits="userSpaceOnUse"><stop offset="0" stop-color="#5a37b3"/><stop offset="1" stop-color="#d8bcce"/></linearGradient><linearGradient id="未命名的渐变_351" x1="336.48" y1="226.9" x2="331.83" y2="272.13" gradientUnits="userSpaceOnUse"><stop offset="0.03" stop-color="#470cc6"/><stop offset="0.47" stop-color="#5f00ff"/><stop offset="1" stop-color="#8738f2"/></linearGradient><linearGradient id="未命名的渐变_482-2" x1="460.24" y1="243.25" x2="401.71" y2="155.46" xlink:href="#未命名的渐变_482"/><linearGradient id="未命名的渐变_482-3" x1="535.33" y1="247.37" x2="448.87" y2="195.49" xlink:href="#未命名的渐变_482"/><linearGradient id="未命名的渐变_270" x1="417.86" y1="553.33" x2="433.82" y2="601.22" gradientUnits="userSpaceOnUse"><stop offset="0" stop-color="#470cc6"/><stop offset="0.97" stop-color="#a767e7"/></linearGradient><linearGradient id="未命名的渐变_262" x1="372.15" y1="338.34" x2="531.77" y2="533.87" gradientUnits="userSpaceOnUse"><stop offset="0" stop-color="#5f00ff"/><stop offset="1" stop-color="#f0cecf"/></linearGradient><radialGradient id="未命名的渐变_252" cx="376.8" cy="558.2" r="131.63" gradientUnits="userSpaceOnUse"><stop offset="0" stop-color="#f0cecf"/><stop offset="1" stop-color="#5f00ff"/></radialGradient><radialGradient id="未命名的渐变_250" cx="436.75" cy="386.36" r="134.63" gradientTransform="translate(473.03 910.79) rotate(-127.78) scale(1 0.76)" gradientUnits="userSpaceOnUse"><stop offset="0" stop-color="#f0cecf"/><stop offset="0.66" stop-color="#5f00ff"/></radialGradient><linearGradient id="未命名的渐变_482-4" x1="1497.83" y1="227.96" x2="1449.28" y2="186.73" gradientTransform="translate(-1149.26)" xlink:href="#未命名的渐变_482"/><linearGradient id="未命名的渐变_415" x1="301.62" y1="254.98" x2="371.45" y2="448.52" gradientUnits="userSpaceOnUse"><stop offset="0.11" stop-color="#5f00ff"/><stop offset="0.41" stop-color="#f0cecf"/><stop offset="0.48" stop-color="#fff"/><stop offset="0.58" stop-color="#dcb1d6"/><stop offset="0.89" stop-color="#5f00ff"/></linearGradient><linearGradient id="未命名的渐变_98" x1="392.51" y1="410.66" x2="431.75" y2="466.52" gradientUnits="userSpaceOnUse"><stop offset="0" stop-color="#fff000"/><stop offset="0.92" stop-color="#fdb2c8" stop-opacity="0"/></linearGradient><linearGradient id="未命名的渐变_513" x1="388.52" y1="397.75" x2="440.39" y2="516.13" gradientUnits="userSpaceOnUse"><stop offset="0" stop-color="#fff000"/><stop offset="0.67" stop-color="#fdb2c8" stop-opacity="0"/><stop offset="0.92" stop-color="#f6e946"/></linearGradient><linearGradient id="未命名的渐变_513-2" x1="451.54" y1="315.08" x2="475.48" y2="395.89" xlink:href="#未命名的渐变_513"/><linearGradient id="未命名的渐变_353" x1="248.1" y1="457.91" x2="226.16" y2="496.92" gradientUnits="userSpaceOnUse"><stop offset="0.18" stop-color="#470cc6"/><stop offset="0.56" stop-color="#5f00ff"/><stop offset="1" stop-color="#8738f2"/></linearGradient><linearGradient id="未命名的渐变_500" x1="283.96" y1="594.72" x2="250.49" y2="502.5" gradientUnits="userSpaceOnUse"><stop offset="0.14" stop-color="#5f00ff"/><stop offset="0.21" stop-color="#f0cecf"/><stop offset="0.52" stop-color="#fff"/><stop offset="0.67" stop-color="#dcb1d6"/><stop offset="0.98" stop-color="#5f00ff"/></linearGradient><linearGradient id="未命名的渐变_169" x1="645.41" y1="396.6" x2="28.21" y2="88" gradientUnits="userSpaceOnUse"><stop offset="0" stop-color="#5f00ff"/><stop offset="0.4" stop-color="#f0cecf"/><stop offset="0.47" stop-color="#fff"/><stop offset="0.58" stop-color="#edcad0"/><stop offset="1" stop-color="#5f00ff"/></linearGradient><linearGradient id="未命名的渐变_169-2" x1="457.42" y1="643.54" x2="587.77" y2="-0.26" xlink:href="#未命名的渐变_169"/><linearGradient id="未命名的渐变_169-3" x1="106.35" y1="430.54" x2="747.49" y2="654.01" xlink:href="#未命名的渐变_169"/><linearGradient id="未命名的渐变_169-4" x1="425.95" y1="220.64" x2="46.86" y2="720.78" xlink:href="#未命名的渐变_169"/><linearGradient id="未命名的渐变_98-2" x1="706.99" y1="255.16" x2="587.27" y2="277.78" xlink:href="#未命名的渐变_98"/><linearGradient id="未命名的渐变_98-3" x1="541.31" y1="696.28" x2="499.41" y2="532.67" xlink:href="#未命名的渐变_98"/><linearGradient id="未命名的渐变_104" x1="63.18" y1="462.28" x2="156.96" y2="470.26" xlink:href="#未命名的渐变_98"/><linearGradient id="未命名的渐变_98-4" x1="281.35" y1="57.08" x2="294.66" y2="230" xlink:href="#未命名的渐变_98"/><radialGradient id="未命名的渐变_498" cx="237.25" cy="442.26" r="48.84" gradientUnits="userSpaceOnUse"><stop offset="0.49" stop-color="#fff"/><stop offset="1" stop-color="#feec0d"/></radialGradient><radialGradient id="未命名的渐变_498-2" cx="335.56" cy="208.75" r="44.43" xlink:href="#未命名的渐变_498"/></defs><g id="图层_2" data-name="图层 2"><g id="图层_1-2" data-name="图层 1"><polygon class="cls-1" points="358.46 588.9 306.78 611.55 273.75 590.88 325.38 568.2 325.94 568.56 358.46 588.9"/><polygon class="cls-2" points="348.03 517.41 325.38 568.2 273.75 590.88 286.3 562.76 304.14 554.91 314.22 532.33 348.03 517.41"/><polygon class="cls-3" points="348.03 517.41 314.22 532.33 326.81 504.11 348.03 517.41"/><polygon class="cls-4" points="251.93 400.49 232.6 443.67 232.1 444.79 180.65 467.75 200.46 423.54 251.93 400.49"/><path class="cls-5" d="M386.16,246.49q-34,76.13-68.05,152.27L303,432.52,270.78,412.3q22-49.24,44.05-98.48l19.69-44Z"/><polygon class="cls-6" points="386.16 246.49 334.52 269.81 283.66 237.84 335.22 214.43 386.16 246.49"/><polygon class="cls-7" points="440.71 154.35 421.17 198.09 416.31 208.98 384.14 188.73 389.01 177.85 440.71 154.35"/><polygon class="cls-8" points="494.78 188.41 475.27 232.15 470.41 243.04 449.27 229.73 454.13 218.84 460.87 203.74 494.78 188.41"/><path class="cls-9" d="M388.29,594.67c-8.63-4.57-18.11-7.64-26.68-12.83l.26-.57,19.23-43.15c12.78,8,25.48,16.15,38.34,24,14.76,9,41.32,19,70.1,9C489.54,571.11,422.1,612.59,388.29,594.67Z"/><polygon class="cls-1" points="304.14 554.91 286.3 562.76 252.54 577.62 219.48 556.95 271.02 534.17 271.75 534.63 292.94 547.89 304.14 554.91"/><path class="cls-10" d="M546.07,295.57l0-.05,0,0c-10.54-11.72-23.65-19.89-36.95-28.17l-2.65-1.64-3-1.9,24.34-54.62-32.91-20.74-19.51,43.74L470.41,243l-21.14-13.31,4.86-10.89,6.74-15.1,12.78-28.64-32.94-20.75-19.54,43.74L416.31,209l-32.17-20.25-29.2-18.38L335.41,214l-.19.44,50.94,32.06q-34,76.13-68.05,152.27L303,432.52,270.78,412.3l-18.85-11.81L232.6,443.67l-.5,1.12,61.61,38.59L271,534.17l.73.46,21.19,13.26,11.2,7,10.08-22.58,12.59-28.22L348,517.41,325.38,568.2l.57.36,32.51,20.34,3.15-7.06.26-.57,19.23-43.15c12.78,8,25.48,16.15,38.34,24a86.12,86.12,0,0,0,46.63,13h.35c25.21-.63,48.92-13.31,62.68-37.67l.7-1.28c.24-.44.47-.87.69-1.31l.54-1c.27-.54.53-1.09.79-1.63s.43-.91.63-1.36.33-.76.49-1.14c.32-.76.63-1.51.93-2.28l.43-1.15c.43-1.15.84-2.29,1.22-3.46s.73-2.33,1.07-3.51c.11-.38.21-.77.31-1.15s.22-.79.32-1.2l.3-1.18c.14-.56.27-1.13.38-1.68a.53.53,0,0,0,0-.16c.13-.57.25-1.13.36-1.7.08-.39.16-.79.23-1.18a0,0,0,0,1,0,0l.14-.79c.05-.26.1-.52.14-.78s.13-.79.19-1.19c.17-1.07.32-2.14.45-3.22,0-.14,0-.28.06-.42l0-.3c0-.31.08-.63.11-.94a2.48,2.48,0,0,1,0-.27c.11-1.06.2-2.13.27-3.2,0-.59.08-1.19.11-1.78,0-.42,0-.86,0-1.28,0-.22,0-.43,0-.65a.61.61,0,0,0,0-.14V496c0-.2,0-.4,0-.61,0-1.37,0-2.75,0-4.12,0-.51,0-1,0-1.52s0-.82,0-1.23c0-.13,0-.25,0-.38,0-.42,0-.84-.07-1.26,0-.1,0-.19,0-.29,0-.34,0-.67-.07-1l-.06-.82c0-.27,0-.54-.07-.81-.07-.75-.14-1.51-.22-2.26,0-.39-.09-.79-.14-1.18s-.06-.53-.1-.8a.28.28,0,0,0,0-.09c0-.1,0-.2,0-.3-.07-.52-.14-1-.22-1.54a.52.52,0,0,0,0-.18c0-.36-.1-.72-.16-1.08s-.12-.72-.18-1.08c-.18-1.05-.37-2.1-.58-3.15-.11-.53-.22-1.06-.32-1.57a.72.72,0,0,1,0-.19c-.22-1-.45-2-.69-2.95-.13-.52-.26-1-.4-1.55s-.32-1.2-.48-1.79-.32-1.13-.5-1.69-.34-1.16-.53-1.74-.36-1.15-.56-1.72c-.09-.29-.19-.58-.28-.86s-.21-.57-.3-.86c-.4-1.13-.82-2.27-1.26-3.4-.22-.56-.44-1.12-.67-1.68l-.33-.81c0-.11-.09-.22-.13-.33-.27-.61-.52-1.22-.8-1.83s-.43-1-.65-1.46-.45-1-.69-1.47c-.46-1-.93-1.94-1.42-2.89l-.19-.37a79.63,79.63,0,0,0,8-4.23c1-.66,2.06-1.34,3.08-2,17.39-12,27.86-30.35,32-50.32,0-.17.07-.33.1-.5C576.76,354.88,566.94,319.34,546.07,295.57ZM492.58,490.44c-.08,1.05-.19,2.1-.35,3.16-.09.63-.2,1.26-.32,1.89a39.54,39.54,0,0,1-2.6,8.32c-.14.3-.28.6-.43.9s-.16.35-.24.51-.29.56-.44.84l-.17.31-.18.32-.25.44c-.21.35-.42.7-.64,1.05-.37.6-.77,1.19-1.19,1.76A32,32,0,0,1,469.4,522a30.11,30.11,0,0,1-11.2,1.34,34.07,34.07,0,0,1-9.48-1.73l-.38-.13a49,49,0,0,1-8.19-3.83h0l0,0,0,0a.66.66,0,0,1-.13-.08l-1.12-.66c-.69-.4-1.37-.82-2.05-1.26l-.61-.37-.63-.4-.06,0c-4.28-2.61-8.44-5.48-12.54-8.08L380,479.81q-16.68-10.46-33.35-20.91l11.74-26.32h0l19.33-43.32,75.09,47.14,1.49.93c2.34,1.46,4.68,2.88,7,4.33,6,3.6,12.25,7.2,17.22,12a45.76,45.76,0,0,1,6.25,7.56.21.21,0,0,1,0,.06c.15.22.29.45.43.66l.09.14a47.92,47.92,0,0,1,3.88,7.58c.09.24.19.48.29.72l0,.11c.23.62.46,1.22.67,1.84.08.22.15.44.22.67s.21.66.31,1,.1.35.14.52.1.35.14.52.17.58.24.87.1.41.14.61a5.63,5.63,0,0,1,.14.59c.07.3.13.59.2.89s.16.75.22,1.13.13.77.19,1.15c.12.77.22,1.54.31,2.32s.14,1.55.17,2.32c0,.36,0,.73.05,1.09A43.28,43.28,0,0,1,492.58,490.44Zm29.67-113a33.33,33.33,0,0,1-1.55,3,8.57,8.57,0,0,1-.45.77c-8.1,13.45-23.45,18.17-37.89,13.89a39.75,39.75,0,0,1-8.07-3.41l-1.12-.63h0c-25.7-14.47-50.2-31.6-75.17-47.28l11.71-26.23.09-.22,19.2-43c14.57,9.16,68.06,42.26,76.21,48C522.35,334.37,530.9,357.73,522.25,377.48Z"/><path class="cls-11" d="M492.58,490.44c-.08,1.05-.19,2.1-.35,3.16-.09.63-.2,1.26-.32,1.89a39.54,39.54,0,0,1-2.6,8.32c-.14.3-.28.6-.43.9s-.16.35-.24.51-.29.56-.44.84l-.17.31-.18.32-.25.44c-.21.35-.42.7-.64,1.05-.37.6-.77,1.19-1.19,1.76A32,32,0,0,1,469.4,522a30.11,30.11,0,0,1-11.2,1.34,34.07,34.07,0,0,1-9.48-1.73l-.38-.13a49,49,0,0,1-8.19-3.83c.08-.62.46-3.25.51-3.87,0-.31,0-.62.07-.94s0-.49,0-.73,0-.62,0-.92,0-.74,0-1.12v0c0-.37,0-.74,0-1.1s0-.7,0-1,0-.85-.08-1.27-.05-.68-.09-1c-.06-.53-.12-1.07-.19-1.6s-.15-1.07-.24-1.6l0-.11c-.12-.71-.26-1.4-.41-2.1-.09-.4-.19-.79-.28-1.19-.19-.73-.38-1.45-.59-2.16-.15-.5-.3-1-.47-1.47,0-.11-.07-.22-.11-.33a3.4,3.4,0,0,0-.12-.34c-.09-.27-.18-.53-.28-.79s-.17-.45-.26-.68a46.83,46.83,0,0,0-9.89-15.62c-4.08-4.22-9.1-7.46-14.16-10.54-4.1-2.66-8.36-5.18-12.58-7.79l-1.48-.91-39.31-24.67-1.81-1.13,19.33-43.32,75.09,47.14,1.49.93c2.34,1.46,4.68,2.88,7,4.33,6,3.6,12.25,7.2,17.22,12a45.76,45.76,0,0,1,6.25,7.56.21.21,0,0,1,0,.06c.15.22.29.45.43.66l.09.14a47.92,47.92,0,0,1,3.88,7.58c.09.24.19.48.29.72l0,.11c.23.62.46,1.22.67,1.84.08.22.15.44.22.67s.21.66.31,1,.1.35.14.52.1.35.14.52.17.58.24.87.1.41.14.61a5.63,5.63,0,0,1,.14.59c.07.3.13.59.2.89s.16.75.22,1.13.13.77.19,1.15c.12.77.22,1.54.31,2.32s.14,1.55.17,2.32c0,.36,0,.73.05,1.09A43.28,43.28,0,0,1,492.58,490.44Z"/><path class="cls-12" d="M522.25,377.48a33.33,33.33,0,0,1-1.55,3,8.57,8.57,0,0,1-.45.77c-8.1,13.45-23.45,18.17-37.89,13.89a39.75,39.75,0,0,1-8.07-3.41l-1.12-.63a43,43,0,0,0-.77-18l-.3-1.14c0-.11-.06-.22-.1-.34s-.15-.51-.22-.77-.21-.66-.32-1a47.79,47.79,0,0,0-17.27-23.85c-14.2-10.24-29.26-19.51-44.4-28.65l19.2-43c14.57,9.16,68.06,42.26,76.21,48C522.35,334.37,530.9,357.73,522.25,377.48Z"/><polygon class="cls-13" points="284.82 237.84 336.38 214.43 356.11 170.35 304.54 193.85 284.82 237.84"/><path class="cls-14" d="M386.16,246.49q-34,76.13-68.05,152.27L303,432.52,270.78,412.3q22-49.24,44.05-98.48l19.69-44Z"/><path class="cls-15" d="M539.51,511.22c.06-.3.11-.57.14-.8.08-.42.14-.82.2-1.22.17-1.05.32-2.12.44-3.18q0-.28.06-.42c0-.16,0-.26,0-.31,0-.38.09-.7.12-1l0-.25c.12-1.17.21-2.22.27-3.23.05-.59.08-1.18.11-1.8,0-.42,0-.84.06-1.25,0-.24,0-.44,0-.65s0-.19,0-.28,0-.41,0-.58c0-1.46,0-2.86,0-4.17,0-.48,0-1,0-1.44v-.08c0-.43,0-.84,0-1.26l0-.37c0-.41,0-.82-.07-1.24a3.08,3.08,0,0,0,0-.33l0-.34c0-.23,0-.45,0-.63s0-.53-.07-.82,0-.4,0-.58l0-.26c-.06-.77-.14-1.52-.22-2.27,0-.41-.08-.82-.14-1.2s-.06-.51-.09-.74a1.55,1.55,0,0,0,0-.18l0-.3c-.07-.51-.14-1-.21-1.5,0-.09,0-.16,0-.22,0-.28-.08-.5-.11-.72l-.06-.36-.18-1.09c-.18-1.06-.37-2.13-.59-3.19l-.34-1.63.73-.3h0l-.75.17c-.22-1-.45-2-.69-3-.13-.53-.26-1.06-.4-1.57s-.32-1.21-.49-1.82l-.06-.2c-.15-.5-.29-1-.44-1.48s-.35-1.18-.53-1.75-.37-1.17-.56-1.73l-.34-1c-.09-.23-.17-.47-.26-.74-.42-1.19-.83-2.31-1.27-3.42-.22-.56-.44-1.13-.67-1.68l-.39-1a2.07,2.07,0,0,0-.08-.2l-.21-.49c-.19-.45-.38-.9-.58-1.35l-.67-1.48-.11-.23-.57-1.24c-.3-.62-.6-1.24-.91-1.86l-.35-.7.71-.34c2.3-1.11,4.54-2.32,6.66-3.61,1-.62,2-1.3,3.09-2.05C555.86,427,567.33,409,571.78,387.54c.05-.2.08-.37.11-.55,5.75-31.41-4.12-67.19-25.15-91.15l-.1-.11c-10.64-11.83-24.1-20.2-37.11-28.3l-5.13-3.19.28-.62,23.79-53.38a.78.78,0,0,0-.3-1l-32.9-20.74,0,0-.2-.07.1-.78h0l-.18.76h-.17l-.14,0-.06,0-.1,0-32,14.46,11.95-26.77a.77.77,0,0,0-.29-1l-32.9-20.73-.07,0a1,1,0,0,0-.22-.09.67.67,0,0,0-.24,0l-.15,0-.05,0-.1,0-51.65,23.47a.82.82,0,0,0-.39.39l-4.5,10.07-28.4-17.88-.1-.05-.18-.06-.08,0H355l-.16,0,0,0-.11,0-51.52,23.47a.82.82,0,0,0-.39.39l-19.7,44a.65.65,0,0,0,0,.15l0,.13v0a1.62,1.62,0,0,1,0,.18.54.54,0,0,0,0,.12l.06.09.09.13.06,0,.08.06.07.06,50.22,31.56-.27.61q-9.56,21.39-19.14,42.78L270.5,411.94l-18.18-11.38-.12,0,.08-.78h0l-.18.75h-.17l-.09,0-.17-.75h0l0,.41.13.33-.21.07-51.41,23a.8.8,0,0,0-.4.39L180,468.25a.81.81,0,0,0,0,.11l0,.14v0a.77.77,0,0,1,0,.18.51.51,0,0,0,0,.11l0,0a.79.79,0,0,0,.12.18l.06.06.08.06.06,0,60.88,38.11-22.41,50.11,0,.14,0,.08v.15a.49.49,0,0,0,0,.12l0,.11,0,.07a1,1,0,0,0,.11.15l0,0,.09.06.07,0,33,20.63a.77.77,0,0,0,.72.06L284.85,565l-11.74,26.29,0,.17,0,.13a.07.07,0,0,1,0,0,1.53,1.53,0,0,1,0,.18l.05.1,0,.07a.48.48,0,0,0,.11.15l.05.06.09.06.06,0,33,20.63a.77.77,0,0,0,.72.06l51.71-22.66.14-.08.05,0a.73.73,0,0,0,.2-.26l2.79-6.26.74.42a141.83,141.83,0,0,0,13.88,6.68c3.81,1.66,7.69,3.36,11.34,5.3,5.78,3.06,12.86,4.62,21.06,4.62,11.86,0,26.29-3.25,42.88-9.65A261.21,261.21,0,0,0,490,572.54l.23-.13c16.79-5.95,30.48-17.62,39.6-33.76l.65-1.18,0-.1c.22-.4.43-.79.63-1.18l.62-1.21c.27-.54.54-1.09.79-1.62s.43-.93.66-1.42.31-.74.49-1.13c.31-.76.62-1.53.92-2.3l.44-1.14c.43-1.16.84-2.31,1.23-3.5s.75-2.37,1.07-3.51c.1-.34.19-.67.28-1l.11-.42.26-1c.1-.4.2-.8.29-1.18.14-.56.27-1.12.38-1.67,0-.11,0-.16.06-.21.12-.59.25-1.15.35-1.67s.16-.78.23-1.16l.78,0h0l-.76-.14Zm-46.2-320.49-23.17,51.94L450.33,230.2l11.2-25.1ZM389.67,179.2l49.57-22.53L416,208.61,385.2,189.2ZM304,195.2l49.44-22.52-18.78,41.94-49.42,22.44Zm-18.67,43.52,49.87-22.64,49.36,31.07L334.65,269.7ZM272.1,412.16l43.51-97.26,19.45-43.47.12-.26,49.51-22.37L381,257.14q-31.74,71-63.49,142.07-7.19,16.07-14.36,32.13l-.36.82-30.92-19.39Zm-71,12.74.27-.12,49.08-22L231.59,445l-49.33,22Zm-18.76,43.73,49.75-22.2,60,37.61.72.45-49.93,22-.64-.31-.35-.21Zm60.45,39,.44-.89-.33-.27,49.93-22-.6,1.19L270.5,534.35l-.27.12-49.15,21.72Zm9.86,69.9L221.2,557.83l49.82-22,31.54,19.74-1.89.83ZM287,564.12l17.62-7.76.05,0,.12-.09a.9.9,0,0,0,.17-.24l10-22.31,31.69-14-21.71,48.68L322,569.62l-46.7,20.51Zm28.86-32.55L327.22,506l19.23,12Zm-8.91,79.87-31.44-19.67,49.91-21.92,31.5,19.7Zm171.71-34.3c-10.49,5.53-26.46,13.1-43,17.78-10,2.82-18.89,4.23-26.67,4.23s-14.68-1.46-20.22-4.39c-3.72-2-7.64-3.69-11.44-5.35a139.19,139.19,0,0,1-14-6.75l-.61-.35L381.52,540l.75.47q5.46,3.43,10.91,6.88l.44.27c8.33,5.26,16.95,10.7,25.49,15.93.89.54,1.78,1.07,2.72,1.59.49.28,1,.56,1.46.81l.32.17.92.49a89.13,89.13,0,0,0,16.79,6.77,80.23,80.23,0,0,0,36.8,2.28l4.9-.87Zm60.64-76.46c-.07,1-.15,2-.27,3.16l0,.26c0,.29-.06.58-.1.92v.09a1.62,1.62,0,0,1,0,.2,4.49,4.49,0,0,1-.06.48c-.13,1.09-.28,2.13-.44,3.17-.06.39-.12.78-.2,1.21,0,.22-.08.47-.13.76l-.13.7-.78,0,.76.14c-.07.38-.14.77-.23,1.19s-.23,1.1-.35,1.66h0v.07h0l-.5-.08.48.17c-.12.55-.24,1.1-.39,1.67-.08.36-.18.73-.27,1.1s-.18.71-.27,1l-.11.42c-.08.31-.17.62-.27,1-.32,1.12-.67,2.29-1.06,3.47s-.78,2.29-1.21,3.43c-.13.37-.28.75-.42,1.13-.3.76-.6,1.51-.91,2.24l-.48,1.12,0,.09c-.2.43-.39.86-.6,1.29s-.51,1.07-.78,1.59l-.57,1.13c-.23.45-.43.82-.64,1.21l-.14.24-.56,1c-13,23-35.64,36.62-62.09,37.28h-.3a80.62,80.62,0,0,1-20-2.11l-1.1-.27-.25-.06-1.13-.29-1.46-.41-.29-.08a93.28,93.28,0,0,1-17-6.87l-1.15-.62c-.61-.33-1.23-.68-1.84-1s-1.34-.77-2-1.18l-1-.59c-8.41-5.17-17-10.6-24.6-15.39l-12.78-8a.76.76,0,0,0-.64-.09.79.79,0,0,0-.48.43l-22.27,50-31.76-19.88,22.38-50.17a1.37,1.37,0,0,0,.05-.19l0-.09s0-.1,0-.17a.72.72,0,0,0-.18-.37l-.05,0-.11-.1-.08,0-21.15-13.26a.76.76,0,0,0-.64-.08.75.75,0,0,0-.48.42l-22.3,50-31.8-19.89,22.44-50.23a1.49,1.49,0,0,0,0-.18.81.81,0,0,0,0-.22.91.91,0,0,0-.18-.37l-.05-.06-.12-.09-.06,0-61-38.2,19.19-42.87L302.68,434a.69.69,0,0,0,.19.07,1.15,1.15,0,0,0,.2,0h.05a.56.56,0,0,0,.2,0,.77.77,0,0,0,.48-.42l15.09-33.76Q351.47,327,384,254.09l2.92-6.57a.77.77,0,0,0,.05-.17.79.79,0,0,0,0-.22.91.91,0,0,0-.07-.23l-.1-.14-.06-.07-.11-.08-.07-.05-50.31-31.65,19.09-42.65.76.47L416,210.41a.84.84,0,0,0,.18.07l.2,0h.07l.18,0a.79.79,0,0,0,.49-.42l24-53.81,31.61,19.91-24.11,54a.8.8,0,0,0,.09.79,1,1,0,0,0,.21.19l21.14,13.31.19.08.21,0h0a.56.56,0,0,0,.2,0,.77.77,0,0,0,.48-.42l24-53.81,31.58,19.9-24.07,54a.79.79,0,0,0,.3,1l5.69,3.54c12.93,8,26.29,16.36,36.79,28l.07.08c20.75,23.66,30.47,58.92,24.81,89.86h0c0,.16-.06.31-.1.5C565.9,408.28,554.65,426,538.59,437c-1.1.76-2.09,1.41-3,2a80.77,80.77,0,0,1-7.94,4.2.77.77,0,0,0-.41.44.81.81,0,0,0,0,.61l.19.38c.49.94,1,1.91,1.42,2.87.18.37.35.74.52,1.11l.15.34c.23.49.44,1,.66,1.46s.39.89.58,1.33l.66,1.6c.23.57.45,1.13.67,1.69.42,1.08.83,2.17,1.24,3.34.09.28.18.53.27.78l.32,1c.19.57.38,1.13.56,1.71s.36,1.14.53,1.73.29,1,.43,1.47l0,.19c.17.6.33,1.19.49,1.8s.26,1,.39,1.54c.23.94.46,1.91.67,2.87,0,.1,0,.15,0,.18l.33,1.61c.21,1,.4,2.09.58,3.14l.18,1.06.06.37c0,.23.07.46.1.69a.68.68,0,0,0,0,.14c.09.56.16,1.07.23,1.61l0,.38c0,.23.07.46.09.71l0,.09c0,.37.09.75.13,1.16.08.77.16,1.49.22,2.23l0,.28a4.38,4.38,0,0,1,0,.51l-.76.16.77-.07c0,.24,0,.48.06.77s0,.36,0,.55l0,.44a1.7,1.7,0,0,1,0,.21c0,.47.06.88.07,1.32l0,.39c0,.38,0,.77,0,1.19v.19l0,1.31c0,1.25,0,2.58,0,4h.76l0,1.55-1.26.06.42,0c0,.42,0,.82-.06,1.26C539.33,499.54,539.3,500.1,539.26,500.68Z"/><path class="cls-16" d="M457.44,439.09l-2.64-1.64-76.58-48.07a.78.78,0,0,0-.41-.12.85.85,0,0,0-.23,0,.82.82,0,0,0-.48.43L346,459.35a.81.81,0,0,0,.3,1l12.5,7.83,20.86,13.08,42.92,26.91c1.61,1,3.22,2.09,4.85,3.16,2.49,1.63,5.05,3.32,7.68,4.92l.08,0,.46.3,1,.65.73.46.76.45.27.16,1.1.66.2.12.11.06a48.68,48.68,0,0,0,8.25,3.85l.43.15a34.23,34.23,0,0,0,9.64,1.76c.74.05,1.46.08,2.16.08a31,31,0,0,0,9.34-1.45,32.42,32.42,0,0,0,16.75-12.34c.42-.57.83-1.16,1.24-1.83l.62-1,.44-.78a2.8,2.8,0,0,0,.2-.37l.05-.08c.14-.26.27-.52.39-.76a4.72,4.72,0,0,0,.25-.51c.16-.33.31-.64.46-1a40.41,40.41,0,0,0,2.15-6.28c.18-.72.35-1.45.49-2.19s.24-1.29.33-1.92c.16-1.06.28-2.15.36-3.22a44.86,44.86,0,0,0,.1-4.51l0-.4c0-.23,0-.46,0-.67,0-.76-.09-1.53-.18-2.4s-.19-1.55-.31-2.35l0-.14c-.06-.35-.11-.69-.17-1s-.15-.8-.23-1.16-.13-.61-.19-.85-.1-.47-.14-.62-.1-.46-.15-.62q-.12-.51-.24-.9l-.13-.49c-.05-.22-.1-.41-.16-.6s-.21-.68-.31-1-.16-.49-.23-.69c-.21-.64-.44-1.26-.69-1.91l-.33-.82c-.27-.66-.55-1.32-.85-2a48,48,0,0,0-3.07-5.69l-.11-.17-.12-.2c-.11-.16-.21-.33-.32-.48l0-.08a46.66,46.66,0,0,0-6.35-7.68c-4.64-4.51-10.39-8-15.95-11.29l-1.39-.83-3.88-2.41ZM440.11,512v0L440,513.6c0,.3,0,.6-.07.91l-.34,2.67-3.14-1.92L436,515l-.06,0c-2.65-1.61-5.21-3.3-7.69-4.93-1.63-1.07-3.26-2.14-4.88-3.17l-42.92-26.92Q370,473.4,359.63,466.85l-11.93-7.48,11.11-24.89,1.06.66,17.05,10.7,23.74,14.88c1.2.75,2.41,1.48,3.61,2.21l.5.31c2.81,1.71,5.7,3.47,8.5,5.29,4.82,2.93,9.89,6.16,14,10.4a46.13,46.13,0,0,1,9.74,15.4c.09.2.17.41.25.63l.31.88c0,.07,0,.11.06.15l0,.1a2.39,2.39,0,0,1,.11.32c.13.35.24.72.35,1.08l.11.34c.21.71.4,1.43.57,2.12l.28,1.17c.15.71.29,1.39.42,2.13v.05c.09.55.17,1.07.24,1.58s.13,1.06.18,1.6q.06.48.09,1c0,.38.05.76.07,1.15v.09c0,.35,0,.69,0,1s0,.72,0,1.12S440.11,511.6,440.11,512Zm22.27-68c5.49,3.29,11.16,6.69,15.67,11.08a44.37,44.37,0,0,1,6.14,7.43l.07.09.28.43.17.27a47.83,47.83,0,0,1,3.85,7.49l.33.83c.23.61.45,1.21.67,1.84.06.2.14.41.22.66s.2.63.3,1l.13.5.15.56c.07.25.15.52.23.85,0,.15.08.33.13.56a5.9,5.9,0,0,1,.15.63c.06.25.12.54.19.86s.15.7.21,1.1.12.65.17,1l0,.11c.12.78.21,1.54.3,2.29s.14,1.58.18,2.32c0,.2,0,.42,0,.64l0,.4a41.4,41.4,0,0,1-.1,4.33h0c-.08,1-.19,2.09-.34,3.11-.09.61-.2,1.24-.32,1.86a39.21,39.21,0,0,1-2.54,8.13c-.14.3-.27.6-.44.93-.06.14-.14.3-.23.48l-.38.74-.05.09-.16.28-.51.9-.53.87c-.39.62-.76,1.18-1.18,1.74a31,31,0,0,1-16,11.77,29,29,0,0,1-8.84,1.38c-.69,0-1.38,0-2.08-.07a33.3,33.3,0,0,1-7-1c-.75-.2-1.5-.42-2.24-.66l-.24-.09-.19-.06a46.25,46.25,0,0,1-7.14-3.25l-.47-.26.08-.53c.15-1.1.33-2.42.36-2.84s.06-.66.08-1l.08-1.72c0-.36,0-.74,0-1.15s0-.75,0-1.12,0-.71,0-1.08v-.1c0-.39,0-.79-.07-1.17s-.06-.71-.1-1c-.05-.55-.12-1.1-.19-1.64s-.15-1.08-.24-1.62l0-.1c-.13-.74-.27-1.44-.43-2.18l-.28-1.2c-.18-.73-.38-1.46-.6-2.2l-.09-.29c-.14-.44-.25-.81-.38-1.18l-.13-.37c0-.13-.06-.21-.1-.31l-.29-.8c-.08-.24-.17-.47-.26-.67a47.76,47.76,0,0,0-10.06-15.9c-4.23-4.38-9.37-7.66-14.28-10.64-2.81-1.83-5.71-3.6-8.51-5.31q-2.06-1.25-4.1-2.5l-17.8-11.16-23-14.42-1.23-.78,18.69-41.88L454,438.76l3.06,1.89.32.21c1.21.74,2.41,1.48,3.62,2.24Z"/><path class="cls-17" d="M521,382.51c.19-.29.35-.57.47-.8a33.16,33.16,0,0,0,1.6-3.14l.05-.09c8.31-19.21.86-43.23-17.36-56-6-4.18-35.72-22.71-57.44-36.25l-.18-.11c-7.94-4.94-14.69-9.15-18.62-11.62a.75.75,0,0,0-.41-.12.91.91,0,0,0-.23,0,.79.79,0,0,0-.48.43l-31,69.47a.78.78,0,0,0,.3,1c8.33,5.24,16.77,10.73,24.92,16l.21.14c16.23,10.58,33,21.51,50.08,31.12l.09.05,1,.58a40.51,40.51,0,0,0,8.24,3.47c.45.14.9.26,1.36.38a37.46,37.46,0,0,0,9.38,1.22,32.1,32.1,0,0,0,21.12-7.63A33.1,33.1,0,0,0,521,382.51Zm-48.16,7-.13,1.16-1-.58c-16.52-9.41-33.26-20.32-48-29.94l-.17-.12c-7.8-5.07-15.85-10.32-23.84-15.36l-.57-.35,11.18-25,.75.45c13.2,8,28.49,17.35,42.85,27.7a47,47,0,0,1,17,23.5c.12.36.22.65.31,1s.15.49.22.74.07.24.09.33l.3,1.13A42.43,42.43,0,0,1,472.8,389.53Zm20.13,7.2a36.48,36.48,0,0,1-10.28-1.52,39.15,39.15,0,0,1-7.91-3.34l-.64-.36.08-.53a43.87,43.87,0,0,0-1-17.25l-.3-1.14a3.37,3.37,0,0,0-.1-.34c-.07-.27-.14-.5-.21-.73l-.33-1a48.61,48.61,0,0,0-17.56-24.28c-14.43-10.41-29.91-19.89-43.28-28l-.59-.35,18.56-41.58.76.47c4,2.51,10,6.25,16.92,10.56l.5.31c21.66,13.5,51.33,32,57.24,36.12,1.09.77,2.17,1.59,3.19,2.44,15.37,12.86,21.09,34.62,13.6,51.74h0c-.46,1-1,2-1.54,3-.11.21-.25.44-.43.72A30.66,30.66,0,0,1,492.93,396.73Z"/><polygon id="上" class="cls-18" points="182.36 468.63 242.92 506.45 292.85 484.49 232.11 446.43 182.36 468.63"/><polygon id="下" class="cls-19" points="242.92 506.45 221.08 556.19 270.5 534.35 292.85 484.49 242.92 506.45"/><path class="cls-20" d="M720.16,330.94a328.66,328.66,0,0,1-128.33,260.9A329.36,329.36,0,0,0,102.74,153.27c-1.07,1-2.15,2.07-3.21,3.12-.62.61-1.22,1.22-1.82,1.83Q89.13,166.8,81.2,176c-1,1.13-2,2.27-2.91,3.42s-1.76,2.11-2.63,3.17q-1.53,1.88-3,3.78c-.94,1.16-1.86,2.35-2.76,3.53-.62.78-1.22,1.58-1.81,2.37-1.23,1.62-2.45,3.26-3.64,4.91-.62.85-1.24,1.7-1.85,2.57-1.14,1.58-2.25,3.17-3.35,4.78-.83,1.2-1.64,2.39-2.44,3.6-.59.88-1.17,1.76-1.74,2.65-1.11,1.68-2.21,3.4-3.28,5.12-.63,1-1.25,2-1.85,3-.16.25-.31.49-.46.75-.71,1.16-1.42,2.33-2.1,3.5-.07.1-.13.21-.19.31-.56.93-1.1,1.86-1.63,2.8-.28.46-.55.93-.81,1.4-.45.78-.89,1.56-1.32,2.35-.3.51-.59,1-.87,1.54-.67,1.2-1.32,2.41-2,3.63s-1.29,2.41-1.92,3.63q-3.77,7.19-7.15,14.59c-.32.68-.64,1.37-.94,2.05l-.93,2.09c-.61,1.38-1.22,2.77-1.81,4.16-.48,1.12-.94,2.22-1.41,3.35l-.87,2.12q-4.05,10-7.45,20.31c-.22.67-.44,1.33-.65,2q-1.45,4.45-2.76,9c-.41,1.42-.82,2.83-1.2,4.24-.27.93-.52,1.87-.76,2.81-.16.55-.3,1.1-.44,1.64-.2.75-.39,1.49-.58,2.23Q11,312,10.41,314.6l-.36,1.53c-.31,1.34-.62,2.7-.92,4.06C7.78,326.38,6.61,332.66,5.6,339c-.12.77-.24,1.55-.35,2.32q-1.23,8.11-2,16.36c-.15,1.57-.31,3.14-.43,4.72s-.27,3.31-.39,5-.2,3-.29,4.53q-.27,4.75-.4,9.56C6.6,172.28,176.51,4,386.29,1.59c1.49,0,3,0,4.5,0s3,0,4.5,0l2.44,0c.81,0,1.62,0,2.43.06,3.2.09,6.38.23,9.56.4,1.51.09,3,.18,4.52.29q13.18.93,26,2.87c.78.11,1.54.24,2.31.36l2.66.43,2.33.4c2.17.38,4.35.77,6.51,1.19l2.28.46q4.58.91,9.07,2l1.54.35c1.18.28,2.34.56,3.5.86l2.26.56q9,2.33,17.85,5.12l2.18.7,1.5.49,1.71.57,1.17.4,3.61,1.25q12.93,4.58,25.34,10.19l2.07.93,3.09,1.45c.66.3,1.31.61,2,.93l2,1q3.08,1.51,6.11,3.07c.73.37,1.46.75,2.18,1.14s1.71.89,2.55,1.35c1.19.63,2.38,1.27,3.56,1.93s2.07,1.15,3.11,1.74l.77.44c.78.44,1.56.89,2.33,1.35s1.47.84,2.21,1.28l.32.19c1.17.69,2.34,1.39,3.5,2.11s2.27,1.39,3.41,2.1L568,53.22c.94.59,1.88,1.2,2.81,1.82s1.77,1.15,2.65,1.74L576.73,59q1.72,1.18,3.45,2.4c1.2.85,2.39,1.69,3.58,2.56a.57.57,0,0,0,.13.08c.94.7,1.89,1.39,2.83,2.1,1.51,1.11,3,2.23,4.47,3.36.78.59,1.55,1.19,2.32,1.8q4.56,3.57,9,7.3l3,2.56q1.69,1.47,3.38,2.95,3.36,3,6.63,6,1.63,1.53,3.25,3.08c2.44,2.35,4.85,4.72,7.21,7.14.77.78,1.53,1.57,2.29,2.36,2.43,2.53,4.83,5.11,7.17,7.71,1.62,1.79,3.23,3.6,4.8,5.43q5.9,6.84,11.42,14A327.84,327.84,0,0,1,720.16,330.94Z"/><path class="cls-21" d="M780,390.79c0,1.51,0,3,0,4.51,0,.81,0,1.63,0,2.44l-.06,2.42A329.36,329.36,0,0,1,189.71,591.82,329.38,329.38,0,1,0,400.16,1.69C608.5,6.59,776.32,175.21,780,383.85c0,.81,0,1.62,0,2.44Q780,388.54,780,390.79Z"/><path class="cls-22" d="M779.89,400.16C775,607.68,607.68,775,400.16,779.89l-2.43.06-2.44,0c-1.49,0-3,0-4.5,0s-3,0-4.5,0l-2.44,0-2.42-.06a329.35,329.35,0,0,1-191.7-590.15A329.39,329.39,0,1,0,779.89,400.16Z"/><path class="cls-23" d="M66.84,390.79a329.42,329.42,0,0,0,314.59,389.1C173.9,775,6.57,607.68,1.69,400.16c0-.81-.05-1.61-.06-2.42s0-1.63,0-2.44c0-1.5,0-3,0-4.51s0-3,0-4.5c0-.82,0-1.63,0-2.44s0-1.61.06-2.42q.14-4.8.4-9.56c.09-1.51.18-3,.29-4.53s.24-3.32.39-5,.28-3.15.43-4.72Q4,349.43,5.25,341.3c.12-.77.24-1.55.35-2.32,1-6.32,2.18-12.6,3.53-18.79.31-1.36.61-2.72.92-4.06l.36-1.53q.62-2.61,1.28-5.22c.19-.74.38-1.48.58-2.23.14-.54.28-1.09.44-1.64.24-.94.49-1.88.76-2.81.38-1.41.79-2.82,1.2-4.24q1.3-4.51,2.76-9c.21-.67.43-1.34.65-2q3.41-10.31,7.45-20.31l.87-2.12c.47-1.13.93-2.23,1.41-3.35.59-1.39,1.2-2.78,1.81-4.16l.93-2.09c.31-.68.62-1.37.94-2.05q3.39-7.4,7.15-14.59.95-1.83,1.92-3.63c.65-1.22,1.31-2.43,2-3.63.28-.52.57-1,.87-1.54.43-.79.87-1.57,1.32-2.35.26-.47.53-.94.81-1.4.53-.94,1.07-1.87,1.63-2.8.06-.1.12-.21.19-.31.69-1.17,1.39-2.34,2.1-3.5.15-.26.3-.5.46-.75.6-1,1.22-2,1.85-3,1.07-1.72,2.17-3.44,3.28-5.12l1.74-2.65c.8-1.21,1.62-2.4,2.44-3.6,1.1-1.61,2.21-3.2,3.35-4.78.61-.87,1.23-1.72,1.85-2.57,1.19-1.65,2.41-3.29,3.64-4.91.6-.79,1.2-1.59,1.81-2.37.91-1.18,1.83-2.37,2.76-3.53s2-2.53,3-3.78c.87-1.06,1.75-2.12,2.63-3.17s1.93-2.29,2.91-3.42q7.92-9.22,16.51-17.81c.6-.63,1.21-1.23,1.82-1.83l3.21-3.12a329.26,329.26,0,0,1,489.08,36.45,329.44,329.44,0,0,0-525,201.07Z"/><path class="cls-24" d="M583.25,600.41l7.36-9.52A327.81,327.81,0,0,0,130.82,131.1a330.93,330.93,0,0,0-27,23.29c-1.06,1-2.13,2.06-3.19,3.11q-.91.9-1.8,1.8c-5.63,5.63-11.16,11.59-16.45,17.74q-1.47,1.69-2.89,3.4c-.88,1.05-1.76,2.1-2.61,3.16q-1.53,1.88-3,3.76c-.86,1.06-1.75,2.21-2.75,3.51-.62.79-1.21,1.58-1.79,2.36-1.2,1.57-2.42,3.22-3.64,4.89l-.09.12-1.74,2.43c-1.1,1.53-2.19,3.08-3.34,4.77-.83,1.19-1.63,2.38-2.43,3.58-.59.88-1.16,1.74-1.72,2.62-1.11,1.67-2.2,3.39-3.28,5.11-.62,1-1.23,2-1.84,3l-.45.73c-.71,1.17-1.41,2.33-2.09,3.49l0,.09-.09.13,0,.09c-.56.94-1.09,1.86-1.62,2.78-.29.49-.55.93-.8,1.39-.45.79-.9,1.56-1.31,2.33-.32.55-.6,1-.87,1.54-.69,1.22-1.33,2.42-2,3.63s-1.29,2.4-1.91,3.61c-2.46,4.7-4.86,9.59-7.12,14.53-.33.68-.63,1.36-.93,2s-.63,1.38-.93,2.07c-.62,1.39-1.22,2.77-1.81,4.16-.47,1.11-.93,2.21-1.39,3.33-.27.65-.54,1.29-.8,1.94l-.07.18c-2.66,6.55-5.15,13.35-7.42,20.21l-.17.52c-.16.48-.32,1-.47,1.45-1,3-1.89,6-2.76,8.95l0,.17c-.38,1.34-.77,2.69-1.14,4q-.39,1.39-.75,2.79c-.15.52-.28,1-.41,1.52l-.09.33c-.17.67-.35,1.34-.51,2q-.66,2.6-1.28,5.19l-.35,1.53c-.32,1.34-.63,2.69-.92,4-1.32,6.06-2.5,12.35-3.51,18.71-.13.76-.25,1.53-.36,2.29-.81,5.36-1.49,10.84-2,16.29-.15,1.57-.3,3.13-.43,4.69s-.27,3.31-.39,4.95-.2,3-.28,4.51c-.18,3.16-.31,6.36-.4,9.5h0l-3.1-.09h0A390.74,390.74,0,0,1,386.27,0c3,0,6,0,9.05,0l2.26,0h.18l2.45.06c3.2.09,6.43.23,9.59.41,1.52.08,3,.18,4.56.29,8.71.61,17.51,1.58,26.15,2.88l1.6.24,3.39.55,2.34.4c2.41.42,4.55.81,6.55,1.2l2.31.46c2.94.59,6,1.26,9.1,2l1.53.35,3.53.86.23.06,2,.51c6,1.54,12,3.27,17.94,5.14l2.06.66.13.05,1.52.49,1.71.58,1.18.4c1.2.4,2.41.82,3.62,1.25,8.56,3,17.12,6.47,25.46,10.23.68.31,1.38.62,2.08.95,1,.47,2.07,1,3.1,1.45l2,.93,2.06,1c2,1,4,2,6.14,3.08.73.37,1.47.76,2.2,1.15s1.71.89,2.57,1.36c1.18.63,2.37,1.28,3.56,1.94s2.08,1.15,3.13,1.75l.24.13.56.32,2.32,1.34c.72.4,1.47.84,2.21,1.29l.13.07.21.13c1.18.69,2.34,1.39,3.51,2.11s2.27,1.39,3.41,2.11c.89.55,1.78,1.11,2.66,1.68s1.87,1.2,2.81,1.82,1.77,1.15,2.66,1.75c1.12.74,2.23,1.5,3.33,2.25s2.32,1.6,3.47,2.41,2.38,1.69,3.57,2.55l.16.11,2.85,2.11c1.35,1,2.78,2.06,4.48,3.37.79.59,1.56,1.2,2.34,1.81,3.12,2.44,6.16,4.91,9,7.34,1,.84,2,1.7,3,2.57l.12.1c1.09,1,2.19,1.9,3.27,2.86,2.44,2.17,4.62,4.15,6.66,6l3.26,3.09c2.62,2.52,5,4.86,7.25,7.17l2.12,2.19.17.18c2.49,2.58,4.91,5.19,7.21,7.75,1.62,1.79,3.25,3.62,4.82,5.45,3.92,4.55,7.78,9.28,11.48,14.07a329.46,329.46,0,0,1,68.8,202,333.72,333.72,0,0,1-5.45,60.13,330.19,330.19,0,0,1-123.48,202ZM330.93,59.86A330.24,330.24,0,0,1,593,188.77a330.51,330.51,0,0,1,7.21,394.34,326.87,326.87,0,0,0,113-192.6,330.12,330.12,0,0,0-12.65-167.13,326.71,326.71,0,0,0-50.1-92.57c-3.67-4.74-7.49-9.43-11.38-13.93-1.56-1.81-3.16-3.63-4.77-5.4-2.28-2.54-4.68-5.12-7.14-7.68l-.16-.17-2.12-2.18c-2.24-2.28-4.58-4.61-7.17-7.1l-3.24-3.07c-2-1.88-4.17-3.84-6.6-6-1.07-1-2.16-1.89-3.24-2.83l-.12-.11c-1-.85-2-1.7-3-2.54-2.86-2.41-5.87-4.85-9-7.27-.77-.61-1.53-1.2-2.3-1.79-1.69-1.29-3.1-2.36-4.44-3.34-.94-.71-1.87-1.39-2.8-2.07l-.16-.11c-1.19-.86-2.37-1.7-3.56-2.54s-2.29-1.61-3.44-2.39-2.19-1.49-3.3-2.23c-.88-.59-1.75-1.17-2.62-1.73l-2.81-1.81c-.87-.57-1.74-1.12-2.62-1.66q-1.69-1.07-3.39-2.1c-1.17-.72-2.32-1.41-3.48-2.09l-.36-.21c-.7-.42-1.42-.85-2.15-1.25s-1.56-.91-2.33-1.35l-.52-.3-.26-.14c-1-.59-2-1.16-3.08-1.73-1.19-.66-2.36-1.29-3.55-1.92-.85-.47-1.69-.91-2.53-1.34s-1.46-.77-2.17-1.14c-2.09-1.07-4.13-2.1-6.09-3l-2.05-1-1.93-.92-3.09-1.44c-.69-.32-1.36-.62-2-.92-8.27-3.74-16.75-7.15-25.22-10.15-1.19-.42-2.4-.84-3.6-1.24l-1.15-.39-1.72-.58-1.48-.48-.14-.05-2-.65c-5.85-1.86-11.83-3.57-17.77-5.1l-2-.5-.24-.06c-1.16-.3-2.32-.57-3.49-.85l-1.52-.35c-3.06-.71-6.1-1.37-9-2l-2.26-.45c-2-.39-4.11-.78-6.5-1.2L445,7.57,441.63,7c-.52-.09-1-.17-1.57-.24-8.57-1.29-17.29-2.26-25.93-2.86-1.49-.11-3-.2-4.5-.29-3.13-.17-6.33-.31-9.52-.4l-2.41-.06h-.18l-2.24,0q-4.5-.08-9,0A388.08,388.08,0,0,0,19.79,277.83q2.07-5.7,4.31-11.23l.07-.18c.26-.65.53-1.3.8-2,.47-1.12.93-2.23,1.41-3.35.59-1.41,1.21-2.81,1.83-4.19q.45-1,.93-2.1c.3-.68.62-1.38.94-2.07,2.29-5,4.71-9.91,7.19-14.65.62-1.22,1.27-2.43,1.92-3.65s1.31-2.44,2-3.65c.27-.51.57-1,.89-1.57.4-.74.85-1.54,1.31-2.33.26-.47.53-1,.82-1.43.52-.92,1.07-1.86,1.63-2.79l.2-.34c.68-1.17,1.39-2.33,2.1-3.49.15-.25.3-.51.46-.76.6-1,1.23-2,1.86-3,1.08-1.74,2.19-3.47,3.3-5.15.56-.88,1.15-1.77,1.74-2.65.81-1.21,1.62-2.42,2.46-3.62,1.15-1.7,2.26-3.28,3.37-4.81.57-.81,1.16-1.63,1.75-2.45l.09-.12c1.23-1.7,2.47-3.36,3.67-4.94.59-.79,1.2-1.59,1.82-2.39,1-1.31,1.91-2.47,2.77-3.54,1-1.26,2-2.53,3-3.79l2.64-3.19c1-1.15,1.94-2.3,2.92-3.44,5.34-6.2,10.92-12.22,16.6-17.89.58-.6,1.2-1.21,1.82-1.83,1.07-1.06,2.15-2.1,3.22-3.14a333.5,333.5,0,0,1,27.27-23.5,329.48,329.48,0,0,1,202-68.79Z"/><path class="cls-25" d="M450.64,721.72a330.29,330.29,0,0,1-262.15-129l-7.35-9.53,9.52,7.35A327.89,327.89,0,0,0,713.21,390.51a330.12,330.12,0,0,0-12.65-167.13A328.17,328.17,0,0,0,400.11,3.24l.08-3.1A390.72,390.72,0,0,1,781.5,383.83c0,.81,0,1.62,0,2.45,0,1.49,0,3,0,4.51s0,3,0,4.53c0,.82,0,1.63,0,2.45l-.06,2.44a330.59,330.59,0,0,1-330.8,321.51ZM198.44,600.24a327.83,327.83,0,0,0,579.9-200.12l.06-2.42c0-.8,0-1.61,0-2.42,0-1.5,0-3,0-4.49s0-3,0-4.47c0-.82,0-1.63,0-2.43A388.08,388.08,0,0,0,504.58,20.05,330.67,330.67,0,0,1,721.71,330.94a333.72,333.72,0,0,1-5.45,60.13A330.81,330.81,0,0,1,198.44,600.24Z"/><path class="cls-26" d="M390.79,781.58c-1.51,0-3,0-4.53,0-.75,0-1.5,0-2.26,0h-.18c-.82,0-1.63,0-2.44-.06A330.57,330.57,0,0,1,59.86,450.64,330.17,330.17,0,0,1,188.78,188.51l9.53-7.35L191,190.68A327.84,327.84,0,1,0,778.34,400.12l3.1.08A390.73,390.73,0,0,1,400.19,781.44c-.8,0-1.61,0-2.43.06h-.18c-.75,0-1.51,0-2.27,0C393.81,781.57,392.3,781.58,390.79,781.58ZM181.31,198.47A327,327,0,0,0,68.36,391.07,330.2,330.2,0,0,0,81,558.19,328.22,328.22,0,0,0,381.47,778.34l2.41.06h.18c.75,0,1.49,0,2.25,0q4.49.07,9,0c.76,0,1.5,0,2.25,0h.18l2.41-.06A388.05,388.05,0,0,0,761.47,504.75,331,331,0,1,1,181.31,198.47Z"/><path class="cls-27" d="M381.39,781.44A390.73,390.73,0,0,1,.14,400.2c0-.76,0-1.52-.06-2.28v-.15c0-.82,0-1.63,0-2.46,0-1.49,0-3,0-4.52s0-3,0-4.52c0-.82,0-1.63.05-2.45v-.15c0-.76,0-1.52.06-2.29.09-3.17.22-6.4.4-9.6.09-1.52.18-3,.29-4.55.12-1.66.25-3.33.39-5s.28-3.16.43-4.73c.56-5.51,1.25-11,2.07-16.44l.35-2.32c1-6.42,2.22-12.77,3.55-18.89.31-1.38.61-2.73.92-4.08l.36-1.54q.63-2.62,1.29-5.24c.17-.67.35-1.35.52-2l.09-.34c.14-.51.27-1,.41-1.54.24-.92.5-1.87.76-2.81.37-1.35.76-2.71,1.15-4.07l.06-.17c.87-3,1.8-6,2.77-9,.21-.66.43-1.34.66-2,2.28-6.93,4.8-13.79,7.49-20.41l.07-.18c.26-.65.53-1.3.8-2,.47-1.12.93-2.23,1.41-3.35.59-1.41,1.2-2.8,1.83-4.19q.45-1,.93-2.1l.31-.69.63-1.38c2.29-5,4.71-9.91,7.19-14.65.62-1.22,1.27-2.43,1.92-3.65s1.32-2.43,2-3.64c.27-.52.57-1.05.89-1.58.41-.75.86-1.55,1.31-2.33.26-.47.53-1,.82-1.43.52-.92,1.07-1.86,1.63-2.79l.2-.34c.69-1.17,1.39-2.33,2.1-3.49.15-.25.3-.51.46-.76.61-1,1.23-2,1.86-3,1.08-1.74,2.19-3.47,3.3-5.15.57-.88,1.15-1.76,1.74-2.65.81-1.21,1.63-2.42,2.45-3.61,1.16-1.71,2.27-3.29,3.38-4.82.57-.81,1.16-1.63,1.75-2.45l.09-.12c1.23-1.7,2.47-3.36,3.67-4.94l.15-.19c.55-.73,1.1-1.47,1.66-2.19q1.38-1.78,2.78-3.55c1-1.26,2-2.53,3-3.79l2.64-3.19Q78.55,176.73,80,175c5.34-6.2,10.92-12.22,16.6-17.89.57-.6,1.18-1.19,1.78-1.79,1.11-1.09,2.18-2.14,3.26-3.18a333.5,333.5,0,0,1,27.27-23.5,329.48,329.48,0,0,1,202-68.79A330.24,330.24,0,0,1,593,188.77l7.35,9.52-9.52-7.35A327.9,327.9,0,0,0,68.36,391.07h0A330.16,330.16,0,0,0,81,558.19,328.22,328.22,0,0,0,381.47,778.34ZM330.93,63A326.47,326.47,0,0,0,130.82,131.1a330.93,330.93,0,0,0-27,23.29q-1.61,1.55-3.19,3.11c-.63.61-1.21,1.19-1.79,1.79-5.64,5.64-11.17,11.6-16.46,17.75-1,1.13-1.93,2.26-2.89,3.4s-1.75,2.11-2.62,3.17c-1,1.24-2,2.49-3,3.75S72,189.7,71.1,190.88c-.56.71-1.1,1.44-1.65,2.16l-.15.2c-1.19,1.56-2.41,3.21-3.63,4.88l-.09.12-1.74,2.43c-1.1,1.53-2.19,3.08-3.34,4.77q-1.23,1.78-2.43,3.58c-.58.87-1.16,1.75-1.73,2.63-1.1,1.66-2.19,3.38-3.27,5.1-.62,1-1.24,2-1.84,3l-.45.73c-.71,1.17-1.41,2.33-2.1,3.5l0,.08-.09.13,0,.09c-.56.94-1.09,1.86-1.62,2.78-.29.49-.55.93-.8,1.39-.46.79-.89,1.57-1.32,2.34-.31.54-.59,1-.86,1.53-.67,1.22-1.33,2.42-2,3.63s-1.29,2.4-1.91,3.61c-2.46,4.7-4.86,9.59-7.12,14.53-.22.46-.42.9-.62,1.35l-.32.7c-.31.68-.62,1.36-.92,2.05-.62,1.4-1.22,2.77-1.81,4.16-.47,1.11-.93,2.21-1.39,3.33-.27.65-.54,1.29-.8,1.94l-.07.18c-2.66,6.55-5.15,13.35-7.42,20.21-.22.65-.44,1.31-.64,2-1,3-1.89,6-2.76,8.95l0,.17c-.38,1.34-.77,2.69-1.14,4q-.39,1.39-.75,2.79c-.15.52-.28,1-.41,1.52l-.09.33c-.17.67-.35,1.34-.51,2q-.66,2.6-1.28,5.19l-.35,1.53c-.32,1.34-.62,2.69-.92,4-1.32,6.06-2.5,12.35-3.51,18.71l-.36,2.31c-.81,5.34-1.49,10.82-2,16.27-.15,1.56-.29,3.13-.43,4.7s-.27,3.3-.39,4.94-.2,3-.28,4.51c-.18,3.16-.31,6.37-.4,9.51,0,.76,0,1.51-.06,2.27v.15c0,.8,0,1.6-.05,2.42,0,1.5,0,3,0,4.48s0,3,0,4.48c0,.82,0,1.63.05,2.43v.15c0,.76,0,1.5.06,2.26A388,388,0,0,0,276.8,761.46a331.51,331.51,0,0,1-211.49-371h0A330.82,330.82,0,0,1,583.09,181.3,327.11,327.11,0,0,0,330.93,63Z"/><polygon class="cls-28" points="232.11 446.43 292.13 484.04 292.25 482.28 233.16 445.26 252.35 402.39 251.93 400.49 250.47 402.8 231.59 444.97 182.26 466.98 182.36 468.63 232.11 446.43"/><polygon class="cls-29" points="335.68 216.29 384.59 247.15 385.31 245.56 336.72 215.12 355.91 172.25 355.5 170.35 354.03 172.66 335.15 214.83 285.82 236.84 285.93 238.49 335.68 216.29"/></g></g></svg>