<svg xmlns="http://www.w3.org/2000/svg" xmlns:xlink="http://www.w3.org/1999/xlink" fill="none" version="1.1" width="80" height="80" viewBox="0 0 80 80"><defs><linearGradient x1="0.011050796136260033" y1="0.44768524169921875" x2="0.836703896522522" y2="0.44768524169921875" id="master_svg0_4740_05938"><stop offset="20.761366188526154%" stop-color="#6521FF" stop-opacity="1"/><stop offset="100%" stop-color="#7928FF" stop-opacity="1"/></linearGradient><linearGradient x1="0" y1="0.5" x2="1" y2="0.5" id="master_svg1_4643_06320"><stop offset="9.730224311351776%" stop-color="#FFE900" stop-opacity="1"/><stop offset="69.8962390422821%" stop-color="#FFD700" stop-opacity="1"/></linearGradient><linearGradient x1="0.4319699704647064" y1="0.8996518850326538" x2="0.5117387175559998" y2="0.23354598879814148" id="master_svg2_4740_05935"><stop offset="9.730224311351776%" stop-color="#FFE900" stop-opacity="1"/><stop offset="69.8962390422821%" stop-color="#FFD700" stop-opacity="1"/></linearGradient><linearGradient x1="0.2919140160083771" y1="0.1535482555627823" x2="0.3793315589427948" y2="0.8382847309112549" id="master_svg3_4740_05931"><stop offset="9.730224311351776%" stop-color="#FFE900" stop-opacity="1"/><stop offset="69.8962390422821%" stop-color="#FFD700" stop-opacity="1"/></linearGradient></defs><g><rect x="0" y="0" width="80" height="80" rx="0" fill="#FFFFFF" fill-opacity="0"/><g><g><path d="M30.3011673828125,13.3691225L30.3011673828125,66.7051625C30.3013673828125,66.94886249999999,30.165067382812502,67.17206250000001,29.9481673828125,67.2831625C29.7312673828125,67.3941625,29.470367382812498,67.37436249999999,29.2728673828125,67.2317625L19.3130083828125,60.0539625C19.1439165828125,59.9318625,19.0438432308125,59.7359625,19.0440673828125,59.5273625L19.0440673828125,20.5536625C19.0438415068125,20.3451125,19.1439148828125,20.1491625,19.3130083828125,20.0270825L29.2728673828125,12.8493215C29.4694673828125,12.7073768,29.7287673828125,12.6869325,29.9451673828125,12.7963202C30.1615673828125,12.9057075,30.2988673828125,13.1266595,30.3011673828125,13.3691225Z" fill="url(#master_svg0_4740_05938)" fill-opacity="1"/></g><g><path d="M51.106709953125,27.727023828125L59.972691953125,21.435182828125C60.170521953125004,21.294913928125,60.430071953125,21.276721428125,60.645531953125,21.388019628125C60.860951953124996,21.499317828125,60.996351953125,21.721512828125,60.996451953125,21.964021828125L60.996451953125,58.117273828125C60.996351953125,58.359773828125,60.860951953124996,58.581973828125,60.645531953125,58.693273828125C60.430071953125,58.804573828125,60.170521953125004,58.786373828125,59.972691953125,58.646073828125L51.106712953125,52.354273828125C50.935264953125,52.232673828125,50.833341613825,52.035573828124996,50.833251953125,51.825373828124995L50.833251953125,28.255863828125C50.833341613825,28.045693828125,50.935261953125,27.848583828125,51.106709953125,27.727023828125Z" fill="url(#master_svg1_4643_06320)" fill-opacity="1"/></g><g><path d="M58.38613359375,18.808962578124998L33.10351359375,12.315981678125C32.69295759375,12.213108178125,32.29496810875,12.523271578125,32.29443359375,12.946521578125001L32.29443359375,22.000082578125C32.29527502475,22.303142578124998,32.50518059375,22.565542578124997,32.80067459375,22.632842578125L49.25123359375,26.348342578125C49.43063359375,26.388642578125,49.61873359375,26.350842578125,49.76873359375,26.244342578125L58.59853359375,19.977382578125C58.80453359375,19.831452578125,58.90703359375,19.579302578125,58.861533593749996,19.331052578125C58.81593359375,19.082802578125,58.63053359375,18.883532578125,58.38613359375,18.820262578125L58.38613359375,18.808962578124998Z" fill="url(#master_svg2_4740_05935)" fill-opacity="1"/></g><g><path d="M49.25123359375,53.7168542475L32.80067459375,57.4390809375C32.50518059375,57.5064209375,32.29527157575,57.7688109375,32.29443359375,58.0718709375L32.29443359375,67.1254609375C32.29496466075,67.5486609375,32.69295459375,67.8588609375,33.10351359375,67.75596093749999L58.38613359375,61.2517009375C58.63053359375,61.1884209375,58.81593359375,60.9891509375,58.861533593749996,60.7409109375C58.907133593750004,60.4926609375,58.80453359375,60.2405109375,58.59853359375,60.0945809375L49.76873359375,53.8230749375C49.61753359375,53.7194750975,49.42933359375,53.6849695375,49.25123359375,53.7281515375L49.25123359375,53.7168542475Z" fill="url(#master_svg3_4740_05931)" fill-opacity="1"/></g></g><g><g><rect x="38" y="57" width="32" height="14" rx="3" fill="#FCA715" fill-opacity="1"/></g><g><path d="M44.2307071685791,67.59459208839417L46.2076771685791,67.59459208839417C47.5991871685791,67.59459208839417,48.5664671685791,66.94983208839416,48.5664671685791,65.64216208839416C48.5664671685791,64.73405208839417,48.0404071685791,64.20735208839416,47.3022271685791,64.05297208839417L47.3022271685791,64.00757208839417C47.8876771685791,63.80778208839416,48.210097168579104,63.22659208839416,48.210097168579104,62.56367208839416C48.210097168579104,61.392216088394164,47.3276771685791,60.938162088394165,46.0719171685791,60.938162088394165L44.2307071685791,60.938162088394165L44.2307071685791,67.59459208839417ZM45.0113131685791,63.76238208839416L45.0113131685791,61.60108108839417L45.9700971685791,61.60108108839417C46.9458571685791,61.60108108839417,47.4379771685791,61.891675088394166,47.4379771685791,62.672652088394166C47.4379771685791,63.35373208839417,47.0052571685791,63.76238208839416,45.9361571685791,63.76238208839416L45.0113131685791,63.76238208839416ZM45.0113131685791,66.92259208839417L45.0113131685791,64.41621208839416L46.0973771685791,64.41621208839416C47.1919171685791,64.41621208839416,47.7943471685791,64.78854208839417,47.7943471685791,65.61492208839417C47.7943471685791,66.51394208839416,47.1664671685791,66.92259208839417,46.0973771685791,66.92259208839417L45.0113131685791,66.92259208839417ZM49.805257168579104,67.59459208839417L53.4791871685791,67.59459208839417L53.4791871685791,66.87719208839417L50.5858571685791,66.87719208839417L50.5858571685791,64.45254208839417L52.9446471685791,64.45254208839417L52.9446471685791,63.73513208839417L50.5858571685791,63.73513208839417L50.5858571685791,61.64648608839416L53.3858571685791,61.64648608839416L53.3858571685791,60.938162088394165L49.805257168579104,60.938162088394165L49.805257168579104,67.59459208839417ZM56.092507168579104,67.59459208839417L56.8816071685791,67.59459208839417L56.8816071685791,61.64648608839416L58.7652071685791,61.64648608839416L58.7652071685791,60.938162088394165L54.2088871685791,60.938162088394165L54.2088871685791,61.64648608839416L56.092507168579104,61.64648608839416L56.092507168579104,67.59459208839417ZM58.6804071685791,67.59459208839417L59.4695071685791,67.59459208839417L60.0719071685791,65.56043208839417L62.3459071685791,65.56043208839417L62.9398071685791,67.59459208839417L63.7713071685791,67.59459208839417L61.6586071685791,60.938162088394165L60.7846071685791,60.938162088394165L58.6804071685791,67.59459208839417ZM60.2671071685791,64.89751208839417L60.5725071685791,63.87135208839417C60.7931071685791,63.117622088394164,60.9968071685791,62.40021208839416,61.19190716857911,61.619243088394164L61.2259071685791,61.619243088394164C61.4295071685791,62.391132088394166,61.624607168579104,63.117622088394164,61.853707168579106,63.87135208839417L62.1507071685791,64.89751208839417L60.2671071685791,64.89751208839417Z" fill="#FFFFFF" fill-opacity="1"/></g></g></g></svg>