<svg xmlns="http://www.w3.org/2000/svg" xmlns:xlink="http://www.w3.org/1999/xlink" fill="none" version="1.1" width="1000" height="1000" viewBox="0 0 1000 1000"><defs><clipPath id="master_svg0_484_06918"><rect x="0" y="0" width="1000" height="1000" rx="0"/></clipPath></defs><g clip-path="url(#master_svg0_484_06918)"><rect x="0" y="0" width="1000" height="1000" rx="0" fill="#FFFFFF" fill-opacity="1"/><g><g transform="matrix(0.866779625415802,0.4986914098262787,-0.4986914098262787,0.866779625415802,191.18313081464203,-271.6666251426245)"><path d="M704.0632411376953,231.04804000000001C706.0430411376954,219.13804,723.3390411376953,218.62324,724.5960411376954,231.66844C729.9150411376953,282.426,757.8080411376953,304.008,808.2760411376953,296.4108C820.2170411376953,294.6132,825.0640411376953,311.22360000000003,814.0310411376953,316.1316C768.4260411376953,336.875,755.4950411376954,370.072,778.3160411376953,415.722C783.7140411376953,426.522,769.4160411376953,436.26599999999996,761.8140411376953,427.28999999999996C727.2020411376953,389.351,691.9504411376953,388.286,655.5856411376953,424.097C646.9828411376953,432.56899999999996,633.2980411376953,421.981,639.3388411376953,411.526C664.8712411376953,367.336,654.9904411376954,333.48,609.6952311376953,309.9624C598.9804311376953,304.398,604.8196331376953,288.1104,616.6300411376953,291.0792C667.1104411376953,301.2528,695.6920411376954,281.3928,704.0632411376953,231.04804000000001Z" fill-rule="evenodd" fill="#FFF400" fill-opacity="1"/></g><g><path d="M822.0000030517579,577.5867126464843Q822.0000030517579,580.9447126464844,821.6130030517578,584.2987126464843Q821.2250030517578,587.6537126464843,820.4510030517578,590.9957126464844Q819.6780030517579,594.3377126464843,818.5190030517579,597.6597126464844Q817.3610030517578,600.9817126464843,815.8200030517578,604.2747126464844Q814.2800030517578,607.5687126464844,812.3620030517578,610.8267126464843Q810.4440030517578,614.0837126464844,808.1520030517578,617.2977126464843Q805.8600030517578,620.5117126464844,803.2010030517578,623.6727126464843Q800.5410030517578,626.8347126464844,797.5200030517578,629.9377126464844Q794.4980030517578,633.0407126464844,791.1230030517578,636.0767126464843Q787.7470030517578,639.1117126464844,784.0260030517578,642.0737126464844Q780.3040030517578,645.0357126464844,776.2450030517579,647.9157126464844Q772.1870030517578,650.7967126464844,767.8000030517578,653.5887126464844Q763.4140030517578,656.3807126464844,758.7110030517578,659.0787126464844Q754.0080030517578,661.7757126464844,749.0000030517579,664.3717126464844Q743.9920030517578,666.9677126464844,738.6900030517578,669.4557126464844Q733.3880030517578,671.9447126464844,727.8050030517578,674.3187126464844Q722.2230030517578,676.6937126464844,716.3730030517578,678.9487126464844Q710.5240030517579,681.2037126464844,704.4210030517578,683.3347126464844Q698.3180030517578,685.4647126464844,691.9770030517578,687.4657126464843Q685.6360030517578,689.4657126464843,679.0710030517578,691.3317126464843Q672.5070030517578,693.1977126464844,665.7350030517578,694.9237126464843Q658.9640030517578,696.6507126464844,652.0010030517578,698.2337126464844Q645.0380030517579,699.8167126464843,637.9020030517578,701.2527126464844Q630.7650030517577,702.6877126464844,623.4710030517579,703.9737126464844Q616.1770030517578,705.2587126464844,608.7440030517578,706.3897126464844Q601.3100030517578,707.5217126464844,593.7550030517577,708.4957126464844Q586.2010030517579,709.4707126464843,578.5420030517578,710.2867126464844Q570.8840030517579,711.1027126464844,563.1410030517578,711.7577126464844Q555.3980030517578,712.4137126464843,547.5880030517578,712.9057126464844Q539.7790030517579,713.3987126464845,531.9220030517579,713.7277126464844Q524.0650030517578,714.0567126464844,516.1800030517578,714.2217126464843Q508.2950030517578,714.3867126464844,500.40000305175784,714.3867126464844Q492.5050030517578,714.3867126464844,484.6200030517578,714.2217126464843Q476.73400305175784,714.0567126464844,468.8780030517578,713.7277126464844Q461.0210030517578,713.3987126464845,453.2110030517578,712.9057126464844Q445.4020030517578,712.4137126464843,437.6590030517578,711.7577126464844Q429.9160030517578,711.1027126464844,422.2580030517578,710.2867126464844Q414.5990030517578,709.4707126464843,407.04400305175784,708.4957126464844Q399.4900030517578,707.5217126464844,392.0560030517578,706.3897126464844Q384.6230030517578,705.2587126464844,377.3290030517578,703.9737126464844Q370.0350030517578,702.6877126464844,362.8980030517578,701.2527126464844Q355.7610030517578,699.8167126464843,348.79900305175784,698.2337126464844Q341.8360030517578,696.6507126464844,335.0650030517578,694.9237126464843Q328.2930030517578,693.1977126464844,321.7290030517578,691.3317126464843Q315.16400305175785,689.4657126464843,308.82300305175784,687.4657126464843Q302.48200305175783,685.4647126464844,296.3790030517578,683.3347126464844Q290.2760030517578,681.2037126464844,284.4270030517578,678.9487126464844Q278.5769030517578,676.6937126464844,272.9944030517578,674.3187126464844Q267.4119030517578,671.9447126464844,262.11010305175785,669.4557126464844Q256.80830305175783,666.9677126464844,251.7998030517578,664.3717126464844Q246.7914030517578,661.7757126464844,242.0884030517578,659.0787126464844Q237.3855030517578,656.3807126464844,232.9994030517578,653.5887126464844Q228.6132030517578,650.7967126464844,224.55450305175782,647.9157126464844Q220.4957030517578,645.0357126464844,216.7741030517578,642.0737126464844Q213.0525030517578,639.1117126464844,209.67700305175782,636.0767126464843Q206.3016030517578,633.0407126464844,203.2803030517578,629.9377126464844Q200.25910305175782,626.8347126464844,197.5994030517578,623.6727126464843Q194.93970305175782,620.5117126464844,192.64800305175783,617.2977126464843Q190.3562030517578,614.0837126464844,188.4379530517578,610.8267126464843Q186.51966305175782,607.5687126464844,184.97945305175782,604.2747126464844Q183.43925305175782,600.9817126464843,182.2808330517578,597.6597126464844Q181.1224230517578,594.3377126464843,180.3485930517578,590.9957126464844Q179.57476505175782,587.6537126464843,179.18738405175782,584.2987126464843Q178.8000030517578,580.9447126464844,178.8000030517578,577.5867126464843Q178.8000030517578,574.2287126464844,179.18738405175782,570.8747126464843Q179.57476505175782,567.5197126464843,180.3485930517578,564.1777126464843Q181.1224230517578,560.8357126464844,182.2808330517578,557.5137126464844Q183.43925305175782,554.1917126464843,184.97945305175782,550.8987126464843Q186.51966305175782,547.6047126464844,188.4379530517578,544.3467126464843Q190.3562030517578,541.0897126464844,192.64800305175783,537.8758126464844Q194.93970305175782,534.6621126464844,197.5994030517578,531.5002126464843Q200.25910305175782,528.3382126464844,203.2803030517578,525.2356126464844Q206.3016030517578,522.1330126464844,209.67700305175782,519.0971126464843Q213.0525030517578,516.0613126464843,216.7741030517578,513.0996126464844Q220.4957030517578,510.1379126464844,224.55450305175782,507.25741264648434Q228.6132030517578,504.3770126464844,232.9994030517578,501.5847126464844Q237.3855030517578,498.79241264648437,242.0884030517578,496.0950126464844Q246.7914030517578,493.39771264648436,251.7998030517578,490.80171264648436Q256.80830305175783,488.20571264648436,262.11010305175785,485.7174126464844Q267.4119030517578,483.2291126464844,272.9944030517578,480.85451264648435Q278.5769030517578,478.4798126464844,284.4270030517578,476.2246126464844Q290.2760030517578,473.96931264648435,296.3790030517578,471.83891264648435Q302.48200305175783,469.70841264648436,308.82300305175784,467.7079126464844Q315.16400305175785,465.7074126464844,321.7290030517578,463.8417126464844Q328.2930030517578,461.9759126464844,335.0650030517578,460.24941264648436Q341.8360030517578,458.5229126464844,348.79900305175784,456.93991264648434Q355.7610030517578,455.3568126464844,362.8980030517578,453.92101264648437Q370.0350030517578,452.48511264648437,377.3290030517578,451.20001264648437Q384.6230030517578,449.9148426464844,392.0560030517578,448.7834826464844Q399.4900030517578,447.6521226464844,407.04400305175784,446.67727264648437Q414.5990030517578,445.70242264648437,422.2580030517578,444.88643264648437Q429.9160030517578,444.0704526464844,437.6590030517578,443.4152826464844Q445.4020030517578,442.7601226464844,453.2110030517578,442.2673626464844Q461.0210030517578,441.77460764648436,468.8780030517578,441.44544164648437Q476.73400305175784,441.1162756464844,484.6200030517578,440.9514946464844Q492.5050030517578,440.7867126464844,500.40000305175784,440.7867126464844Q508.2950030517578,440.7867126464844,516.1800030517578,440.9514946464844Q524.0660030517579,441.1162756464844,531.9220030517579,441.44544164648437Q539.7790030517579,441.77460764648436,547.5890030517578,442.2673626464844Q555.3980030517578,442.7601226464844,563.1410030517578,443.4152826464844Q570.8840030517579,444.0704526464844,578.5420030517578,444.88643264648437Q586.2010030517579,445.70242264648437,593.7560030517578,446.67727264648437Q601.3100030517578,447.6521226464844,608.7440030517578,448.7834826464844Q616.1770030517578,449.9148426464844,623.4710030517579,451.20001264648437Q630.7650030517577,452.48511264648437,637.9020030517578,453.92101264648437Q645.0380030517579,455.3568126464844,652.0010030517578,456.93991264648434Q658.9640030517578,458.5229126464844,665.7350030517578,460.24941264648436Q672.5070030517578,461.9759126464844,679.0710030517578,463.8417126464844Q685.6360030517578,465.7074126464844,691.9770030517578,467.7079126464844Q698.3180030517578,469.70841264648436,704.4210030517578,471.83891264648435Q710.5240030517579,473.96931264648435,716.3730030517578,476.2246126464844Q722.2230030517578,478.4798126464844,727.8050030517578,480.85451264648435Q733.3880030517578,483.2291126464844,738.6900030517578,485.7174126464844Q743.9920030517578,488.20571264648436,749.0000030517579,490.80171264648436Q754.0080030517578,493.39771264648436,758.7110030517578,496.0950126464844Q763.4140030517578,498.79241264648437,767.8000030517578,501.5847126464844Q772.1870030517578,504.3770126464844,776.2450030517579,507.25741264648434Q780.3040030517578,510.1379126464844,784.0260030517578,513.0996126464844Q787.7470030517578,516.0613126464843,791.1230030517578,519.0971126464843Q794.4980030517578,522.1330126464844,797.5200030517578,525.2356126464844Q800.5410030517578,528.3382126464844,803.2010030517578,531.5002126464843Q805.8600030517578,534.6621126464844,808.1520030517578,537.8758126464844Q810.4440030517578,541.0897126464844,812.3620030517578,544.3467126464843Q814.2800030517578,547.6047126464844,815.8200030517578,550.8987126464843Q817.3610030517578,554.1917126464843,818.5190030517579,557.5137126464844Q819.6780030517579,560.8357126464844,820.4510030517578,564.1777126464843Q821.2250030517578,567.5197126464843,821.6130030517578,570.8747126464843Q822.0000030517579,574.2287126464844,822.0000030517579,577.5867126464843Z" fill="#1E1E1E" fill-opacity="1"/></g><g><path d="M745.1999908447266,555.9867141723632C745.1999908447266,621.9867141723632,635.5989908447266,657.9867141723632,500.3999908447266,657.9867141723632C365.20099084472656,657.9867141723632,255.59999084472656,621.9867141723632,255.59999084472656,555.9867141723632C255.59999084472656,420.7877141723633,365.20099084472656,311.1867141723633,500.3999908447266,311.1867141723633C635.5989908447266,311.1867141723633,745.1999908447266,420.7877141723633,745.1999908447266,555.9867141723632Z" fill="#01FF2F" fill-opacity="1"/></g><g><path d="M495.6000091552734,582.3867126464844Q495.6000091552734,583.0642126464844,495.56680915527346,583.7410126464844Q495.53350915527346,584.4177126464843,495.4671091552734,585.0920126464844Q495.40070915527343,585.7663126464844,495.30130915527343,586.4365126464844Q495.2019091552734,587.1067126464844,495.0697091552734,587.7712126464844Q494.93750915527346,588.4357126464844,494.77290915527345,589.0930126464843Q494.6082091552734,589.7502126464843,494.4116091552734,590.3986126464844Q494.21490915527346,591.0469126464843,493.9866091552734,591.6849126464843Q493.75840915527345,592.3228126464844,493.49910915527346,592.9488126464844Q493.2398091552734,593.5747126464844,492.9501091552734,594.1872126464843Q492.66040915527344,594.7997126464844,492.34100915527347,595.3972126464844Q492.02160915527344,595.9948126464844,491.67330915527344,596.5759126464844Q491.32500915527345,597.1571126464844,490.94860915527346,597.7204126464844Q490.57210915527344,598.2838126464844,490.16850915527345,598.8280126464844Q489.7649091552734,599.3722126464844,489.3351091552734,599.8960126464843Q488.9053091552734,600.4197126464844,488.45030915527343,600.9217126464844Q487.9952091552734,601.4238126464844,487.51610915527345,601.9028126464843Q487.0371091552734,602.3819126464844,486.5350091552734,602.8370126464844Q486.0330091552734,603.2920126464844,485.50930915527346,603.7218126464844Q484.98550915527346,604.1516126464844,484.4413091552734,604.5552126464844Q483.8971091552734,604.9588126464844,483.3337091552734,605.3353126464843Q482.77040915527346,605.7117126464843,482.18920915527343,606.0600126464843Q481.60810915527344,606.4083126464843,481.01050915527344,606.7277126464844Q480.4130091552734,607.0471126464844,479.80050915527346,607.3368126464844Q479.18800915527345,607.6265126464843,478.56210915527345,607.8858126464844Q477.9361091552734,608.1451126464843,477.2982091552734,608.3733126464844Q476.66020915527344,608.6016126464843,476.01190915527343,608.7983126464844Q475.36350915527345,608.9949126464844,474.70630915527346,609.1596126464843Q474.04900915527344,609.3242126464844,473.38450915527346,609.4564126464844Q472.72000915527343,609.5886126464844,472.04980915527346,609.6880126464844Q471.37960915527344,609.7874126464844,470.7053091552734,609.8538126464844Q470.0310091552734,609.9202126464844,469.3543091552734,609.9535126464843Q468.6775091552734,609.9867126464844,468.00000915527346,609.9867126464844Q467.32250915527345,609.9867126464844,466.64570915527344,609.9535126464843Q465.96900915527345,609.9202126464844,465.29470915527344,609.8538126464844Q464.6204091552734,609.7874126464844,463.95020915527346,609.6880126464844Q463.28000915527343,609.5886126464844,462.61550915527346,609.4564126464844Q461.9510091552734,609.3242126464844,461.29370915527346,609.1596126464843Q460.6365091552734,608.9949126464844,459.98810915527343,608.7983126464844Q459.33980915527343,608.6016126464843,458.70180915527345,608.3733126464844Q458.06390915527345,608.1451126464843,457.4379091552734,607.8858126464844Q456.8120091552734,607.6265126464843,456.19950915527346,607.3368126464844Q455.58700915527345,607.0471126464844,454.98940915527345,606.7277126464844Q454.3919091552734,606.4083126464843,453.81080915527343,606.0600126464843Q453.22960915527347,605.7117126464843,452.66630915527344,605.3353126464843Q452.10290915527344,604.9588126464844,451.55870915527345,604.5552126464844Q451.01450915527346,604.1516126464844,450.49070915527346,603.7218126464844Q449.96700915527344,603.2920126464844,449.46497915527345,602.8370126464844Q448.96295915527344,602.3819126464844,448.4838591552734,601.9028126464843Q448.00476915527344,601.4238126464844,447.5497591552734,600.9217126464844Q447.09474915527346,600.4197126464844,446.6649191552734,599.8960126464843Q446.23508915527344,599.3722126464844,445.8314791552734,598.8280126464844Q445.4278691552734,598.2838126464844,445.0514491552734,597.7204126464844Q444.6750291552734,597.1571126464844,444.32669915527345,596.5759126464844Q443.9783691552734,595.9948126464844,443.6589791552734,595.3972126464844Q443.3395891552734,594.7997126464844,443.04990915527344,594.1872126464843Q442.76021915527343,593.5747126464844,442.5009291552734,592.9488126464844Q442.2416491552734,592.3228126464844,442.01338915527344,591.6849126464843Q441.78513915527344,591.0469126464843,441.5884591552734,590.3986126464844Q441.3917761552734,589.7502126464843,441.22714615527343,589.0930126464843Q441.06251715527344,588.4357126464844,440.93033515527344,587.7712126464844Q440.79815315527344,587.1067126464844,440.6987371552734,586.4365126464844Q440.59932115527346,585.7663126464844,440.53291115527344,585.0920126464844Q440.46649995527343,584.4177126464843,440.43325455527344,583.7410126464844Q440.40000915527344,583.0642126464844,440.40000915527344,582.3867126464844Q440.40000915527344,581.7092126464844,440.43325455527344,581.0324126464843Q440.46649995527343,580.3557126464843,440.53291115527344,579.6814126464844Q440.59932115527346,579.0071126464844,440.6987371552734,578.3369126464844Q440.79815315527344,577.6667126464844,440.93033515527344,577.0022126464844Q441.06251715527344,576.3377126464844,441.22714615527343,575.6804126464843Q441.3917761552734,575.0232126464844,441.5884591552734,574.3748126464844Q441.78513915527344,573.7265126464844,442.01338915527344,573.0885126464843Q442.2416491552734,572.4506126464844,442.5009291552734,571.8246126464844Q442.76021915527343,571.1987126464844,443.04990915527344,570.5862126464843Q443.3395891552734,569.9737126464844,443.6589791552734,569.3761126464843Q443.9783691552734,568.7786126464844,444.32669915527345,568.1975126464844Q444.6750291552734,567.6163126464844,445.0514491552734,567.0530126464844Q445.4278691552734,566.4896126464844,445.8314791552734,565.9454126464843Q446.23508915527344,565.4012126464844,446.6649191552734,564.8774126464843Q447.09474915527346,564.3537126464844,447.5497591552734,563.8516826464844Q448.00476915527344,563.3496626464844,448.4838591552734,562.8705626464844Q448.96295915527344,562.3914726464844,449.46497915527345,561.9364626464844Q449.96700915527344,561.4814526464844,450.49070915527346,561.0516226464844Q451.01450915527346,560.6217926464843,451.55870915527345,560.2181826464844Q452.10290915527344,559.8145726464844,452.66630915527344,559.4381526464844Q453.22960915527347,559.0617326464844,453.81080915527343,558.7134026464844Q454.3919091552734,558.3650726464844,454.98940915527345,558.0456826464844Q455.58700915527345,557.7262926464844,456.19950915527346,557.4366126464844Q456.8120091552734,557.1469226464844,457.4379091552734,556.8876326464843Q458.06390915527345,556.6283526464844,458.70180915527345,556.4000926464844Q459.33980915527343,556.1718426464844,459.98810915527343,555.9751626464844Q460.6365091552734,555.7784796464844,461.29370915527346,555.6138496464844Q461.9510091552734,555.4492206464844,462.61550915527346,555.3170386464843Q463.28000915527343,555.1848566464844,463.95020915527346,555.0854406464844Q464.6204091552734,554.9860246464843,465.29470915527344,554.9196146464843Q465.96900915527345,554.8532034464844,466.64570915527344,554.8199580464844Q467.32250915527345,554.7867126464844,468.00000915527346,554.7867126464844Q468.6775091552734,554.7867126464844,469.3543091552734,554.8199580464844Q470.0310091552734,554.8532034464844,470.7053091552734,554.9196146464843Q471.37960915527344,554.9860246464843,472.04980915527346,555.0854406464844Q472.72000915527343,555.1848566464844,473.38450915527346,555.3170386464843Q474.04900915527344,555.4492206464844,474.70630915527346,555.6138496464844Q475.36350915527345,555.7784796464844,476.01190915527343,555.9751626464844Q476.66020915527344,556.1718426464844,477.2982091552734,556.4000926464844Q477.9361091552734,556.6283526464844,478.56210915527345,556.8876326464843Q479.18800915527345,557.1469226464844,479.80050915527346,557.4366126464844Q480.4130091552734,557.7262926464844,481.01050915527344,558.0456826464844Q481.60810915527344,558.3650726464844,482.18920915527343,558.7134026464844Q482.77040915527346,559.0617326464844,483.3337091552734,559.4381526464844Q483.8971091552734,559.8145726464844,484.4413091552734,560.2181826464844Q484.98550915527346,560.6217926464843,485.50930915527346,561.0516226464844Q486.0330091552734,561.4814526464844,486.5350091552734,561.9364626464844Q487.0371091552734,562.3914726464844,487.51610915527345,562.8705626464844Q487.9952091552734,563.3496626464844,488.45030915527343,563.8516826464844Q488.9053091552734,564.3537126464844,489.3351091552734,564.8774126464843Q489.7649091552734,565.4012126464844,490.16850915527345,565.9454126464843Q490.57210915527344,566.4896126464844,490.94860915527346,567.0530126464844Q491.32500915527345,567.6163126464844,491.67330915527344,568.1975126464844Q492.02160915527344,568.7786126464844,492.34100915527347,569.3761126464843Q492.66040915527344,569.9737126464844,492.9501091552734,570.5862126464843Q493.2398091552734,571.1987126464844,493.49910915527346,571.8246126464844Q493.75840915527345,572.4506126464844,493.9866091552734,573.0885126464843Q494.21490915527346,573.7265126464844,494.4116091552734,574.3748126464844Q494.6082091552734,575.0232126464844,494.77290915527345,575.6804126464843Q494.93750915527346,576.3377126464844,495.0697091552734,577.0022126464844Q495.2019091552734,577.6667126464844,495.30130915527343,578.3369126464844Q495.40070915527343,579.0071126464844,495.4671091552734,579.6814126464844Q495.53350915527346,580.3557126464843,495.56680915527346,581.0324126464843Q495.6000091552734,581.7092126464844,495.6000091552734,582.3867126464844Z" fill="#FFFFFF" fill-opacity="1"/></g><g><path d="M567.5999786376954,582.3867126464844Q567.5999786376954,583.0642126464844,567.5667786376953,583.7410126464844Q567.5334786376953,584.4177126464843,567.4670786376953,585.0920126464844Q567.4006786376954,585.7663126464844,567.3012786376953,586.4365126464844Q567.2018786376954,587.1067126464844,567.0696786376953,587.7712126464844Q566.9374786376953,588.4357126464844,566.7728786376953,589.0930126464843Q566.6081786376953,589.7502126464843,566.4115786376954,590.3986126464844Q566.2148786376953,591.0469126464843,565.9865786376953,591.6849126464843Q565.7583786376953,592.3228126464844,565.4990786376953,592.9488126464844Q565.2397786376953,593.5747126464844,564.9500786376954,594.1872126464843Q564.6603786376953,594.7997126464844,564.3409786376953,595.3972126464844Q564.0215786376953,595.9948126464844,563.6732786376953,596.5759126464844Q563.3249786376953,597.1571126464844,562.9485786376953,597.7204126464844Q562.5720786376953,598.2838126464844,562.1684786376953,598.8280126464844Q561.7648786376953,599.3722126464844,561.3350786376953,599.8960126464843Q560.9052786376953,600.4197126464844,560.4502786376953,600.9217126464844Q559.9951786376953,601.4238126464844,559.5160786376953,601.9028126464843Q559.0370786376953,602.3819126464844,558.5349786376953,602.8370126464844Q558.0329786376954,603.2920126464844,557.5092786376953,603.7218126464844Q556.9854786376953,604.1516126464844,556.4412786376953,604.5552126464844Q555.8970786376954,604.9588126464844,555.3336786376954,605.3353126464843Q554.7703786376953,605.7117126464843,554.1891786376954,606.0600126464843Q553.6080786376954,606.4083126464843,553.0104786376953,606.7277126464844Q552.4129786376953,607.0471126464844,551.8004786376953,607.3368126464844Q551.1879786376953,607.6265126464843,550.5620786376953,607.8858126464844Q549.9360786376953,608.1451126464843,549.2981786376953,608.3733126464844Q548.6601786376953,608.6016126464843,548.0118786376953,608.7983126464844Q547.3634786376953,608.9949126464844,546.7062786376953,609.1596126464843Q546.0489786376953,609.3242126464844,545.3844786376953,609.4564126464844Q544.7199786376954,609.5886126464844,544.0497786376953,609.6880126464844Q543.3795786376953,609.7874126464844,542.7052786376953,609.8538126464844Q542.0309786376953,609.9202126464844,541.3542786376953,609.9535126464843Q540.6774786376953,609.9867126464844,539.9999786376953,609.9867126464844Q539.3224786376953,609.9867126464844,538.6456786376953,609.9535126464843Q537.9689786376953,609.9202126464844,537.2946786376954,609.8538126464844Q536.6203786376954,609.7874126464844,535.9501786376953,609.6880126464844Q535.2799786376953,609.5886126464844,534.6154786376953,609.4564126464844Q533.9509786376954,609.3242126464844,533.2936786376953,609.1596126464843Q532.6364786376953,608.9949126464844,531.9880786376954,608.7983126464844Q531.3397786376953,608.6016126464843,530.7017786376953,608.3733126464844Q530.0638786376953,608.1451126464843,529.4378786376953,607.8858126464844Q528.8119786376953,607.6265126464843,528.1994786376953,607.3368126464844Q527.5869786376953,607.0471126464844,526.9893786376953,606.7277126464844Q526.3918786376953,606.4083126464843,525.8107786376953,606.0600126464843Q525.2295786376953,605.7117126464843,524.6662786376953,605.3353126464843Q524.1028786376953,604.9588126464844,523.5586786376953,604.5552126464844Q523.0144786376953,604.1516126464844,522.4906786376953,603.7218126464844Q521.9669786376953,603.2920126464844,521.4649486376953,602.8370126464844Q520.9629286376953,602.3819126464844,520.4838286376953,601.9028126464843Q520.0047386376954,601.4238126464844,519.5497286376954,600.9217126464844Q519.0947186376953,600.4197126464844,518.6648886376953,599.8960126464843Q518.2350586376953,599.3722126464844,517.8314486376953,598.8280126464844Q517.4278386376953,598.2838126464844,517.0514186376953,597.7204126464844Q516.6749986376954,597.1571126464844,516.3266686376953,596.5759126464844Q515.9783386376953,595.9948126464844,515.6589486376953,595.3972126464844Q515.3395586376953,594.7997126464844,515.0498786376953,594.1872126464843Q514.7601886376954,593.5747126464844,514.5008986376953,592.9488126464844Q514.2416186376953,592.3228126464844,514.0133586376953,591.6849126464843Q513.7851086376953,591.0469126464843,513.5884286376953,590.3986126464844Q513.3917456376953,589.7502126464843,513.2271156376953,589.0930126464843Q513.0624866376953,588.4357126464844,512.9303046376953,587.7712126464844Q512.7981226376953,587.1067126464844,512.6987066376953,586.4365126464844Q512.5992906376953,585.7663126464844,512.5328806376953,585.0920126464844Q512.4664694376953,584.4177126464843,512.4332240376954,583.7410126464844Q512.3999786376953,583.0642126464844,512.3999786376953,582.3867126464844Q512.3999786376953,581.7092126464844,512.4332240376954,581.0324126464843Q512.4664694376953,580.3557126464843,512.5328806376953,579.6814126464844Q512.5992906376953,579.0071126464844,512.6987066376953,578.3369126464844Q512.7981226376953,577.6667126464844,512.9303046376953,577.0022126464844Q513.0624866376953,576.3377126464844,513.2271156376953,575.6804126464843Q513.3917456376953,575.0232126464844,513.5884286376953,574.3748126464844Q513.7851086376953,573.7265126464844,514.0133586376953,573.0885126464843Q514.2416186376953,572.4506126464844,514.5008986376953,571.8246126464844Q514.7601886376954,571.1987126464844,515.0498786376953,570.5862126464843Q515.3395586376953,569.9737126464844,515.6589486376953,569.3761126464843Q515.9783386376953,568.7786126464844,516.3266686376953,568.1975126464844Q516.6749986376954,567.6163126464844,517.0514186376953,567.0530126464844Q517.4278386376953,566.4896126464844,517.8314486376953,565.9454126464843Q518.2350586376953,565.4012126464844,518.6648886376953,564.8774126464843Q519.0947186376953,564.3537126464844,519.5497286376954,563.8516826464844Q520.0047386376954,563.3496626464844,520.4838286376953,562.8705626464844Q520.9629286376953,562.3914726464844,521.4649486376953,561.9364626464844Q521.9669786376953,561.4814526464844,522.4906786376953,561.0516226464844Q523.0144786376953,560.6217926464843,523.5586786376953,560.2181826464844Q524.1028786376953,559.8145726464844,524.6662786376953,559.4381526464844Q525.2295786376953,559.0617326464844,525.8107786376953,558.7134026464844Q526.3918786376953,558.3650726464844,526.9893786376953,558.0456826464844Q527.5869786376953,557.7262926464844,528.1994786376953,557.4366126464844Q528.8119786376953,557.1469226464844,529.4378786376953,556.8876326464843Q530.0638786376953,556.6283526464844,530.7017786376953,556.4000926464844Q531.3397786376953,556.1718426464844,531.9880786376954,555.9751626464844Q532.6364786376953,555.7784796464844,533.2936786376953,555.6138496464844Q533.9509786376954,555.4492206464844,534.6154786376953,555.3170386464843Q535.2799786376953,555.1848566464844,535.9501786376953,555.0854406464844Q536.6203786376954,554.9860246464843,537.2946786376954,554.9196146464843Q537.9689786376953,554.8532034464844,538.6456786376953,554.8199580464844Q539.3224786376953,554.7867126464844,539.9999786376953,554.7867126464844Q540.6774786376953,554.7867126464844,541.3542786376953,554.8199580464844Q542.0309786376953,554.8532034464844,542.7052786376953,554.9196146464843Q543.3795786376953,554.9860246464843,544.0497786376953,555.0854406464844Q544.7199786376954,555.1848566464844,545.3844786376953,555.3170386464843Q546.0489786376953,555.4492206464844,546.7062786376953,555.6138496464844Q547.3634786376953,555.7784796464844,548.0118786376953,555.9751626464844Q548.6601786376953,556.1718426464844,549.2981786376953,556.4000926464844Q549.9360786376953,556.6283526464844,550.5620786376953,556.8876326464843Q551.1879786376953,557.1469226464844,551.8004786376953,557.4366126464844Q552.4129786376953,557.7262926464844,553.0104786376953,558.0456826464844Q553.6080786376954,558.3650726464844,554.1891786376954,558.7134026464844Q554.7703786376953,559.0617326464844,555.3336786376954,559.4381526464844Q555.8970786376954,559.8145726464844,556.4412786376953,560.2181826464844Q556.9854786376953,560.6217926464843,557.5092786376953,561.0516226464844Q558.0329786376954,561.4814526464844,558.5349786376953,561.9364626464844Q559.0370786376953,562.3914726464844,559.5160786376953,562.8705626464844Q559.9951786376953,563.3496626464844,560.4502786376953,563.8516826464844Q560.9052786376953,564.3537126464844,561.3350786376953,564.8774126464843Q561.7648786376953,565.4012126464844,562.1684786376953,565.9454126464843Q562.5720786376953,566.4896126464844,562.9485786376953,567.0530126464844Q563.3249786376953,567.6163126464844,563.6732786376953,568.1975126464844Q564.0215786376953,568.7786126464844,564.3409786376953,569.3761126464843Q564.6603786376953,569.9737126464844,564.9500786376954,570.5862126464843Q565.2397786376953,571.1987126464844,565.4990786376953,571.8246126464844Q565.7583786376953,572.4506126464844,565.9865786376953,573.0885126464843Q566.2148786376953,573.7265126464844,566.4115786376954,574.3748126464844Q566.6081786376953,575.0232126464844,566.7728786376953,575.6804126464843Q566.9374786376953,576.3377126464844,567.0696786376953,577.0022126464844Q567.2018786376954,577.6667126464844,567.3012786376953,578.3369126464844Q567.4006786376954,579.0071126464844,567.4670786376953,579.6814126464844Q567.5334786376953,580.3557126464843,567.5667786376953,581.0324126464843Q567.5999786376954,581.7092126464844,567.5999786376954,582.3867126464844Z" fill="#FFFFFF" fill-opacity="1"/></g><g><path d="M483.7327530517578,582.3862663574218Q483.7327530517578,582.7724663574219,483.71385305175784,583.1581663574219Q483.69485305175783,583.5439663574218,483.6569530517578,583.9282663574219Q483.6191530517578,584.3125663574219,483.5624530517578,584.6946663574219Q483.5058530517578,585.0766663574219,483.4304530517578,585.4554663574219Q483.35515305175784,585.8341663574219,483.2612530517578,586.2088663574219Q483.16745305175783,586.5834663574219,483.05535305175783,586.9530663574219Q482.94325305175784,587.3225663574219,482.8131530517578,587.6861663574218Q482.68305305175784,588.0498663574219,482.5352530517578,588.4066663574218Q482.3874530517578,588.7634663574219,482.2223530517578,589.1125663574219Q482.05715305175784,589.4616663574219,481.8751530517578,589.8022663574219Q481.69305305175783,590.1428663574219,481.4945530517578,590.4741663574218Q481.2959530517578,590.8053663574219,481.0814530517578,591.1264663574219Q480.8668530517578,591.4475663574219,480.63685305175784,591.7577663574219Q480.4067530517578,592.0679663574218,480.16175305175784,592.3665663574219Q479.91675305175784,592.6650663574219,479.6573530517578,592.9512663574219Q479.3980530517578,593.2373663574219,479.1249530517578,593.5104663574218Q478.8518530517578,593.7835663574219,478.56575305175784,594.0428663574219Q478.27955305175783,594.3022663574219,477.98105305175784,594.5472663574219Q477.6824530517578,594.7922663574219,477.3722530517578,595.0223663574219Q477.0620530517578,595.2523663574219,476.7409530517578,595.4669663574218Q476.4198530517578,595.6814663574219,476.08865305175783,595.8800663574219Q475.75735305175783,596.0785663574219,475.41675305175784,596.2606663574219Q475.07615305175784,596.4426663574219,474.7270530517578,596.6078663574219Q474.3779530517578,596.7729663574219,474.02115305175784,596.9207663574218Q473.6643530517578,597.0685663574219,473.3006530517578,597.1986663574219Q472.9370530517578,597.3287663574218,472.56755305175784,597.4408663574219Q472.1979530517578,597.5529663574218,471.8233530517578,597.6467663574218Q471.4486530517578,597.7406663574219,471.0699530517578,597.8159663574219Q470.6911530517578,597.8913663574219,470.3091530517578,597.9479663574218Q469.9270530517578,598.0046663574219,469.5427530517578,598.0424663574219Q469.1584530517578,598.0803663574219,468.7726530517578,598.0993663574219Q468.3869530517578,598.1182663574218,468.0007530517578,598.1182663574218Q467.6145530517578,598.1182663574218,467.2288530517578,598.0993663574219Q466.8430530517578,598.0803663574219,466.4587530517578,598.0424663574219Q466.0744530517578,598.0046663574219,465.69235305175783,597.9479663574218Q465.31035305175783,597.8913663574219,464.9315530517578,597.8159663574219Q464.55285305175784,597.7406663574219,464.1781530517578,597.6467663574218Q463.80355305175783,597.5529663574218,463.43395305175784,597.4408663574219Q463.0644530517578,597.3287663574218,462.70075305175783,597.1986663574219Q462.3371530517578,597.0685663574219,461.9803730517578,596.9207663574218Q461.62357305175783,596.7729663574219,461.2744530517578,596.6078663574219Q460.92533305175783,596.4426663574219,460.5847430517578,596.2606663574219Q460.2441430517578,596.0785663574219,459.91288305175783,595.8800663574219Q459.5816330517578,595.6814663574219,459.2605230517578,595.4669663574218Q458.9394130517578,595.2523663574219,458.6292130517578,595.0223663574219Q458.3190130517578,594.7922663574219,458.0204730517578,594.5472663574219Q457.7219430517578,594.3022663574219,457.4357830517578,594.0428663574219Q457.1496330517578,593.7835663574219,456.8765530517578,593.5104663574218Q456.6034630517578,593.2373663574219,456.3441130517578,592.9512663574219Q456.0847530517578,592.6650663574219,455.83975305175784,592.3665663574219Q455.59475305175783,592.0679663574218,455.3646930517578,591.7577663574219Q455.1346330517578,591.4475663574219,454.9200730517578,591.1264663574219Q454.7055130517578,590.8053663574219,454.5069630517578,590.4741663574218Q454.3084230517578,590.1428663574219,454.12636305175783,589.8022663574219Q453.94431305175783,589.4616663574219,453.77919305175783,589.1125663574219Q453.6140730517578,588.7634663574219,453.4662830517578,588.4066663574218Q453.3184830517578,588.0498663574219,453.1883820517578,587.6861663574218Q453.0582750517578,587.3225663574219,452.9461680517578,586.9530663574219Q452.83406005175783,586.5834663574219,452.7402210517578,586.2088663574219Q452.6463830517578,585.8341663574219,452.5710390517578,585.4554663574219Q452.4956950517578,585.0766663574219,452.4390280517578,584.6946663574219Q452.3823610517578,584.3125663574219,452.3445069517578,583.9282663574219Q452.3066528517578,583.5439663574218,452.2877029517578,583.1581663574219Q452.2687530517578,582.7724663574219,452.2687530517578,582.3862663574218Q452.2687530517578,582.0000663574219,452.2877029517578,581.6143663574219Q452.3066528517578,581.2285663574219,452.3445069517578,580.8442663574219Q452.3823610517578,580.4599663574219,452.4390280517578,580.0778663574218Q452.4956950517578,579.6958663574219,452.5710390517578,579.3170663574218Q452.6463830517578,578.9383663574218,452.7402210517578,578.5636663574219Q452.83406005175783,578.1890663574219,452.9461680517578,577.8194663574219Q453.0582750517578,577.4499663574219,453.1883820517578,577.0862663574219Q453.3184830517578,576.7226663574219,453.4662830517578,576.3658863574219Q453.6140730517578,576.0090863574219,453.77919305175783,575.6599663574219Q453.94431305175783,575.3108463574218,454.12636305175783,574.9702563574219Q454.3084230517578,574.6296563574218,454.5069630517578,574.2983963574219Q454.7055130517578,573.9671463574218,454.9200730517578,573.6460363574218Q455.1346330517578,573.3249263574219,455.3646930517578,573.0147263574219Q455.59475305175783,572.7045263574219,455.83975305175784,572.4059863574219Q456.0847530517578,572.1074563574218,456.3441130517578,571.8212963574218Q456.6034630517578,571.5351463574219,456.8765530517578,571.2620663574219Q457.1496330517578,570.9889763574218,457.4357830517578,570.7296263574219Q457.7219430517578,570.4702663574219,458.0204730517578,570.2252663574219Q458.3190130517578,569.9802663574219,458.6292130517578,569.7502063574219Q458.9394130517578,569.5201463574218,459.2605230517578,569.3055863574219Q459.5816330517578,569.0910263574219,459.91288305175783,568.8924763574219Q460.2441430517578,568.6939363574219,460.5847430517578,568.5118763574219Q460.92533305175783,568.3298263574219,461.2744530517578,568.1647063574219Q461.62357305175783,567.9995863574219,461.9803730517578,567.8517963574219Q462.3371530517578,567.7039963574218,462.70075305175783,567.5738953574219Q463.0644530517578,567.4437883574219,463.43395305175784,567.3316813574219Q463.80355305175783,567.2195733574218,464.1781530517578,567.1257343574218Q464.55285305175784,567.0318963574218,464.9315530517578,566.9565523574219Q465.31035305175783,566.8812083574219,465.69235305175783,566.8245413574218Q466.0744530517578,566.7678743574219,466.4587530517578,566.7300202574219Q466.8430530517578,566.6921661574219,467.2288530517578,566.6732162574219Q467.6145530517578,566.6542663574219,468.0007530517578,566.6542663574219Q468.3869530517578,566.6542663574219,468.7726530517578,566.6732162574219Q469.1584530517578,566.6921661574219,469.5427530517578,566.7300202574219Q469.9270530517578,566.7678743574219,470.3091530517578,566.8245413574218Q470.6911530517578,566.8812083574219,471.0699530517578,566.9565523574219Q471.4486530517578,567.0318963574218,471.8233530517578,567.1257343574218Q472.1979530517578,567.2195733574218,472.56755305175784,567.3316813574219Q472.9370530517578,567.4437883574219,473.3006530517578,567.5738953574219Q473.6643530517578,567.7039963574218,474.02115305175784,567.8517963574219Q474.3779530517578,567.9995863574219,474.7270530517578,568.1647063574219Q475.07615305175784,568.3298263574219,475.41675305175784,568.5118763574219Q475.75735305175783,568.6939363574219,476.08865305175783,568.8924763574219Q476.4198530517578,569.0910263574219,476.7409530517578,569.3055863574219Q477.0620530517578,569.5201463574218,477.3722530517578,569.7502063574219Q477.6824530517578,569.9802663574219,477.98105305175784,570.2252663574219Q478.27955305175783,570.4702663574219,478.56575305175784,570.7296263574219Q478.8518530517578,570.9889763574218,479.1249530517578,571.2620663574219Q479.3980530517578,571.5351463574219,479.6573530517578,571.8212963574218Q479.91675305175784,572.1074563574218,480.16175305175784,572.4059863574219Q480.4067530517578,572.7045263574219,480.63685305175784,573.0147263574219Q480.8668530517578,573.3249263574219,481.0814530517578,573.6460363574218Q481.2959530517578,573.9671463574218,481.4945530517578,574.2983963574219Q481.69305305175783,574.6296563574218,481.8751530517578,574.9702563574219Q482.05715305175784,575.3108463574218,482.2223530517578,575.6599663574219Q482.3874530517578,576.0090863574219,482.5352530517578,576.3658863574219Q482.68305305175784,576.7226663574219,482.8131530517578,577.0862663574219Q482.94325305175784,577.4499663574219,483.05535305175783,577.8194663574219Q483.16745305175783,578.1890663574219,483.2612530517578,578.5636663574219Q483.35515305175784,578.9383663574218,483.4304530517578,579.3170663574218Q483.5058530517578,579.6958663574219,483.5624530517578,580.0778663574218Q483.6191530517578,580.4599663574219,483.6569530517578,580.8442663574219Q483.69485305175783,581.2285663574219,483.71385305175784,581.6143663574219Q483.7327530517578,582.0000663574219,483.7327530517578,582.3862663574218Z" fill="#1C1D1C" fill-opacity="1"/></g><g><path d="M555.7327530517578,582.3862663574218Q555.7327530517578,582.7724663574219,555.7138530517578,583.1581663574219Q555.6948530517578,583.5439663574218,555.6569530517578,583.9282663574219Q555.6191530517578,584.3125663574219,555.5624530517578,584.6946663574219Q555.5058530517579,585.0766663574219,555.4304530517578,585.4554663574219Q555.3551530517578,585.8341663574219,555.2612530517578,586.2088663574219Q555.1674530517578,586.5834663574219,555.0553530517578,586.9530663574219Q554.9432530517578,587.3225663574219,554.8131530517578,587.6861663574218Q554.6830530517578,588.0498663574219,554.5352530517578,588.4066663574218Q554.3874530517578,588.7634663574219,554.2223530517579,589.1125663574219Q554.0571530517578,589.4616663574219,553.8751530517578,589.8022663574219Q553.6930530517578,590.1428663574219,553.4945530517579,590.4741663574218Q553.2959530517578,590.8053663574219,553.0814530517578,591.1264663574219Q552.8668530517579,591.4475663574219,552.6368530517578,591.7577663574219Q552.4067530517578,592.0679663574218,552.1617530517578,592.3665663574219Q551.9167530517578,592.6650663574219,551.6573530517578,592.9512663574219Q551.3980530517579,593.2373663574219,551.1249530517578,593.5104663574218Q550.8518530517579,593.7835663574219,550.5657530517578,594.0428663574219Q550.2795530517578,594.3022663574219,549.9810530517578,594.5472663574219Q549.6824530517578,594.7922663574219,549.3722530517579,595.0223663574219Q549.0620530517579,595.2523663574219,548.7409530517579,595.4669663574218Q548.4198530517579,595.6814663574219,548.0886530517578,595.8800663574219Q547.7573530517578,596.0785663574219,547.4167530517578,596.2606663574219Q547.0761530517578,596.4426663574219,546.7270530517578,596.6078663574219Q546.3779530517578,596.7729663574219,546.0211530517578,596.9207663574218Q545.6643530517579,597.0685663574219,545.3006530517578,597.1986663574219Q544.9370530517579,597.3287663574218,544.5675530517578,597.4408663574219Q544.1979530517578,597.5529663574218,543.8233530517579,597.6467663574218Q543.4486530517578,597.7406663574219,543.0699530517578,597.8159663574219Q542.6911530517579,597.8913663574219,542.3091530517578,597.9479663574218Q541.9270530517579,598.0046663574219,541.5427530517578,598.0424663574219Q541.1584530517578,598.0803663574219,540.7726530517579,598.0993663574219Q540.3869530517578,598.1182663574218,540.0007530517578,598.1182663574218Q539.6145530517579,598.1182663574218,539.2288530517578,598.0993663574219Q538.8430530517578,598.0803663574219,538.4587530517579,598.0424663574219Q538.0744530517578,598.0046663574219,537.6923530517578,597.9479663574218Q537.3103530517578,597.8913663574219,536.9315530517578,597.8159663574219Q536.5528530517578,597.7406663574219,536.1781530517578,597.6467663574218Q535.8035530517578,597.5529663574218,535.4339530517578,597.4408663574219Q535.0644530517578,597.3287663574218,534.7007530517578,597.1986663574219Q534.3371530517578,597.0685663574219,533.9803730517579,596.9207663574218Q533.6235730517578,596.7729663574219,533.2744530517579,596.6078663574219Q532.9253330517578,596.4426663574219,532.5847430517579,596.2606663574219Q532.2441430517578,596.0785663574219,531.9128830517578,595.8800663574219Q531.5816330517578,595.6814663574219,531.2605230517578,595.4669663574218Q530.9394130517578,595.2523663574219,530.6292130517578,595.0223663574219Q530.3190130517578,594.7922663574219,530.0204730517578,594.5472663574219Q529.7219430517578,594.3022663574219,529.4357830517578,594.0428663574219Q529.1496330517579,593.7835663574219,528.8765530517578,593.5104663574218Q528.6034630517578,593.2373663574219,528.3441130517579,592.9512663574219Q528.0847530517578,592.6650663574219,527.8397530517578,592.3665663574219Q527.5947530517578,592.0679663574218,527.3646930517579,591.7577663574219Q527.1346330517578,591.4475663574219,526.9200730517579,591.1264663574219Q526.7055130517579,590.8053663574219,526.5069630517578,590.4741663574218Q526.3084230517578,590.1428663574219,526.1263630517578,589.8022663574219Q525.9443130517578,589.4616663574219,525.7791930517578,589.1125663574219Q525.6140730517578,588.7634663574219,525.4662830517578,588.4066663574218Q525.3184830517578,588.0498663574219,525.1883820517578,587.6861663574218Q525.0582750517578,587.3225663574219,524.9461680517578,586.9530663574219Q524.8340600517578,586.5834663574219,524.7402210517578,586.2088663574219Q524.6463830517578,585.8341663574219,524.5710390517578,585.4554663574219Q524.4956950517578,585.0766663574219,524.4390280517578,584.6946663574219Q524.3823610517578,584.3125663574219,524.3445069517578,583.9282663574219Q524.3066528517578,583.5439663574218,524.2877029517579,583.1581663574219Q524.2687530517578,582.7724663574219,524.2687530517578,582.3862663574218Q524.2687530517578,582.0000663574219,524.2877029517579,581.6143663574219Q524.3066528517578,581.2285663574219,524.3445069517578,580.8442663574219Q524.3823610517578,580.4599663574219,524.4390280517578,580.0778663574218Q524.4956950517578,579.6958663574219,524.5710390517578,579.3170663574218Q524.6463830517578,578.9383663574218,524.7402210517578,578.5636663574219Q524.8340600517578,578.1890663574219,524.9461680517578,577.8194663574219Q525.0582750517578,577.4499663574219,525.1883820517578,577.0862663574219Q525.3184830517578,576.7226663574219,525.4662830517578,576.3658863574219Q525.6140730517578,576.0090863574219,525.7791930517578,575.6599663574219Q525.9443130517578,575.3108463574218,526.1263630517578,574.9702563574219Q526.3084230517578,574.6296563574218,526.5069630517578,574.2983963574219Q526.7055130517579,573.9671463574218,526.9200730517579,573.6460363574218Q527.1346330517578,573.3249263574219,527.3646930517579,573.0147263574219Q527.5947530517578,572.7045263574219,527.8397530517578,572.4059863574219Q528.0847530517578,572.1074563574218,528.3441130517579,571.8212963574218Q528.6034630517578,571.5351463574219,528.8765530517578,571.2620663574219Q529.1496330517579,570.9889763574218,529.4357830517578,570.7296263574219Q529.7219430517578,570.4702663574219,530.0204730517578,570.2252663574219Q530.3190130517578,569.9802663574219,530.6292130517578,569.7502063574219Q530.9394130517578,569.5201463574218,531.2605230517578,569.3055863574219Q531.5816330517578,569.0910263574219,531.9128830517578,568.8924763574219Q532.2441430517578,568.6939363574219,532.5847430517579,568.5118763574219Q532.9253330517578,568.3298263574219,533.2744530517579,568.1647063574219Q533.6235730517578,567.9995863574219,533.9803730517579,567.8517963574219Q534.3371530517578,567.7039963574218,534.7007530517578,567.5738953574219Q535.0644530517578,567.4437883574219,535.4339530517578,567.3316813574219Q535.8035530517578,567.2195733574218,536.1781530517578,567.1257343574218Q536.5528530517578,567.0318963574218,536.9315530517578,566.9565523574219Q537.3103530517578,566.8812083574219,537.6923530517578,566.8245413574218Q538.0744530517578,566.7678743574219,538.4587530517579,566.7300202574219Q538.8430530517578,566.6921661574219,539.2288530517578,566.6732162574219Q539.6145530517579,566.6542663574219,540.0007530517578,566.6542663574219Q540.3869530517578,566.6542663574219,540.7726530517579,566.6732162574219Q541.1584530517578,566.6921661574219,541.5427530517578,566.7300202574219Q541.9270530517579,566.7678743574219,542.3091530517578,566.8245413574218Q542.6911530517579,566.8812083574219,543.0699530517578,566.9565523574219Q543.4486530517578,567.0318963574218,543.8233530517579,567.1257343574218Q544.1979530517578,567.2195733574218,544.5675530517578,567.3316813574219Q544.9370530517579,567.4437883574219,545.3006530517578,567.5738953574219Q545.6643530517579,567.7039963574218,546.0211530517578,567.8517963574219Q546.3779530517578,567.9995863574219,546.7270530517578,568.1647063574219Q547.0761530517578,568.3298263574219,547.4167530517578,568.5118763574219Q547.7573530517578,568.6939363574219,548.0886530517578,568.8924763574219Q548.4198530517579,569.0910263574219,548.7409530517579,569.3055863574219Q549.0620530517579,569.5201463574218,549.3722530517579,569.7502063574219Q549.6824530517578,569.9802663574219,549.9810530517578,570.2252663574219Q550.2795530517578,570.4702663574219,550.5657530517578,570.7296263574219Q550.8518530517579,570.9889763574218,551.1249530517578,571.2620663574219Q551.3980530517579,571.5351463574219,551.6573530517578,571.8212963574218Q551.9167530517578,572.1074563574218,552.1617530517578,572.4059863574219Q552.4067530517578,572.7045263574219,552.6368530517578,573.0147263574219Q552.8668530517579,573.3249263574219,553.0814530517578,573.6460363574218Q553.2959530517578,573.9671463574218,553.4945530517579,574.2983963574219Q553.6930530517578,574.6296563574218,553.8751530517578,574.9702563574219Q554.0571530517578,575.3108463574218,554.2223530517579,575.6599663574219Q554.3874530517578,576.0090863574219,554.5352530517578,576.3658863574219Q554.6830530517578,576.7226663574219,554.8131530517578,577.0862663574219Q554.9432530517578,577.4499663574219,555.0553530517578,577.8194663574219Q555.1674530517578,578.1890663574219,555.2612530517578,578.5636663574219Q555.3551530517578,578.9383663574218,555.4304530517578,579.3170663574218Q555.5058530517579,579.6958663574219,555.5624530517578,580.0778663574218Q555.6191530517578,580.4599663574219,555.6569530517578,580.8442663574219Q555.6948530517578,581.2285663574219,555.7138530517578,581.6143663574219Q555.7327530517578,582.0000663574219,555.7327530517578,582.3862663574218Z" fill="#1C1D1C" fill-opacity="1"/></g><g><path d="M493.8585968017578,598.9171752929688Q493.8585968017578,602.5541152929687,496.40739680175784,604.8309752929688Q499.1232968017578,607.2571752929688,503.39859680175783,607.2571752929688Q507.6739968017578,607.2571752929688,510.3900968017578,604.8309752929688Q512.9390968017578,602.5539952929687,512.9390968017578,598.9171752929688C512.9390968017578,595.6034652929687,515.6253968017578,592.9171752929688,518.9390968017578,592.9171752929688C522.2527968017578,592.9171752929688,524.9390968017578,595.6034652929687,524.9390968017578,598.9171752929688Q524.9390968017578,603.3543752929687,523.1887968017578,607.2417752929688Q521.4966968017578,611.0001752929687,518.3843968017578,613.7802752929688Q515.3966968017578,616.4491752929688,511.49209680175784,617.8643752929687Q507.6492968017578,619.2571752929688,503.39859680175783,619.2571752929688Q499.14789680175784,619.2571752929688,495.3051968017578,617.8643752929687Q491.4005268017578,616.4490752929687,488.4129068017578,613.7801752929688Q485.30074680175784,611.0000752929687,483.6086968017578,607.2416752929687Q481.8585968017578,603.3543752929687,481.8585968017578,598.9171752929688C481.8585968017578,595.6034652929687,484.5448868017578,592.9171752929688,487.8585968017578,592.9171752929688C491.1723068017578,592.9171752929688,493.8585968017578,595.6034652929687,493.8585968017578,598.9171752929688Z" fill-rule="evenodd" fill="#FFF400" fill-opacity="1"/></g></g></g></svg>