<svg xmlns="http://www.w3.org/2000/svg" xmlns:xlink="http://www.w3.org/1999/xlink" fill="none" version="1.1" width="400" height="460.8699951171875" viewBox="0 0 400 460.8699951171875"><g><g><path d="M199.8,302.42999786376953L0,187.06999786376952L0.16,114.48999786376953L200.2,229.97999786376954" fill="#6930D6" fill-opacity="1"/></g><g><path d="M337.05999755859375,150.82999786376953L337.05999755859375,382.03999786376954L399.99999755859375,345.46999786376955L399.99999755859375,114.48999786376953" fill="#5C14C4" fill-opacity="1"/></g><g><path d="M199.75,302.42999786376953L399.55,187.06999786376952L399.39,114.48999786376953L200.199997,229.97999786376954L199.75,302.42999786376953Z" fill="#5C14C4" fill-opacity="1"/></g><g><path d="M200.80998046875,72.42L88.65998046875,137.21L25.72998046875,100.87L200.27998046875,0.0287398L200.27998046875,0L200.30498046875,0.0144307L200.32998046875,0L200.32998046875,0.0289723L374.87998046875,100.87L311.93998046875,137.21L200.80998046875,72.42Z" fill-rule="evenodd" fill="#8265F9" fill-opacity="1"/></g><g><path d="M200.1699981689453,460.8699938964844L86.16999816894531,395.1499938964844L86.91000316894531,322.8999938964844L200.15999816894532,388.1899938964844" fill="#6930D6" fill-opacity="1"/></g><g><path d="M200.19999696210937,460.8699938964844L314.2000036621094,395.1499938964844L313.4500036621094,322.8999938964844L200.16000366210938,388.1899938964844L200.19999696210937,460.8699938964844Z" fill="#5C14C4" fill-opacity="1"/></g><g><path d="M62.94,150.82999786376953L62.94,382.03999786376954L0,345.46999786376955L0,114.48999786376953" fill="#6930D6" fill-opacity="1"/></g></g></svg>