<svg xmlns="http://www.w3.org/2000/svg" xmlns:xlink="http://www.w3.org/1999/xlink" fill="none" version="1.1" width="1492" height="1492" viewBox="0 0 1492 1492"><defs><linearGradient x1="0.39837825298309326" y1="0.40018850564956665" x2="0.5880385637283325" y2="0.593013346195221" id="master_svg0_14_05219"><stop offset="7.857143133878708%" stop-color="#F1C373" stop-opacity="1"/><stop offset="100%" stop-color="#F9A64E" stop-opacity="1"/></linearGradient><linearGradient x1="0.39837825298309326" y1="0.40018850564956665" x2="0.5880385637283325" y2="0.593013346195221" id="master_svg1_14_05595"><stop offset="0%" stop-color="#5C00FF" stop-opacity="1"/><stop offset="100%" stop-color="#8A8CFF" stop-opacity="1"/></linearGradient><linearGradient x1="0.7664018273353577" y1="0.21837250888347626" x2="0.18304748833179474" y2="0.8071863055229187" id="master_svg2_14_9542"><stop offset="0%" stop-color="#AB43F1" stop-opacity="1"/><stop offset="100%" stop-color="#6D1AFF" stop-opacity="1"/></linearGradient><linearGradient x1="0.11482708156108856" y1="0.9556511044502258" x2="0.7286956310272217" y2="0.2565014958381653" id="master_svg3_14_00094"><stop offset="3.4246575087308884%" stop-color="#FFFAE3" stop-opacity="1"/><stop offset="17.85714328289032%" stop-color="#FFF2AF" stop-opacity="1"/><stop offset="100%" stop-color="#FFB200" stop-opacity="1"/></linearGradient></defs><g><g><g><path d="M1243.679053955078,993.154998986721C1177.828053955078,993.154998986721,1114.677053955078,966.9929989867211,1068.099053955078,920.424998986721C1021.5360539550782,873.856998986721,995.3720539550782,810.696998986721,995.3720539550782,744.8399989867211C995.3450539550781,679.000998986721,969.1670539550781,615.8689989867211,922.6040539550781,569.321998986721C876.0400539550781,522.7769989867211,812.9020539550781,496.62999898672103,747.0650539550782,496.62999898672103C697.9510539550781,496.62999898672103,649.9360539550781,482.06699898672105,609.1100539550781,454.78299898672105C568.2705539550782,427.495998986721,536.4506539550781,388.714998986721,517.6515539550782,343.34099898672105C498.8525349550781,297.966998986721,493.9425539550781,248.03999898672103,503.5183039550781,199.87099898672105C513.1077539550781,151.70199898672104,536.7488539550782,107.45799898672104,571.4714539550781,72.72999898672104C606.2080539550782,38.00249898672104,650.4520539550781,14.352798986721039,698.6160539550781,4.771418986721039C746.7800539550781,-4.809851013278961,796.7070539550782,0.10755898672103882,842.0910539550781,18.90189898672104C887.4610539550781,37.69629898672104,926.2390539550781,69.52359898672104,953.5290539550781,110.35899898672103C980.8050539550782,151.19399898672103,995.3720539550782,199.20399898672105,995.3720539550782,248.31499898672104C995.3990539550781,314.163998986721,1021.5770539550781,377.30799898672103,1068.1270539550783,423.86999898672104C1114.6900539550782,470.43199898672106,1177.842053955078,496.601998986721,1243.679053955078,496.62999898672103C1309.543053955078,496.62999898672103,1372.695053955078,522.7919989867211,1419.2720539550783,569.359998986721C1465.8360539550781,615.927998986721,1492.000053955078,679.0889989867211,1492.000053955078,744.9459989867211C1492.000053955078,810.802998986721,1465.8360539550781,873.961998986721,1419.2720539550783,920.529998986721C1372.695053955078,967.0989989867211,1309.543053955078,993.259998986721,1243.679053955078,993.259998986721L1243.679053955078,993.154998986721Z" fill="url(#master_svg0_14_05219)" fill-opacity="1"/></g><g><path d="M744.93,1490.4896557617187C679.079,1490.4896557617187,615.928,1464.3276557617187,569.35,1417.7596557617187C522.787,1371.1916557617187,496.623,1308.0316557617189,496.623,1242.174655761719C496.596,1176.3356557617187,470.418,1113.203655761719,423.855,1066.6566557617189C377.291,1020.1116557617188,314.153,993.9646557617187,248.316,993.9646557617187C199.202,993.9646557617187,151.187,979.4016557617188,110.361,952.1176557617188C69.5215,924.8306557617187,37.7016,886.0496557617187,18.9025,840.6756557617188C0.103481,795.3016557617187,-4.8065,745.3746557617187,4.76925,697.2056557617187C14.3587,649.0366557617187,37.9998,604.7926557617187,72.7224,570.0646557617188C107.459,535.3371557617188,151.703,511.68745576171875,199.867,502.1060757617187C248.031,492.52480576171877,297.958,497.4422157617187,343.342,516.2365557617187C388.712,535.0309557617187,427.49,566.8582557617187,454.78,607.6936557617188C482.056,648.5286557617187,496.623,696.5386557617187,496.623,745.6496557617188C496.65,811.4986557617187,522.828,874.6426557617187,569.378,921.2046557617188C615.941,967.7666557617188,679.093,993.9366557617187,744.93,993.9646557617187C810.794,993.9646557617187,873.946,1020.1266557617188,920.523,1066.6946557617189C967.087,1113.2626557617186,993.251,1176.4236557617187,993.251,1242.2806557617187C993.251,1308.1376557617186,967.087,1371.2966557617187,920.523,1417.8646557617187C873.946,1464.433655761719,810.794,1490.5946557617187,744.93,1490.5946557617187L744.93,1490.4896557617187Z" fill="url(#master_svg1_14_05595)" fill-opacity="1"/></g><g><path d="M0,744.8399992251396C0.0272156,679.0009992251396,26.2047,615.8689992251396,72.7683,569.3219992251396C119.332,522.7769992251397,182.47,496.6299992251396,248.307,496.6299992251396C314.172,496.6299992251396,377.323,470.4689992251396,423.9,423.9009992251396C470.464,377.33299922513964,496.628,314.17199922513964,496.628,248.31499922513962C496.628,199.20399922513963,511.182,151.1939992251396,538.471,110.35899922513961C565.761,69.52359922513962,604.539,37.69629922513962,649.909,18.90189922513962C695.279,0.10755622513961792,745.206,-4.809860774860382,793.384,4.771409225139618C841.548,14.352799225139618,885.792,38.002499225139616,920.515,72.72999922513962C955.251,107.45799922513962,978.892,151.70199922513962,988.482,199.87099922513963C998.057,248.0399992251396,993.134,297.9669992251396,974.349,343.3409992251396C955.549,388.7149992251396,923.729,427.4959992251396,882.89,454.78299922513963C842.05,482.0669992251396,794.049,496.6299992251396,744.935,496.6299992251396C679.098,496.6299992251396,615.96,522.7769992251397,569.383,569.3219992251396C522.819,615.8689992251396,496.655,679.0009992251396,496.628,744.8399992251396C496.628,810.6969992251396,470.464,873.8569992251396,423.9,920.4249992251396C377.323,966.9929992251397,314.172,993.1549992251396,248.307,993.1549992251396C182.456,993.1549992251396,119.291,966.9929992251397,72.7275,920.4249992251396C26.164,873.8569992251396,0,810.6969992251396,0,744.8399992251396Z" fill="url(#master_svg2_14_9542)" fill-opacity="1"/></g><g><path d="M496.6280822753906,1243.6903723144533C496.65519437539064,1177.8503723144531,522.8326822753907,1114.718372314453,569.3961822753906,1068.173372314453C615.9600822753906,1021.6283723144531,679.0980822753907,995.4803723144531,744.9350822753906,995.4803723144531C810.8000822753907,995.4803723144531,873.9510822753906,969.3183723144532,920.5280822753906,922.7503723144531C967.0920822753906,876.1823723144531,993.2560822753906,813.0233723144531,993.2560822753906,747.1663723144532C993.2560822753906,698.0533723144531,1007.8230822753906,650.0443723144531,1035.0990822753906,609.2083723144531C1062.3890822753906,568.3736723144532,1101.1670822753906,536.5464723144531,1146.5370822753907,517.7512723144531C1191.9210822753907,498.9574763144531,1241.8480822753907,494.0406523144531,1290.0120822753906,503.6220623144531C1338.1760822753906,513.2020723144532,1382.4200822753905,536.8529723144532,1417.1430822753905,571.5801723144531C1451.8790822753906,606.3073723144531,1475.5200822753907,650.5533723144531,1485.1100822753906,698.7203723144531C1494.6860822753906,746.8893723144531,1489.7760822753908,796.8173723144531,1470.9770822753908,842.1913723144531C1452.1770822753906,887.565372314453,1420.3570822753907,926.3463723144531,1379.5180822753905,953.632372314453C1338.6910822753907,980.9163723144532,1290.6770822753906,995.4803723144531,1241.5630822753906,995.4803723144531C1175.7260822753906,995.4803723144531,1112.5880822753907,1021.6283723144531,1066.0240822753906,1068.173372314453C1019.4610822753906,1114.718372314453,993.2830822753906,1177.8503723144531,993.2560822753906,1243.6903723144533C993.2560822753906,1309.5473723144532,967.0920822753906,1372.707372314453,920.5280822753906,1419.2713723144532C873.9510822753906,1465.8493723144531,810.8000822753907,1492.0003723144532,744.9350822753906,1492.0003723144532C679.0840822753906,1492.0003723144532,615.9330822753907,1465.8493723144531,569.3555822753906,1419.2713723144532C522.7920822753906,1372.707372314453,496.6280822753906,1309.5473723144532,496.6280822753906,1243.6903723144533Z" fill="url(#master_svg3_14_00094)" fill-opacity="1"/></g></g></g></svg>