<svg xmlns="http://www.w3.org/2000/svg" xmlns:xlink="http://www.w3.org/1999/xlink" fill="none" version="1.1" width="2134" height="2134" viewBox="0 0 2134 2134"><defs><linearGradient x1="0.39837825298309326" y1="0.40018850564956665" x2="0.5880385637283325" y2="0.593013346195221" id="master_svg0_14_05219"><stop offset="7.857143133878708%" stop-color="#F1C373" stop-opacity="1"/><stop offset="100%" stop-color="#F9A64E" stop-opacity="1"/></linearGradient><linearGradient x1="0.39837825298309326" y1="0.40018850564956665" x2="0.5880385637283325" y2="0.593013346195221" id="master_svg1_14_05595"><stop offset="0%" stop-color="#5C00FF" stop-opacity="1"/><stop offset="100%" stop-color="#8A8CFF" stop-opacity="1"/></linearGradient><linearGradient x1="0.7664018273353577" y1="0.21837250888347626" x2="0.18304748833179474" y2="0.8071863055229187" id="master_svg2_14_9542"><stop offset="0%" stop-color="#AB43F1" stop-opacity="1"/><stop offset="100%" stop-color="#6D1AFF" stop-opacity="1"/></linearGradient><linearGradient x1="0.11482708156108856" y1="0.9556511044502258" x2="0.7286956310272217" y2="0.2565014958381653" id="master_svg3_14_00094"><stop offset="3.4246575087308884%" stop-color="#FFFAE3" stop-opacity="1"/><stop offset="17.85714328289032%" stop-color="#FFF2AF" stop-opacity="1"/><stop offset="100%" stop-color="#FFB200" stop-opacity="1"/></linearGradient></defs><g><g><rect x="0" y="0" width="2134" height="2134" rx="0" fill="#FFFFFF" fill-opacity="1"/></g><g><g><path d="M1564.679053955078,1314.154998986721C1498.828053955078,1314.154998986721,1435.677053955078,1287.992998986721,1389.099053955078,1241.424998986721C1342.5360539550782,1194.856998986721,1316.3720539550782,1131.6969989867212,1316.3720539550782,1065.8399989867212C1316.3450539550781,1000.000998986721,1290.1670539550782,936.8689989867211,1243.6040539550781,890.321998986721C1197.040053955078,843.7769989867211,1133.9020539550781,817.629998986721,1068.0650539550782,817.629998986721C1018.9510539550781,817.629998986721,970.9360539550781,803.066998986721,930.1100539550781,775.782998986721C889.2705539550782,748.495998986721,857.4506539550781,709.714998986721,838.6515539550782,664.340998986721C819.8525349550781,618.966998986721,814.9425539550781,569.039998986721,824.5183039550782,520.870998986721C834.1077539550781,472.70199898672104,857.7488539550782,428.457998986721,892.4714539550781,393.72999898672106C927.2080539550782,359.00249898672104,971.4520539550781,335.35279898672104,1019.6160539550781,325.771418986721C1067.780053955078,316.19014898672106,1117.7070539550782,321.107558986721,1163.0910539550782,339.90189898672105C1208.4610539550781,358.69629898672105,1247.2390539550781,390.523598986721,1274.529053955078,431.358998986721C1301.8050539550782,472.193998986721,1316.3720539550782,520.203998986721,1316.3720539550782,569.3149989867211C1316.3990539550782,635.163998986721,1342.577053955078,698.307998986721,1389.1270539550783,744.869998986721C1435.6900539550782,791.431998986721,1498.842053955078,817.601998986721,1564.679053955078,817.629998986721C1630.543053955078,817.629998986721,1693.695053955078,843.7919989867211,1740.2720539550783,890.359998986721C1786.8360539550781,936.927998986721,1813.000053955078,1000.0889989867211,1813.000053955078,1065.945998986721C1813.000053955078,1131.802998986721,1786.8360539550781,1194.961998986721,1740.2720539550783,1241.529998986721C1693.695053955078,1288.0989989867212,1630.543053955078,1314.259998986721,1564.679053955078,1314.259998986721L1564.679053955078,1314.154998986721Z" fill="url(#master_svg0_14_05219)" fill-opacity="1"/></g><g><path d="M1065.9299999999998,1811.4896557617187C1000.079,1811.4896557617187,936.928,1785.3276557617187,890.35,1738.7596557617187C843.787,1692.1916557617187,817.623,1629.0316557617189,817.623,1563.174655761719C817.596,1497.3356557617187,791.418,1434.203655761719,744.855,1387.6566557617189C698.2909999999999,1341.1116557617188,635.153,1314.9646557617189,569.316,1314.9646557617189C520.202,1314.9646557617189,472.187,1300.4016557617188,431.361,1273.1176557617187C390.5215,1245.8306557617188,358.7016,1207.0496557617187,339.9025,1161.6756557617186C321.103481,1116.3016557617188,316.1935,1066.3746557617187,325.76925,1018.2056557617187C335.3587,970.0366557617187,358.9998,925.7926557617187,393.7224,891.0646557617188C428.459,856.3371557617188,472.703,832.6874557617188,520.867,823.1060757617188C569.031,813.5248057617188,618.9580000000001,818.4422157617188,664.342,837.2365557617187C709.712,856.0309557617187,748.49,887.8582557617187,775.78,928.6936557617188C803.056,969.5286557617187,817.623,1017.5386557617187,817.623,1066.6496557617188C817.65,1132.4986557617187,843.828,1195.6426557617187,890.378,1242.2046557617186C936.941,1288.7666557617188,1000.093,1314.9366557617186,1065.9299999999998,1314.9646557617189C1131.7939999999999,1314.9646557617189,1194.946,1341.1266557617187,1241.5230000000001,1387.6946557617189C1288.087,1434.2626557617186,1314.251,1497.4236557617187,1314.251,1563.2806557617187C1314.251,1629.1376557617186,1288.087,1692.2966557617187,1241.5230000000001,1738.8646557617187C1194.946,1785.433655761719,1131.7939999999999,1811.5946557617187,1065.9299999999998,1811.5946557617187L1065.9299999999998,1811.4896557617187Z" fill="url(#master_svg1_14_05595)" fill-opacity="1"/></g><g><path d="M321,1065.8399992251398C321.0272156,1000.0009992251396,347.2047,936.8689992251396,393.7683,890.3219992251396C440.332,843.7769992251397,503.47,817.6299992251396,569.307,817.6299992251396C635.172,817.6299992251396,698.323,791.4689992251397,744.9,744.9009992251397C791.4639999999999,698.3329992251397,817.6279999999999,635.1719992251396,817.6279999999999,569.3149992251397C817.6279999999999,520.2039992251396,832.182,472.1939992251396,859.471,431.3589992251396C886.761,390.5235992251396,925.539,358.6962992251396,970.909,339.90189922513963C1016.279,321.1075562251396,1066.2060000000001,316.1901392251396,1114.384,325.7714092251396C1162.548,335.3527992251396,1206.792,359.0024992251396,1241.5149999999999,393.72999922513964C1276.251,428.4579992251396,1299.892,472.7019992251396,1309.482,520.8709992251396C1319.057,569.0399992251396,1314.134,618.9669992251396,1295.3490000000002,664.3409992251396C1276.549,709.7149992251395,1244.729,748.4959992251396,1203.8899999999999,775.7829992251396C1163.05,803.0669992251396,1115.049,817.6299992251396,1065.935,817.6299992251396C1000.098,817.6299992251396,936.96,843.7769992251397,890.383,890.3219992251396C843.819,936.8689992251396,817.655,1000.0009992251396,817.6279999999999,1065.8399992251398C817.6279999999999,1131.6969992251397,791.4639999999999,1194.8569992251396,744.9,1241.4249992251396C698.323,1287.9929992251396,635.172,1314.1549992251396,569.307,1314.1549992251396C503.456,1314.1549992251396,440.291,1287.9929992251396,393.7275,1241.4249992251396C347.164,1194.8569992251396,321,1131.6969992251397,321,1065.8399992251398Z" fill="url(#master_svg2_14_9542)" fill-opacity="1"/></g><g><path d="M817.6280822753906,1564.6903723144533C817.6551943753906,1498.8503723144531,843.8326822753907,1435.718372314453,890.3961822753906,1389.173372314453C936.9600822753906,1342.6283723144531,1000.0980822753907,1316.4803723144532,1065.9350822753906,1316.4803723144532C1131.8000822753907,1316.4803723144532,1194.9510822753905,1290.3183723144532,1241.5280822753907,1243.7503723144532C1288.0920822753906,1197.182372314453,1314.2560822753906,1134.0233723144531,1314.2560822753906,1068.1663723144532C1314.2560822753906,1019.0533723144531,1328.8230822753906,971.0443723144531,1356.0990822753906,930.2083723144531C1383.3890822753906,889.3736723144532,1422.1670822753906,857.5464723144531,1467.5370822753907,838.7512723144531C1512.9210822753907,819.9574763144532,1562.8480822753907,815.0406523144532,1611.0120822753906,824.6220623144532C1659.1760822753906,834.2020723144532,1703.4200822753905,857.8529723144532,1738.1430822753905,892.5801723144531C1772.8790822753906,927.3073723144531,1796.5200822753907,971.5533723144531,1806.1100822753906,1019.7203723144531C1815.6860822753906,1067.889372314453,1810.7760822753908,1117.8173723144532,1791.9770822753908,1163.191372314453C1773.1770822753906,1208.565372314453,1741.3570822753907,1247.3463723144532,1700.5180822753905,1274.632372314453C1659.6910822753907,1301.9163723144532,1611.6770822753906,1316.4803723144532,1562.5630822753906,1316.4803723144532C1496.7260822753906,1316.4803723144532,1433.5880822753907,1342.6283723144531,1387.0240822753906,1389.173372314453C1340.4610822753907,1435.718372314453,1314.2830822753906,1498.8503723144531,1314.2560822753906,1564.6903723144533C1314.2560822753906,1630.5473723144532,1288.0920822753906,1693.707372314453,1241.5280822753907,1740.2713723144532C1194.9510822753905,1786.8493723144531,1131.8000822753907,1813.0003723144532,1065.9350822753906,1813.0003723144532C1000.0840822753906,1813.0003723144532,936.9330822753907,1786.8493723144531,890.3555822753906,1740.2713723144532C843.7920822753906,1693.707372314453,817.6280822753906,1630.5473723144532,817.6280822753906,1564.6903723144533Z" fill="url(#master_svg3_14_00094)" fill-opacity="1"/></g></g></g></svg>