<svg xmlns="http://www.w3.org/2000/svg" xmlns:xlink="http://www.w3.org/1999/xlink" fill="none" version="1.1" width="128" height="128" viewBox="0 0 128 128"><defs><mask id="master_svg0_40_2089" style="mask-type:alpha" maskUnits="objectBoundingBox"><g><g><rect x="29.4052734375" y="20.7567138671875" width="72.64865112304688" height="86.48648834228516" rx="0" fill="#000000" fill-opacity="1" style="mix-blend-mode:passthrough"/></g></g></mask></defs><g><g><g><g><path d="M0,34.594597C3.3939196e-15,15.488527,15.488527,0,34.594597,0L93.405411,0C112.51147,0,128,15.488527,128,34.594597L128,93.405411C128,112.51147,112.51147,128,93.405411,128L34.594597,128C15.488527,128,0,112.51147,0,93.405411L0,34.594597Z" fill="#FFFFFF" fill-opacity="1" style="mix-blend-mode:passthrough"/></g></g><g mask="url(#master_svg0_40_2089)"><g><g><g><g><path d="M92.83285175,41.2382718671875C91.63328175000001,25.8577914671875,69.44119675,22.0706292671875,30.23046875,20.7567138671875L30.23046875,29.954118767187502C56.395917749999995,30.804298867187498,82.78640375,33.0456838671875,83.91107575000001,42.397708867187504C85.26044075,53.2953528671875,65.46765475000001,65.9708138671875,31.65495015,72.8496018671875L31.65495015,80.26927986718749C64.04322775,73.8544048671875,94.40724975,59.6330798671875,92.83285175,41.2382718671875Z" fill="#FF8500" fill-opacity="1" style="mix-blend-mode:passthrough"/></g></g><g><g><path d="M101.9790264375,78.18251233789063C100.3295594375,59.555850337890625,66.7416614375,52.445260537890626,31.6544585375,47.730621337890625L31.6544585375,54.995797637890625C54.5211224375,58.396518337890626,92.0076564375,64.65692533789063,93.1321484375,78.95535633789062C93.28211543750001,80.96495833789062,92.6822514375,83.28366133789063,91.1078454375,85.13862233789062C86.5346184375,90.47155033789062,72.2897684375,96.34553933789063,30.2299739075,97.27285433789064L30.2299739075,107.24318733789062L29.4052734375,107.24318733789062L29.4052734375,107.32050733789063C67.4164314375,106.62498133789063,89.0835414375,101.60115433789062,97.7055514375,91.47618133789062C101.0043254375,87.61179333789062,102.4287564375,83.20634033789062,101.9790264375,78.18251233789063Z" fill="#7928FF" fill-opacity="1" style="mix-blend-mode:passthrough"/></g></g></g></g></g></g></g></svg>