<svg xmlns="http://www.w3.org/2000/svg" xmlns:xlink="http://www.w3.org/1999/xlink" fill="none" version="1.1" width="407.599609375" height="469.1396484375" viewBox="0 0 407.599609375 469.1396484375"><defs><linearGradient x1="0.9420535564422607" y1="0.10265527665615082" x2="0.198898047208786" y2="0.9424086213111877" id="master_svg0_2582_09131"><stop offset="0%" stop-color="#B6F9F4" stop-opacity="1"/><stop offset="100%" stop-color="#C8B0F6" stop-opacity="1"/></linearGradient><linearGradient x1="0.5" y1="0" x2="0.5" y2="1" id="master_svg1_2645_10478"><stop offset="0%" stop-color="#9BE0F3" stop-opacity="1"/><stop offset="100%" stop-color="#C8B0F6" stop-opacity="0"/></linearGradient><linearGradient x1="0.08583613485097885" y1="0.08512159436941147" x2="0.8856858015060425" y2="0.9289243221282959" id="master_svg2_2582_09142"><stop offset="0%" stop-color="#B7FAF4" stop-opacity="1"/><stop offset="99.99993443489075%" stop-color="#89A9F3" stop-opacity="1"/></linearGradient><linearGradient x1="0.5" y1="0" x2="0.5" y2="1" id="master_svg3_2645_10364"><stop offset="0%" stop-color="#6DA4E8" stop-opacity="1"/><stop offset="100%" stop-color="#B7FAF4" stop-opacity="0"/></linearGradient><linearGradient x1="1" y1="0.3365228474140167" x2="0" y2="0.32346075773239136" id="master_svg4_2582_09120"><stop offset="0%" stop-color="#89A9F3" stop-opacity="1"/><stop offset="100%" stop-color="#C8B0F6" stop-opacity="1"/></linearGradient><linearGradient x1="1" y1="0.7621908783912659" x2="0" y2="0.32937437295913696" id="master_svg5_2582_09117"><stop offset="0%" stop-color="#8997F3" stop-opacity="1"/><stop offset="100%" stop-color="#89A9F3" stop-opacity="0"/></linearGradient><linearGradient x1="0.5" y1="0" x2="0.5" y2="1" id="master_svg6_2582_09108"><stop offset="0%" stop-color="#C8B0F6" stop-opacity="1"/><stop offset="100%" stop-color="#89A9F3" stop-opacity="1"/></linearGradient><linearGradient x1="0.5" y1="0" x2="0.5" y2="1" id="master_svg7_2582_09108"><stop offset="0%" stop-color="#C8B0F6" stop-opacity="1"/><stop offset="100%" stop-color="#89A9F3" stop-opacity="1"/></linearGradient><linearGradient x1="0" y1="0" x2="0.5535823702812195" y2="0.8632746934890747" id="master_svg8_2534_15892"><stop offset="0%" stop-color="#B7FAF4" stop-opacity="1"/><stop offset="100%" stop-color="#89A9F3" stop-opacity="0.20000000298023224"/></linearGradient><linearGradient x1="0" y1="0" x2="1" y2="1" id="master_svg9_2582_09125"><stop offset="0%" stop-color="#C8B0F6" stop-opacity="0.5"/><stop offset="100%" stop-color="#B7FAF4" stop-opacity="1"/></linearGradient><linearGradient x1="0" y1="1" x2="1" y2="0" id="master_svga_2582_09128"><stop offset="0%" stop-color="#89A9F3" stop-opacity="1"/><stop offset="100%" stop-color="#B7FAF4" stop-opacity="0.800000011920929"/></linearGradient><linearGradient x1="1" y1="0" x2="0.3396160900592804" y2="0.8205094933509827" id="master_svgb_2534_15519"><stop offset="0%" stop-color="#89A9F3" stop-opacity="0.20000000298023224"/><stop offset="99.99996423721313%" stop-color="#C8B0F6" stop-opacity="1"/></linearGradient></defs><g><g><path d="M179.284,86.91907581176758L64.0844,153.54667581176759L64.0844,388.87867581176755L0,351.6486758117676L0,116.51987581176758L115.962,49.48567581176758L179.284,86.91907581176758Z" fill-rule="evenodd" fill="url(#master_svg0_2582_09131)" fill-opacity="1"/></g><g><path d="M0,116.52017211914062L0,351.64917211914064L64.0844,388.8791721191406L64.0844,153.54667211914062L0,116.52017211914062Z" fill="url(#master_svg1_2645_10478)" fill-opacity="1"/></g><g><path d="M203.8496251220703,0L407.4956251220703,117.539L343.4116251220703,154.565L139.6126251220703,36.874L203.8496251220703,0ZM343.5146251220703,287.618L343.4126251220703,154.566L407.4966251220703,117.54L407.5986251220703,251.506L343.5146251220703,287.618Z" fill-rule="evenodd" fill="url(#master_svg2_2582_09142)" fill-opacity="1"/></g><g><path d="M343.4131164550781,154.5655625L343.5148204550781,287.6170625L407.59921645507814,251.5060625L407.49751645507814,117.5390625L343.4131164550781,154.5655625Z" fill="url(#master_svg3_2645_10364)" fill-opacity="1"/></g><g><path d="M203.747375,469.13958203125003L87.734375,402.25758203124997L88.497283,328.66258203125L203.747375,395.13758203125L203.747375,469.13958203125003ZM203.75037500000002,469.13958203125003L407.396375,351.54968203125L407.599375,277.49658203125L203.75037500000002,395.13758203125L203.75037500000002,469.13958203125003Z" fill="url(#master_svg4_2582_09120)" fill-opacity="1"/></g><g><path d="M203.747375,469.139109375L87.734375,402.257409375L88.497283,328.662109375L203.747375,395.136909375L203.747375,469.139109375Z" fill="url(#master_svg5_2582_09117)" fill-opacity="1"/></g><g><path d="M203.75103269042967,208.0208282470703L203.75103269042967,278.4628282470703L136.5641326904297,238.9949282470703L203.75103269042967,208.0208282470703Z" fill="url(#master_svg6_2582_09108)" fill-opacity="1"/></g><g><path d="M270.98781525878906,238.9949282470703L203.75001525878906,208.0208282470703L203.75001525878906,278.4628282470703L270.98781525878906,238.9949282470703Z" fill="url(#master_svg7_2582_09108)" fill-opacity="1"/></g><g><path d="M203.75001525878906,208.01880012207033L203.75001525878906,125.47200012207031L270.98781525878906,238.99300012207033L203.75001525878906,278.46100012207035L203.75001525878906,208.0189001220703L203.75001525878906,208.01880012207033Z" fill-rule="evenodd" fill="url(#master_svg8_2534_15892)" fill-opacity="1"/></g><g><path d="M203.75103269042967,291.93939675292967L203.75103269042967,347.2248967529297L136.5641326904297,252.3697967529297L203.75103269042967,291.93939675292967Z" fill="url(#master_svg9_2582_09125)" fill-opacity="1"/></g><g><path d="M203.75001525878906,291.93939675292967L203.75001525878906,347.2248967529297L270.98781525878906,252.3697967529297L203.75001525878906,291.93939675292967Z" fill="url(#master_svga_2582_09128)" fill-opacity="1"/></g><g><path d="M203.75103269042967,208.01880012207033L203.75103269042967,125.47200012207031L136.5641326904297,238.99300012207033L203.75103269042967,278.46100012207035L203.75103269042967,208.0189001220703L203.75103269042967,208.01880012207033Z" fill-rule="evenodd" fill="url(#master_svgb_2534_15519)" fill-opacity="1"/></g></g></svg>