<svg xmlns="http://www.w3.org/2000/svg" xmlns:xlink="http://www.w3.org/1999/xlink" fill="none" version="1.1" width="80" height="80" viewBox="0 0 80 80"><defs><mask id="master_svg0_40_2115" style="mask-type:alpha" maskUnits="objectBoundingBox"><g><g><rect x="18.378372192382812" y="12.972965240478516" width="45.4054069519043" height="54.054054260253906" rx="0" fill="#000000" fill-opacity="1" style="mix-blend-mode:passthrough"/></g></g></mask><filter id="master_svg1_22_4018" filterUnits="objectBoundingBox" color-interpolation-filters="sRGB" x="0" y="0" width="1" height="1"><feFlood flood-opacity="0" result="BackgroundImageFix"/><feBlend mode="normal" in="SourceGraphic" in2="BackgroundImageFix" result="shape"/><feColorMatrix in="SourceAlpha" type="matrix" result="hardAlpha" values="0 0 0 0 0 0 0 0 0 0 0 0 0 0 0 0 0 0 127 0"/><feOffset dy="0.20000000298023224" dx="0"/><feGaussianBlur stdDeviation="0"/><feComposite in2="hardAlpha" operator="arithmetic" k2="-1" k3="1"/><feColorMatrix type="matrix" values="0 0 0 0 1 0 0 0 0 1 0 0 0 0 1 0 0 0 0.699999988079071 0"/><feBlend mode="normal" in2="shape" result="effect1_innerShadow"/><feGaussianBlur in="BackgroundImageFix" stdDeviation="2.5"/><feComposite in2="SourceAlpha" operator="in" result="effect2_foregroundBlur"/><feBlend mode="normal" in="SourceGraphic" in2="effect2_foregroundBlur" result="shape"/></filter><filter id="master_svg2_22_4014" filterUnits="objectBoundingBox" color-interpolation-filters="sRGB" x="-0.041666666666666664" y="-0.06818181818181818" width="1.0833333333333333" height="1.1818181818181819"><feFlood flood-opacity="0" result="BackgroundImageFix"/><feColorMatrix in="SourceAlpha" type="matrix" values="0 0 0 0 0 0 0 0 0 0 0 0 0 0 0 0 0 0 127 0"/><feOffset dy="0.5" dx="0"/><feGaussianBlur stdDeviation="0.5"/><feColorMatrix type="matrix" values="0 0 0 0 0.04973429813981056 0 0 0 0 0.03146633878350258 0 0 0 0 0.39682552218437195 0 0 0 0.5 0"/><feBlend mode="normal" in2="BackgroundImageFix" result="effect1_dropShadow"/><feBlend mode="normal" in="SourceGraphic" in2="effect1_dropShadow" result="shape"/></filter></defs><g><g><g><g><path d="M0,21.621624C2.1211996e-15,9.6803293,9.6803293,0,21.621624,0L58.37838,0C70.319664,0,80,9.6803293,80,21.621624L80,58.37838C80,70.319664,70.319664,80,58.37838,80L21.621624,80C9.6803293,80,0,70.319664,0,58.37838L0,21.621624Z" fill="#FFFFFF" fill-opacity="1" style="mix-blend-mode:passthrough"/></g></g><g mask="url(#master_svg0_40_2115)"><g><g><g><g><path d="M58.020607262695314,25.773939240478516C57.27087826269531,16.161138740478517,43.40082326269531,13.794162330478516,18.894119262695312,12.972965240478516L18.894119262695312,18.721343040478516C35.24752426269531,19.252705540478516,51.741577262695316,20.653571640478518,52.444500262695314,26.498586240478517C53.287853262695315,33.30961424047852,40.91736026269531,41.231777240478515,19.784420132695313,45.531021240478516L19.784420132695313,50.16831924047852C40.027094262695314,46.15902324047852,59.004608262695314,37.27069424047852,58.020607262695314,25.773939240478516Z" fill="#FF8500" fill-opacity="1" style="mix-blend-mode:passthrough"/></g></g><g><g><path d="M63.736969192382816,48.864061799438474C62.706051192382816,37.22239689943848,41.71361519238281,32.77827839943848,19.78411289238281,29.831628799438477L19.78411289238281,34.37236399943848C34.075777192382816,36.49781469943848,57.504860192382814,40.410567799438475,58.20766819238281,49.34708779943848C58.30139919238281,50.60308979943848,57.92648319238281,52.052278799438476,56.942478192382815,53.21162979943848C54.08421319238281,56.54470979943848,45.18118119238281,60.21595179943847,18.89380997238281,60.795524799438475L18.89380997238281,67.02698279943849L18.378372192382812,67.02698279943849L18.378372192382812,67.07530779943848C42.135345192382815,66.64060379943848,55.677292192382815,63.50071179943848,61.06604719238281,57.17260379943848C63.12778119238281,54.75736079943847,64.01805119238281,52.00395379943848,63.736969192382816,48.864061799438474Z" fill="#7928FF" fill-opacity="1" style="mix-blend-mode:passthrough"/></g></g></g></g></g></g><g><g filter="url(#master_svg1_22_4018)"><path d="M0,52C0,55.7153633,0.007626161,57.697881699999996,0.21909131,59.2566519C1.6638154,69.906128,10.093873,78.336185,20.743349,79.78090900000001C22.30212,79.992374,24.284637,80,28,80L52,80C55.715363,80,57.697884,79.992374,59.256653,79.78090900000001C69.906128,78.336185,78.336182,69.906128,79.780907,59.2566519C79.992371,57.697881699999996,80,55.7153633,80,52Q60,54,40,54Q20,54,0,52Z" fill="#6C4FFF" fill-opacity="0.800000011920929"/></g><g filter="url(#master_svg2_22_4014)"><path d="M27.759999999999998,59.3279991L27.311999999999998,60.1599998L31.184001000000002,60.1599998L31.056001000000002,61.3439999L29.088,61.3439999L29.584001,62.6399994L28.112000000000002,62.6399994L27.648001,61.3439999L26.624001,61.3439999L26.032001,62.2719994L24.3200006,62.2719994Q25.1200008,61.1359997,26.128,59.3279991L27.759999999999998,59.3279991ZM24.832000700000002,60.1599998L24.6240005,61.3439999L22.7520003,61.3439999L23.2160006,62.4799995L21.7280002,62.4799995L21.3120003,61.3439999L20.4640002,61.3439999Q19.8720002,62.2399998,19.4080002,62.8639994L17.6,62.8639994Q19.1840003,60.7839994,19.9360001,59.3759995L21.6480002,59.3759995L21.4240003,59.7919998L21.184,60.1599998L24.832000700000002,60.1599998ZM23.4560003,62.448L25.1360006,62.448L25.3280001,63.1999998L29.136001,63.1999998Q29.872000999999997,63.1999998,30.216001,63.455999399999996Q30.560000000000002,63.7119999,30.560000000000002,64.23999979999999Q30.560000000000002,64.4159994,30.544001,64.5119991L30.368001,66.016L28.848001,66.016L29.008,64.4799995L19.5360003,64.4799995L19.3280001,66.032L17.84,66.032L18.0320001,64.4799995Q18.112000000000002,63.7919998,18.4320002,63.4959993Q18.7520001,63.1999998,19.4080002,63.1999998L23.616000200000002,63.1999998L23.4560003,62.448ZM19.5360003,66.48Q19.616000200000002,65.80799999999999,19.9600003,65.535999Q20.3040004,65.264,21.0400004,65.264L27.328,65.264Q27.984,65.264,28.288,65.496Q28.592001,65.728,28.592001,66.256Q28.592001,66.44800000000001,28.576,66.544L28.336,68.624L20.8000002,68.624L20.704,69.44L27.504001000000002,69.44Q28.160001,69.44,28.472,69.68Q28.784,69.92,28.784,70.48Q28.784,70.672,28.768000999999998,70.784L28.496000000000002,73.024L18.7520001,73.024L19.5360003,66.48ZM27.024,66.48L21.0560002,66.48L20.944000199999998,67.424L26.912001,67.424L27.024,66.48ZM27.072001,71.775999L27.184001000000002,70.656L20.5600004,70.656L20.4160004,71.775999L27.072001,71.775999ZM46.560001,71.6L46.400002,72.976L37.312,72.976L37.472,71.6L41.120001,71.6L41.327999,69.84L38.464000999999996,69.84L38.624001,68.496L41.472,68.496L41.632000000000005,67.12L38.592000999999996,67.12L39.328001,61.0079994Q39.424,60.4799995,39.704,60.1759996Q39.984001,59.8719997,40.480000000000004,59.8719997L45.584,59.8719997Q46.192001000000005,59.8719997,46.528,60.2799997Q46.864000000000004,60.6879997,46.784,61.3759995L46.128,67.12L43.104,67.12L42.944,68.496L46.16,68.496L46,69.84L42.799999,69.84L42.592000999999996,71.6L46.560001,71.6ZM37.888000000000005,70.784Q36.512001,71.167999,35.312,71.45599899999999Q34.239999999999995,71.712,32.736000000000004,71.983999L32.927999,70.48L33.760000000000005,70.32L34.559999000000005,70.176L35.007999,66.191999L33.360001,66.191999L33.519999999999996,64.816L35.167998999999995,64.816L35.535999000000004,61.6639996L33.728001,61.6639996L33.888000000000005,60.2719994L38.720000999999996,60.2719994L38.560001,61.6639996L37.040001000000004,61.6639996L36.672001,64.816L38.224001,64.816L38.063998999999995,66.191999L36.512001,66.191999L36.08,69.823999Q36.784,69.664,38.048,69.312L37.888000000000005,70.784ZM42.304001,61.2159996L40.704,61.2159996L40.512001,62.8479996L42.111999999999995,62.8479996L42.304001,61.2159996ZM45.167998999999995,62.8479996L45.360001,61.2159996L43.776001,61.2159996L43.584,62.8479996L45.167998999999995,62.8479996ZM41.968,64.1280003L40.367999999999995,64.1280003L40.176001,65.775999L41.792,65.775999L41.968,64.1280003ZM43.440000999999995,64.1280003L43.263999999999996,65.775999L44.848,65.775999L45.024,64.1280003L43.440000999999995,64.1280003ZM63.120003,61.2479992L62.928001,62.7519999L55.136002,62.7519999L54.959999,64.22399899999999L54.832001,64.9919996L59.648003,64.9919996Q60.431999,64.9919996,60.807999,65.29599999999999Q61.184002,65.6,61.184002,66.271999Q61.184002,66.48,61.167999,66.608Q61.088001,67.29599999999999,60.799999,69.328Q60.639999,70.44800000000001,60.32,72Q60.032001,73.184,58.848,73.184Q58.639999,73.184,58.368,73.136Q57.760002,73.056,56.639999,72.799999Q55.616001,72.591999,54.863998,72.336L55.136002,70.816Q57.024002,71.312,58.431999,71.568001Q58.496002,71.584,58.592003,71.584Q58.688,71.584,58.728001,71.52Q58.768002,71.45599899999999,58.816002,71.264Q59.024002,70.304,59.216,69.056Q59.424,67.488,59.52,66.464L54.528,66.464Q53.968002,68.624,52.976002,70.432Q52.080002,72.032,50.976002,73.184L49.152,72.719999Q49.919998,72,50.624001,71.007999Q51.327999,70.016,51.888,68.896Q53.040001,66.576,53.327999,64.1759996L53.487999,62.7519999L49.903999,62.7519999L50.080002,61.2479992L55.807999,61.2479992L55.119999,59.4719992L56.863998,59.4719992L57.584,61.2479992L63.120003,61.2479992Z" fill="#FFFFFF" fill-opacity="1"/></g></g></g></svg>