<svg xmlns="http://www.w3.org/2000/svg" xmlns:xlink="http://www.w3.org/1999/xlink" fill="none" version="1.1" width="168" height="168" viewBox="0 0 168 168"><g><g style="opacity:0;"><rect x="0" y="0" width="168" height="168" rx="0" fill="#D8D8D8" fill-opacity="1"/></g><g><path d="M43.8416,128.9995L14.31241,128.9995C12.10015,129.0374,10.497832,126.9256,11.154065,124.837L37.1141,42.25893C37.536500000000004,40.913892,38.7963,39.997929,40.2211,40L69.75030000000001,40C71.9411,39.99681559,73.5067,42.09438,72.85730000000001,44.162530000000004L46.9486,126.7406C46.5262,128.0856,45.2664,129.0016,43.8416,128.9995Z" fill="#7300F9" fill-opacity="1" style="mix-blend-mode:passthrough"/></g><g><path d="M128.7458,66.0287L128.7458,43.718469999999996C128.7458,41.65491,127.0514,39.9860055,124.97059999999999,40.0000883504L92.1204,40.0000883504C90.7178,40.0160708,89.4865,40.929313,89.0747,42.25903L63.147755,124.8374C62.502007,126.9005,64.05356,128.9946,66.23186,129L95.72919999999999,129C97.146,129.00060000000002,98.3973,128.0841,98.8133,126.7411L114.1699,77.9199C114.5866,76.5882,115.8224,75.6755,117.2284,75.661L119.7878,75.661C121.8785,75.6113,123.6061,77.26740000000001,123.6269,79.34129999999999L123.6269,125.2816C123.6269,127.3352,125.3057,129,127.3765,129L154.2505,129C156.3213,129,158,127.3352,158,125.2816L158,73.46549999999999C157.993,71.4148,156.3184,69.7541,154.2505,69.7471L132.4953,69.7471C130.4245,69.7471,128.7458,68.0823,128.7458,66.0287Z" fill="#7300F9" fill-opacity="1" style="mix-blend-mode:passthrough"/></g></g></svg>