<svg xmlns="http://www.w3.org/2000/svg" xmlns:xlink="http://www.w3.org/1999/xlink" fill="none" version="1.1" width="2134" height="2134" viewBox="0 0 2134 2134"><defs><clipPath id="master_svg0_3_8241"><rect x="0" y="0" width="2134" height="2134" rx="0"/></clipPath><linearGradient x1="0" y1="0" x2="1" y2="1.0285714864730835" id="master_svg1_3_4602"><stop offset="0%" stop-color="#1C6BF1" stop-opacity="1"/><stop offset="100%" stop-color="#19FFD5" stop-opacity="1"/></linearGradient><linearGradient x1="0" y1="0" x2="1" y2="1.0285714864730835" id="master_svg2_3_4602"><stop offset="0%" stop-color="#1C6BF1" stop-opacity="1"/><stop offset="100%" stop-color="#19FFD5" stop-opacity="1"/></linearGradient></defs><g clip-path="url(#master_svg0_3_8241)"><rect x="0" y="0" width="2134" height="2134" rx="0" fill="#FFFFFF" fill-opacity="1"/><g transform="matrix(0.7071067690849304,-0.7071067690849304,0.7071067690849304,0.7071067690849304,-661.4764498540098,593.466169988511)"><path d="M459.4034939453125,1095.205810546875C418.6643939453125,1095.205810546875,385.6387939453125,1128.212910546875,385.6387939453125,1168.929210546875C385.6387939453125,1209.645810546875,418.6643939453125,1242.6528105468751,459.4034939453125,1242.6528105468751C493.37079394531247,1242.6528105468751,512.6727939453125,1284.291810546875,494.7007939453125,1313.098810546875C450.51119394531247,1383.928810546875,424.9799939453125,1467.5868105468749,424.9799939453125,1557.205810546875C424.9799939453125,1809.629810546875,627.5327939453125,2014.770810546875,879.0557939453124,2019.134810546875C880.1387939453125,2019.181810546875,881.2267939453125,2019.205810546875,882.3207939453125,2019.205810546875L1315.0737939453124,2019.205810546875C1355.8127939453125,2019.205810546875,1388.8387939453125,1986.198810546875,1388.8387939453125,1945.4818105468748C1388.8387939453125,1904.765810546875,1355.8127939453125,1871.7588105468749,1315.0737939453124,1871.7588105468749C1281.1067939453123,1871.7588105468749,1261.8047939453127,1830.118810546875,1279.7767939453124,1801.312810546875C1323.9657939453125,1730.482810546875,1349.4977939453124,1646.823810546875,1349.4977939453124,1557.205810546875C1349.4977939453124,1304.781810546875,1146.9447939453125,1099.640220546875,895.4217939453125,1095.276737946875C894.3387939453125,1095.229616346875,893.2507939453126,1095.205810546875,892.1567939453125,1095.205810546875L459.4034939453125,1095.205810546875ZM887.2387939453125,1871.7588105468749Q947.2717939453125,1871.7588105468749,1003.0887939453125,1849.6738105468748Q1063.6947939453125,1825.693810546875,1109.7857939453124,1779.628810546875Q1155.8767939453126,1733.562810546875,1179.8707939453125,1672.9908105468749Q1201.9677939453125,1617.204810546875,1201.9677939453125,1557.205810546875Q1201.9677939453125,1497.206810546875,1179.8707939453125,1441.420810546875Q1155.8767939453126,1380.848810546875,1109.7857939453124,1334.782810546875Q1063.6947939453125,1288.717810546875,1003.0887939453125,1264.737810546875Q947.2717939453125,1242.6528105468751,887.2387939453125,1242.6528105468751Q827.2057939453125,1242.6528105468751,771.3887939453125,1264.737810546875Q710.7827939453125,1288.717810546875,664.6917939453125,1334.782810546875Q618.6007939453125,1380.847810546875,594.6067939453125,1441.420810546875Q572.5097939453125,1497.206810546875,572.5097939453125,1557.205810546875Q572.5097939453125,1617.204810546875,594.6067939453125,1672.9908105468749Q618.6007939453125,1733.562810546875,664.6917939453125,1779.628810546875Q710.7827939453125,1825.693810546875,771.3887939453125,1849.6738105468748Q827.2057939453125,1871.7588105468749,887.2387939453125,1871.7588105468749Z" fill-rule="evenodd" fill="url(#master_svg1_3_4602)" fill-opacity="1"/></g><g><path d="M1103,2135L2184,2135L2184,1792L1282,1792C1183.141,1792,1103,1872.141,1103,1971L1103,2135Z" fill="url(#master_svg2_3_4602)" fill-opacity="1"/></g><g><path d="M1288.3512,2047Q1282.95437,2047,1280.41406,2042.483Q1277.87719,2037.963,1279.90875,2033.394L1343.7087,1881.6631Q1346.3969,1875.18,1352.8112,1875.18Q1359.2084,1875.18,1361.7659,1881.6631L1425.786,2033.683Q1427.9,2038.472,1425.167,2042.738Q1422.434,2047,1417.271,2047Q1414.4279999999999,2047,1412.067,2045.512Q1409.709,2044.023,1408.3890000000001,2041.177L1349.7141,1897.8916L1356.3313,1897.8916L1297.0859,2041.177Q1295.8484,2044.088,1293.4869,2045.546Q1291.1287,2047,1288.3512,2047ZM1301.9912,2007.029L1309.2684,1991.003L1397.643,1991.003L1404.917,2007.029L1301.9912,2007.029ZM1465.231,2047Q1456.163,2047,1449.061,2042.026Q1441.963,2037.048,1438.01,2028.307Q1434.06,2019.562,1434.06,2008.129L1434.06,1884.3513Q1434.06,1880.2503,1436.593,1877.7169Q1439.13,1875.18,1443.231,1875.18Q1447.336,1875.18,1449.869,1877.7169Q1452.406,1880.2503,1452.406,1884.3513L1452.406,2008.129Q1452.406,2017.183,1456.026,2022.92Q1459.645,2028.654,1465.231,2028.654L1470.731,2028.654Q1474.402,2028.654,1476.603,2031.191Q1478.806,2033.724,1478.806,2037.829Q1478.806,2041.93,1475.623,2044.467Q1472.44,2047,1467.349,2047L1465.231,2047ZM1500.211,2098.48Q1495.983,2098.48,1493.402,2095.898Q1490.82,2093.317,1490.82,2089.089L1490.82,1986.3319999999999Q1491.04,1969.113,1499.049,1955.318Q1507.059,1941.5203,1520.771,1933.5762Q1534.487,1925.6288,1551.6019999999999,1925.6288Q1569.157,1925.6288,1582.9479999999999,1933.6588Q1596.743,1941.6888,1604.7730000000001,1955.535Q1612.8029999999999,1969.378,1612.8029999999999,1986.9569999999999Q1612.8029999999999,2004.32,1605.117,2018.159Q1597.431,2031.999,1584.224,2040.0149999999999Q1571.02,2048.031,1554.348,2048.031Q1540.152,2048.031,1528.498,2042.033Q1516.849,2036.034,1509.451,2026.031L1509.451,2089.089Q1509.451,2093.317,1506.897,2095.898Q1504.347,2098.48,1500.211,2098.48ZM1551.6190000000001,2031.277Q1563.912,2031.277,1573.622,2025.509Q1583.337,2019.737,1588.964,2009.617Q1594.591,1999.497,1594.591,1986.93Q1594.591,1974.146,1588.964,1964.112Q1583.337,1954.074,1573.609,1948.2303Q1563.8809999999999,1942.3831,1551.612,1942.3831Q1539.557,1942.3831,1529.805,1948.2475Q1520.0529999999999,1954.108,1514.539,1964.129Q1509.028,1974.146,1509.028,1986.937Q1509.028,1999.5140000000001,1514.539,2009.641Q1520.049,2019.768,1529.794,2025.523Q1539.5430000000001,2031.277,1551.6190000000001,2031.277ZM1644.531,1999.566Q1640.3029999999999,1999.566,1637.722,1996.909Q1635.1399999999999,1994.252,1635.1399999999999,1990.171L1635.1399999999999,1884.5712Q1635.1399999999999,1880.2744,1637.722,1877.7272Q1640.3029999999999,1875.18,1644.531,1875.18Q1648.6770000000001,1875.18,1651.224,1877.7272Q1653.771,1880.2744,1653.771,1884.5712L1653.771,1990.171Q1653.771,1994.252,1651.224,1996.909Q1648.6770000000001,1999.566,1644.531,1999.566ZM1737.846,2047.069Q1733.769,2047.069,1731.112,2044.412Q1728.454,2041.754,1728.454,2037.829L1728.454,1981.574Q1728.454,1968.274,1723.453,1959.746Q1718.451,1951.2141,1709.878,1946.9859Q1701.308,1942.7544,1690.429,1942.7544Q1680.123,1942.7544,1671.804,1946.8002999999999Q1663.4859999999999,1950.8428,1658.628,1957.8Q1653.771,1964.754,1653.771,1973.654L1641.132,1973.654Q1641.434,1959.794,1648.371,1948.9041Q1655.311,1938.0141,1666.971,1931.7131Q1678.6309999999999,1925.4088,1693,1925.4088Q1708.4859999999999,1925.4088,1720.703,1931.8988Q1732.923,1938.3887,1740.004,1950.9287Q1747.086,1963.469,1747.086,1981.574L1747.086,2037.829Q1747.086,2041.754,1744.4279999999999,2044.412Q1741.771,2047.069,1737.846,2047.069ZM1644.531,2047.069Q1640.3029999999999,2047.069,1637.722,2044.487Q1635.1399999999999,2041.906,1635.1399999999999,2037.829L1635.1399999999999,1936.0513Q1635.1399999999999,1931.7544,1637.722,1929.2072Q1640.3029999999999,1926.66,1644.531,1926.66Q1648.6770000000001,1926.66,1651.224,1929.2072Q1653.771,1931.7544,1653.771,1936.0513L1653.771,2037.829Q1653.771,2041.906,1651.224,2044.487Q1648.6770000000001,2047.069,1644.531,2047.069ZM1825.6599999999999,2048.031Q1808.992,2048.031,1795.7849999999999,2040.0149999999999Q1782.578,2031.999,1774.892,2018.159Q1767.209,2004.32,1767.209,1986.9569999999999Q1767.209,1969.378,1775.239,1955.535Q1783.269,1941.6888,1797.0839999999998,1933.6588Q1810.903,1925.6288,1828.231,1925.6288Q1845.56,1925.6288,1859.268,1933.6588Q1872.9769999999999,1941.6888,1881.007,1955.549Q1889.037,1969.409,1889.188,1986.94L1881.829,1990.594Q1881.829,2006.878,1874.4479999999999,2019.882Q1867.0720000000001,2032.882,1854.404,2040.458Q1841.741,2048.031,1825.6599999999999,2048.031ZM1828.231,2031.277Q1840.517,2031.277,1850.156,2025.509Q1859.7939999999999,2019.737,1865.387,2009.617Q1870.98,1999.497,1870.98,1986.93Q1870.98,1974.146,1865.387,1964.112Q1859.7939999999999,1954.074,1850.156,1948.2303Q1840.52,1942.3831,1828.238,1942.3831Q1816.1660000000002,1942.3831,1806.417,1948.2303Q1796.672,1954.074,1790.969,1964.101Q1785.266,1974.128,1785.266,1986.926Q1785.266,1999.5140000000001,1790.969,2009.628Q1796.672,2019.737,1806.413,2025.509Q1816.159,2031.277,1828.231,2031.277ZM1879.807,2047.069Q1875.717,2047.069,1873.06,2044.487Q1870.406,2041.906,1870.406,2037.829L1870.406,2001.426L1874.586,1982.217L1889.188,1986.94L1889.188,2037.829Q1889.188,2041.906,1886.542,2044.487Q1883.8980000000001,2047.069,1879.807,2047.069Z" fill="#FFFFFF" fill-opacity="1"/></g></g></svg>