<svg xmlns="http://www.w3.org/2000/svg" xmlns:xlink="http://www.w3.org/1999/xlink" fill="none" version="1.1" width="28" height="28" viewBox="0 0 28 28"><defs><clipPath id="master_svg0_619_8138"><rect x="0" y="0" width="28" height="28" rx="0"/></clipPath></defs><g clip-path="url(#master_svg0_619_8138)"><g style="opacity:0;"><rect x="0" y="0" width="28" height="28" rx="0" fill="#EFEFEF" fill-opacity="1"/></g><g><path d="M13.24998046875,24.44017578125C13.42518046875,24.67907578125,13.70378046875,24.82017578125,13.99998046875,24.82017578125C14.29718046875,24.81907578125,14.57588046875,24.67597578125,14.74998046875,24.43517578125L16.99998046875,21.43517578125L22.25498046875,21.43517578125C22.50438046875,21.43537578125,22.74358046875,21.33637578125,22.91998046875,21.16017578125L25.37998046875,18.69517578125C25.55688046875,18.52127578125,25.65608046875,18.283275781249998,25.65498046875,18.03517578125L25.65498046875,7.95517578125C25.65628046875,7.70558578125,25.55718046875,7.46595578125,25.37998046875,7.290175781249999L22.91998046875,4.83017578125C22.74358046875,4.65393018125,22.50438046875,4.55500602725,22.25498046875,4.55517578125L5.75499046875,4.55517578125C5.50562046875,4.55500602725,5.26641046875,4.65393018125,5.08999046875,4.83017578125L2.62999346875,7.290175781249999C2.45280456875,7.46595578125,2.35371017875,7.70558578125,2.35499286655,7.95517578125L2.35499286655,18.03517578125C2.35392379875,18.283275781249998,2.45308876875,18.52127578125,2.62999346875,18.69517578125L5.08999046875,21.16517578125C5.26641046875,21.34137578125,5.50562046875,21.44037578125,5.75499046875,21.44017578125L10.99999046875,21.44017578125L13.24998046875,24.44017578125ZM11.46999046875,19.55517578125L6.1449904687500005,19.55517578125L4.22999046875,17.64517578125L4.22999046875,8.34517578125L6.1449904687500005,6.43517578125L21.85498046875,6.43517578125L23.76998046875,8.34517578125L23.76998046875,17.64517578125L21.85498046875,19.55517578125L16.52998046875,19.55517578125C16.234980468750003,19.55557578125,15.95728046875,19.694375781250002,15.77998046875,19.93017578125L13.99998046875,22.31017578125L12.21999046875,19.93017578125C12.04268046875,19.694375781250002,11.76499046875,19.55557578125,11.46999046875,19.55517578125ZM9.570010468749999,14.51515578125C10.29075046875,14.51515578125,10.87501046875,13.93088578125,10.87501046875,13.21015578125C10.87501046875,12.489415781249999,10.29075046875,11.90515578125,9.570010468749999,11.90515578125C8.849280468749999,11.90515578125,8.265010468749999,12.489415781249999,8.265010468749999,13.21015578125C8.265010468749999,13.93088578125,8.849280468749999,14.51515578125,9.570010468749999,14.51515578125ZM13.99998046875,14.51515578125C14.72068046875,14.51515578125,15.30498046875,13.93088578125,15.30498046875,13.21015578125C15.30498046875,12.489415781249999,14.72068046875,11.90515578125,13.99998046875,11.90515578125C13.27918046875,11.90515578125,12.69498046875,12.489415781249999,12.69498046875,13.21015578125C12.69498046875,13.93088578125,13.27918046875,14.51515578125,13.99998046875,14.51515578125ZM18.42998046875,14.51515578125C19.15078046875,14.51515578125,19.73498046875,13.93088578125,19.73498046875,13.21015578125C19.73498046875,12.489415781249999,19.15078046875,11.90515578125,18.42998046875,11.90515578125C17.709280468750002,11.90515578125,17.12498046875,12.489415781249999,17.12498046875,13.21015578125C17.12498046875,13.93088578125,17.709280468750002,14.51515578125,18.42998046875,14.51515578125Z" fill-rule="evenodd" fill="#FFFFFF" fill-opacity="1"/></g></g></svg>