<svg xmlns="http://www.w3.org/2000/svg" xmlns:xlink="http://www.w3.org/1999/xlink" fill="none" version="1.1" width="28" height="28" viewBox="0 0 28 28"><defs><clipPath id="master_svg0_506_11043"><rect x="0" y="0" width="28" height="28" rx="0"/></clipPath></defs><g clip-path="url(#master_svg0_506_11043)"><g style="opacity:0;"><rect x="0" y="0" width="28" height="28" rx="0" fill="#EFEFEF" fill-opacity="1"/></g><g><path d="M23.2649609375,7.615L23.2649609375,6.555C23.2621609375,5.07407,22.0608609375,3.874999761581,20.5799609375,3.875L5.3949609375000005,3.875C3.9140309374999998,3.87499713898,2.7127182475,5.07407,2.7099609375,6.555L2.7099609375,21.445C2.7127151475,22.9259,3.9140209375,24.125,5.3949609375000005,24.125L22.6049609375,24.125C24.0858609375,24.125,25.2871609375,22.9259,25.2899609375,21.445L25.2899609375,10.205C25.2859609375,8.98041,24.4524609375,7.91429,23.2649609375,7.615ZM5.3949609375000005,5.875L20.5799609375,5.875C20.9574609375,5.87221,21.2649609375,6.17748,21.2649609375,6.555L21.2649609375,7.525L5.3949609375000005,7.525C5.163570937499999,7.52819,4.933480937500001,7.5601,4.7099609375,7.62L4.7099609375,6.555C4.7099509375,6.17748,5.0174609375,5.87222,5.3949609375000005,5.875ZM22.6049609375,22.125L5.3949609375000005,22.125C5.017470937500001,22.1278,4.7099609375,21.8225,4.7099609375,21.445L4.7099609375,10.205C4.7099509375,9.827480000000001,5.0174609375,9.52222,5.3949609375000005,9.525L22.6049609375,9.525C22.9824609375,9.522210000000001,23.2899609375,9.82747,23.2899609375,10.205L23.2899609375,12.205L18.204960937499997,12.205C16.1767609375,12.12917,14.4911609375,13.75287,14.4911609375,15.7825C14.4911609375,17.8121,16.1767609375,19.4358,18.204960937499997,19.36L23.2899609375,19.36L23.2899609375,21.455C23.2844609375,21.8286,22.9785609375,22.1278,22.6049609375,22.125ZM23.2899609375,17.35L18.204960937499997,17.35C17.298860937500002,17.401,16.5360609375,16.68,16.5360609375,15.7725C16.5360609375,14.865,17.298860937500002,14.144,18.204960937499997,14.195L23.2899609375,14.195L23.2899609375,17.35Z" fill="#FFFFFF" fill-opacity="1"/></g></g></svg>