<svg xmlns="http://www.w3.org/2000/svg" xmlns:xlink="http://www.w3.org/1999/xlink" fill="none" version="1.1" width="28" height="28" viewBox="0 0 28 28"><defs><clipPath id="master_svg0_506_11223"><rect x="0" y="0" width="28" height="28" rx="0"/></clipPath></defs><g clip-path="url(#master_svg0_506_11223)"><g><rect x="0" y="0" width="28" height="28" rx="0" fill="#EFEFEF" fill-opacity="0"/></g><g><path d="M13.99997,8.1400146484375C11.85792,8.1400299072375,10.12222958,9.8779846484375,10.1250038147,12.0200346484375C10.12777996,14.1620846484375,11.86797,15.8955346484375,14.01001,15.8900046484375C16.15206,15.8844646484375,17.88327,14.142054648437501,17.87497,12.0000146484375C17.863979999999998,9.8669146484375,16.1331,8.1427345284375,13.99997,8.1400146484375ZM13.99997,13.8900146484375C12.9664,13.889984648437501,12.12777,13.0535446484375,12.12504,12.0199746484375C12.12231,10.9864046484375,12.9565,10.1455446484375,13.99005,10.1400446484375C15.02361,10.1345346484375,15.866710000000001,10.9664746484375,15.874970000000001,12.0000146484375C15.88334,13.0413646484375,15.04143,13.8900146484375,13.99997,13.8900146484375Z" fill="#FFFFFF" fill-opacity="1"/></g><g><path d="M25.18993896484375,6.35498779296875L23.54993896484375,4.71998779296875C23.36323896484375,4.53219379296875,23.10973896484375,4.42610454296875,22.84493896484375,4.42498779296875L5.154938964843749,4.42498779296875C4.89014896484375,4.42610407296875,4.63661896484375,4.53219379296875,4.44993896484375,4.71998779296875L2.80993896484375,6.35498779296875C2.61540296484375,6.54038779296875,2.50367474484375,6.79627779296875,2.49993896484375,7.064987792968751L2.49993896484375,22.56498779296875C2.49993896484375,23.11728779296875,2.94765396484375,23.56498779296875,3.49993896484375,23.56498779296875L24.49993896484375,23.56498779296875C25.05223896484375,23.56498779296875,25.49993896484375,23.11728779296875,25.49993896484375,22.56498779296875L25.49993896484375,7.064987792968751C25.49623896484375,6.79627779296875,25.38443896484375,6.54038779296875,25.18993896484375,6.35498779296875ZM8.29993896484375,21.57498779296875C11.12722896484375,17.72978779296875,16.872638964843752,17.72978779296875,19.69993896484375,21.57498779296875L8.29993896484375,21.57498779296875ZM23.47993896484375,21.57498779296875L22.04493896484375,21.57498779296875C20.48563896484375,18.572087792968752,17.383638964843747,16.68758779296875,13.99993896484375,16.68758779296875C10.61628896484375,16.68758779296875,7.51428896484375,18.572087792968752,5.95493896484375,21.57498779296875L4.49993896484375,21.57498779296875L4.49993896484375,7.49998779296875L5.54993896484375,6.44498779296875L22.42993896484375,6.44498779296875L23.49993896484375,7.49998779296875L23.47993896484375,21.57498779296875Z" fill="#FFFFFF" fill-opacity="1"/></g></g></svg>