<svg xmlns="http://www.w3.org/2000/svg" xmlns:xlink="http://www.w3.org/1999/xlink" fill="none" version="1.1" width="28" height="28" viewBox="0 0 28 28"><defs><clipPath id="master_svg0_506_11669"><rect x="0" y="0" width="28" height="28" rx="0"/></clipPath></defs><g clip-path="url(#master_svg0_506_11669)"><g><rect x="0" y="0" width="28" height="28" rx="0" fill="#EFEFEF" fill-opacity="0"/></g><g><path d="M23.634990234375,7.8600198046875L14.499990234375,2.5850248046875C14.190590234375,2.4063916046875,13.809390234375,2.4063916046875,13.499990234375,2.5850248046875L4.364990234375,7.8600198046875C4.055906234375,8.0384698046875,3.865356445375,8.3681298046875,3.864990234375,8.7250198046875L3.864990234375,19.2750498046875C3.865356445375,19.6319498046875,4.055906234375,19.9615498046875,4.364990234375,20.1400498046875L13.499990234375,25.4100498046875C13.809390234375,25.5886498046875,14.190590234375,25.5886498046875,14.499990234375,25.4100498046875L23.634990234375,20.1400498046875C23.944090234375,19.9615498046875,24.134590234375,19.6319498046875,24.134990234375,19.2750498046875L24.134990234375,8.7250198046875C24.134590234375,8.3681298046875,23.944090234375,8.0384698046875,23.634990234375,7.8600198046875ZM22.134990234375,18.6950498046875L13.999990234375,23.3900498046875L5.864990234375,18.6950498046875L5.864990234375,9.3050198046875L13.999990234375,4.6100198046875L22.134990234375,9.3050198046875L22.134990234375,18.6950498046875ZM8.234990234375001,9.5000198046875L13.999990234375,12.8400498046875L19.764990234375,9.5000198046875L20.764990234375,10.080019804687499L20.764990234375,11.2300198046875L14.999990234375,14.5750498046875L14.999990234375,21.2350498046875L13.999990234375,21.8150498046875L12.999990234375,21.2350498046875L12.999990234375,14.5750498046875L7.234990234375,11.2450198046875L7.234990234375,10.0950198046875L8.234990234375001,9.5000198046875Z" fill="#FFFFFF" fill-opacity="1"/></g></g></svg>