<svg xmlns="http://www.w3.org/2000/svg" xmlns:xlink="http://www.w3.org/1999/xlink" fill="none" version="1.1" width="28" height="28" viewBox="0 0 28 28"><defs><clipPath id="master_svg0_619_8148"><rect x="0" y="0" width="28" height="28" rx="0"/></clipPath></defs><g clip-path="url(#master_svg0_619_8148)"><g style="opacity:0;"><rect x="0" y="0" width="28" height="28" rx="0" fill="#EFEFEF" fill-opacity="1"/></g><g><path d="M24.61005859375,23.21984375L4.65005859375,23.21984375C4.1171035937500005,23.21984375,3.68505859375,22.78784375,3.68505859375,22.25484375L3.68505859375,5.33984375L5.61005859375,5.33984375L5.61005859375,21.29484375L24.61005859375,21.29484375L24.61005859375,23.21984375ZM14.29005859375,12.81984375L16.47005859375,14.62484375C16.67275859375,14.79510375,16.937358593749998,14.87302375,17.20005859375,14.83984375C17.46285859375,14.80901375,17.70145859375,14.67163375,17.86005859375,14.45984375L22.93505859375,7.60984375L21.38505859375,6.46484375L16.91505859375,12.49984375L14.74005859375,10.69984375C14.52975859375,10.53753375,14.26345859375,10.46557375,14.00005859375,10.49984375C13.73725859375,10.53067375,13.49865859375,10.66805375,13.34005859375,10.87984375L8.43505859375,17.37984375L10.000058593750001,18.524843750000002L14.29005859375,12.81984375Z" fill="#FFFFFF" fill-opacity="1"/></g></g></svg>