<svg xmlns="http://www.w3.org/2000/svg" xmlns:xlink="http://www.w3.org/1999/xlink" fill="none" version="1.1" width="28" height="28" viewBox="0 0 28 28"><defs><clipPath id="master_svg0_506_10963"><rect x="0" y="0" width="28" height="28" rx="0"/></clipPath></defs><g clip-path="url(#master_svg0_506_10963)"><g style="opacity:0;"><rect x="0" y="0" width="28" height="28" rx="0" fill="#EFEFEF" fill-opacity="1"/></g><g><path d="M24.920078125,7.75001708984375C24.920078125,8.30229708984375,24.472378125,8.75001708984375,23.920078125,8.75001708984375L23.000078125,8.75501708984375L23.000078125,19.25501708984375L23.920078125,19.25501708984375C24.472378125,19.25501708984375,24.920078125,19.70271708984375,24.920078125,20.25501708984375L24.920078125,23.94501708984375C24.920078125,24.49731708984375,24.472378125,24.94501708984375,23.920078125,24.94501708984375L20.250078125,24.94501708984375C19.697778125,24.94501708984375,19.250078125,24.49731708984375,19.250078125,23.94501708984375L19.250078125,23.00001708984375L8.750078125,23.00001708984375L8.750078125,23.92501708984375C8.750078125,24.47731708984375,8.302368125000001,24.92501708984375,7.750078125,24.92501708984375L4.080078125,24.92501708984375C3.527793125,24.92501708984375,3.080078125,24.47731708984375,3.080078125,23.92501708984375L3.080078125,20.25001708984375C3.080078125,19.69771708984375,3.527793125,19.25001708984375,4.080078125,19.25001708984375L5.000078125,19.25001708984375L5.000078125,8.75001708984375L4.080078125,8.75001708984375C3.527793125,8.75001708984375,3.080078125,8.30229708984375,3.080078125,7.75001708984375L3.080078125,4.08001708984375C3.080078125,3.52773208984375,3.527793125,3.08001708984375,4.080078125,3.08001708984375L7.750078125,3.08001708984375C8.302368125000001,3.08001708984375,8.750078125,3.52773208984375,8.750078125,4.08001708984375L8.750078125,5.00001708984375L19.250078125,5.00001708984375L19.250078125,4.08001708984375C19.250078125,3.52773208984375,19.697778125,3.08001708984375,20.250078125,3.08001708984375L23.920078125,3.08001708984375C24.472378125,3.08001708984375,24.920078125,3.52773208984375,24.920078125,4.08001708984375L24.920078125,7.75001708984375ZM6.750078125,5.08001708984375L5.080078125,5.08001708984375L5.080078125,6.75001708984375L6.750078125,6.75001708984375L6.750078125,5.08001708984375ZM22.920078125,5.08001708984375L21.250078125,5.08001708984375L21.250078125,6.75001708984375L22.920078125,6.75001708984375L22.920078125,5.08001708984375ZM20.250078125,19.25501708984375L21.185078125,19.25501708984375L21.185078125,8.75001708984375L20.250078125,8.75001708984375C19.697778125,8.75001708984375,19.250078125,8.30229708984375,19.250078125,7.75001708984375L19.250078125,6.815017089843749L8.750078125,6.815017089843749L8.750078125,7.75501708984375C8.750078125,8.30729708984375,8.302368125000001,8.75501708984375,7.750078125,8.75501708984375L6.815078124999999,8.75501708984375L6.815078124999999,19.25501708984375L7.750078125,19.25501708984375C8.302368125000001,19.25501708984375,8.750078125,19.70271708984375,8.750078125,20.25501708984375L8.750078125,21.18501708984375L19.250078125,21.18501708984375L19.250078125,20.25501708984375C19.250078125,19.70271708984375,19.697778125,19.25501708984375,20.250078125,19.25501708984375ZM14.499978125,9.215087089843749L17.894978125,11.17508708984375C18.204078125000002,11.35353708984375,18.394578125000002,11.68318708984375,18.394978125,12.04008708984375L18.394978125,15.96011708984375C18.394578125000002,16.317017089843752,18.204078125000002,16.64661708984375,17.894978125,16.82511708984375L14.499978125,18.78511708984375C14.190578125,18.963717089843747,13.809378125,18.963717089843747,13.499978125,18.78511708984375L10.104978124999999,16.82511708984375C9.795898125,16.64661708984375,9.605348124999999,16.317017089843752,9.604978124999999,15.96011708984375L9.604978124999999,12.04008708984375C9.605348124999999,11.68318708984375,9.795898125,11.35353708984375,10.104978124999999,11.17508708984375L13.499978125,9.215087089843749C13.809378125,9.03645708984375,14.190578125,9.03645708984375,14.499978125,9.215087089843749ZM13.999978125,16.76511708984375L16.394978125,15.38011708984375L16.394978125,12.62008708984375L13.999978125,11.23508708984375L11.604978125,12.62008708984375L11.604978125,15.38011708984375L13.999978125,16.76511708984375ZM5.080078125,22.93001708984375L6.750078125,22.93001708984375L6.750078125,21.25501708984375L5.080078125,21.25501708984375L5.080078125,22.93001708984375ZM21.250078125,22.93001708984375L22.920078125,22.93001708984375L22.920078125,21.25501708984375L21.250078125,21.25501708984375L21.250078125,22.93001708984375Z" fill-rule="evenodd" fill="#FFFFFF" fill-opacity="1"/></g></g></svg>