<svg xmlns="http://www.w3.org/2000/svg" xmlns:xlink="http://www.w3.org/1999/xlink" fill="none" version="1.1" width="28" height="28" viewBox="0 0 28 28"><defs><clipPath id="master_svg0_506_11778"><rect x="0" y="0" width="28" height="28" rx="0"/></clipPath></defs><g clip-path="url(#master_svg0_506_11778)"><g style="opacity:0;"><rect x="0" y="0" width="28" height="28" rx="0" fill="#EFEFEF" fill-opacity="1"/></g><g><path d="M13.99991943359375,12.94999267578125C16.14553943359375,12.94999267578125,17.884909433593748,11.21062267578125,17.884909433593748,9.06499267578125C17.884909433593748,6.91936267578125,16.14553943359375,5.17999267578125,13.99991943359375,5.17999267578125C11.85428943359375,5.17999267578125,10.11491489359375,6.91936267578125,10.11491584359375,9.06499267578125C10.11767003359375,11.20948267578125,11.85542943359375,12.94724267578125,13.99991943359375,12.94999267578125ZM13.99991943359375,7.17999267578125C15.04096943359375,7.17999267578125,15.884919433593751,8.02393267578125,15.884919433593751,9.06499267578125C15.884919433593751,10.10605267578125,15.04096943359375,10.94999267578125,13.99991943359375,10.94999267578125C12.95885943359375,10.94999267578125,12.11491943359375,10.10605267578125,12.11491943359375,9.06499267578125C12.11491943359375,8.02393267578125,12.95885943359375,7.17999267578125,13.99991943359375,7.17999267578125ZM13.99991943359375,15.04999267578125C11.85022943359375,15.04723267578125,10.10583972959375,16.78859267578125,10.10491943359375,18.93829267578125C10.10399913759375,21.08799267578125,11.84689943359375,22.83089267578125,13.99658943359375,22.82999267578125C16.14627943359375,22.82909267578125,17.88767943359375,21.08469267578125,17.88491943359375,18.934992675781253C17.88215943359375,16.790492675781252,16.14439943359375,15.05274267578125,13.99991943359375,15.04999267578125ZM13.99991943359375,20.82499267578125C12.95544943359375,20.82779267578125,12.10675943359375,19.982792675781248,12.10491943359375,18.93829267578125C12.10307943359375,17.893892675781252,12.94877943359375,17.04589267578125,13.99324943359375,17.044992675781252C15.03771943359375,17.04409267578125,15.884919433593751,17.89049267578125,15.884919433593751,18.934992675781253C15.884919433593751,19.97689267578125,15.04177943359375,20.822192675781253,13.99991943359375,20.82499267578125Z" fill="#FFFFFF" fill-opacity="1"/></g></g></svg>