<svg xmlns="http://www.w3.org/2000/svg" xmlns:xlink="http://www.w3.org/1999/xlink" fill="none" version="1.1" width="28" height="28" viewBox="0 0 28 28"><defs><clipPath id="master_svg0_506_11586"><rect x="0" y="0" width="28" height="28" rx="0"/></clipPath></defs><g clip-path="url(#master_svg0_506_11586)"><g><rect x="0" y="0" width="28" height="28" rx="0" fill="#EFEFEF" fill-opacity="0"/></g><g><path d="M25.125,14.0000439453125C25.125,19.5000439453125,23.245,22.4150439453125,18.66,23.4350439453125L18.66,21.3750439453125C21.945,20.5000439453125,23.125,18.3100439453125,23.125,14.0000439453125C23.125,8.235043945312501,21.035,6.2650439453125,14.625,6.1450439453125L11.42,6.1800439453125C11.23687,6.1815239453125,11.07111,6.0718639453125,11.00083,5.9027539453125C10.93055,5.7336339453125,10.96976,5.5387939453125,11.1,5.4100439453125L14.92,1.6700439453125L16.310000000000002,3.1050439453125L15.24,4.1450439453125C22.325,4.4300439453125,25.125,7.2650439453125,25.125,14.0000439453125ZM16.5,21.8200439453125L13.81,21.8550439453125C7.06,21.8200439453125,4.875,19.8900439453125,4.875,14.0000439453125C4.875,9.6750439453125,6.055,7.5000439453125,9.34,6.6150439453125L9.34,4.5550439453125C4.755,5.575043945312499,2.875,8.5000439453125,2.875,14.0000439453125C2.875,20.7000439453125,5.654999999999999,23.5450439453125,12.685,23.8450439453125L11.685,24.8450439453125L13.075,26.2800439453125L16.845,22.6300439453125C17.019,22.5080439453125,17.0839,22.2808439453125,17.0006,22.0853439453125C16.917299999999997,21.8897439453125,16.7086,21.7791439453125,16.5,21.8200439453125ZM15,13.3200439453125L18.395,13.3200439453125L18.395,11.3200439453125L16.895,11.3200439453125L17.395,9.050043945312499L15.345,9.050043945312499L14.845,11.3200439453125L13.15,11.3200439453125L12.65,9.050043945312499L10.6,9.050043945312499L11.1,11.3200439453125L9.6,11.3200439453125L9.6,13.3200439453125L13,13.3200439453125L13,15.2750439453125L9.36,15.2750439453125L9.36,17.2750439453125L13,17.2750439453125L13,19.6500439453125L15,19.6500439453125L15,17.2550439453125L18.64,17.2550439453125L18.64,15.2550439453125L15,15.2550439453125L15,13.3200439453125Z" fill="#FFFFFF" fill-opacity="1"/></g></g></svg>