<?xml version="1.0" encoding="UTF-8"?>
<svg width="512px" height="512px" viewBox="0 0 512 512" version="1.1" xmlns="http://www.w3.org/2000/svg" xmlns:xlink="http://www.w3.org/1999/xlink">
    <title>尼来备份 6</title>
    <defs>
        <linearGradient x1="88.0094528%" y1="9.67671871%" x2="0%" y2="100%" id="linearGradient-1">
            <stop stop-color="#FFD940" offset="0%"></stop>
            <stop stop-color="#F7C807" offset="100%"></stop>
        </linearGradient>
        <linearGradient x1="16.0068684%" y1="29.5482165%" x2="97.7790814%" y2="76.2446603%" id="linearGradient-2">
            <stop stop-color="#4C453B" offset="0%"></stop>
            <stop stop-color="#353129" offset="100%"></stop>
        </linearGradient>
    </defs>
    <g id="尼来备份-6" stroke="none" stroke-width="1" fill="none" fill-rule="evenodd">
        <g id="LOGO" transform="translate(25.000000, 25.000000)">
            <rect id="bg" stroke="#FFFFFF" stroke-width="25" fill="url(#linearGradient-1)" x="-12.5" y="-12.5" width="487" height="487" rx="96"></rect>
            <path d="M205.764556,255.088211 C223.207867,267.026531 255.98915,269.656045 272.462734,258.643392 C280.971434,252.955294 288.059592,243.74083 293.72721,231 C269.728101,253.288856 244.32937,254.1912 217.531016,233.707031 C190.732662,213.222862 183.308475,175.535177 195.258453,120.643976 C183.03747,134.966737 175.633578,150.281394 173.046774,166.587945 C166.235065,209.527237 181.402788,238.414852 205.764556,255.088211 Z M303.074781,388.910156 C377.735673,331.186959 407.432381,269.114358 392.164905,202.692352 C369.263692,103.059343 264.150393,100.819345 232.866729,136.708149 C212.010953,160.634017 210.97291,187.95973 229.7526,218.685285 C225.170137,206.623762 225.170137,194.965708 229.7526,183.711122 C236.626293,166.829244 251.450555,155.100245 273.88837,155.100245 C296.326185,155.100245 356.213468,157.738846 358.574465,245.14285 C360.148463,303.412186 341.648569,351.334622 303.074781,388.910156 Z M345.561309,252.65625 C339.395072,349.595822 296.585036,398.065608 217.131201,398.065608 C137.677367,398.065608 87.3970388,358.436041 66.2902174,279.176909 C107.665167,331.764727 159.789455,356.349998 222.663081,352.932724 C285.536708,349.51545 326.502784,316.089958 345.561309,252.65625 Z M229.366886,54.1057352 C229.366886,54.1057352 145.587194,103.631734 145.587194,181.477278 C145.587194,259.322821 203.027344,276.648521 245.334065,276.648521 C287.640787,276.648521 313.09094,240.122883 303.238664,205.435154 C296.899375,183.115888 273.170444,174.692544 257.929872,179.67259 C247.769491,182.992621 241.199117,189.027722 238.21875,197.777894 C238.940339,187.415393 243.872571,178.885472 253.015447,172.188132 C266.729761,162.142123 311.656664,160.674465 329.51133,204.53281 C347.365996,248.391156 310.164803,335.220703 220.486957,335.220703 C130.809112,335.220703 72.8382626,261.875124 95.4546847,167.676414 C118.071107,73.4777035 229.366886,54.1057352 229.366886,54.1057352 Z M263.935547,191.296875 C275.646788,191.296875 285.140625,200.790712 285.140625,212.501953 C285.140625,224.213194 275.646788,233.707031 263.935547,233.707031 C252.224306,233.707031 242.730469,224.213194 242.730469,212.501953 C242.730469,200.790712 252.224306,191.296875 263.935547,191.296875 Z" id="Fill-1" fill="url(#linearGradient-2)"></path>
        </g>
    </g>
</svg>