<svg xmlns="http://www.w3.org/2000/svg" xmlns:xlink="http://www.w3.org/1999/xlink" fill="none" version="1.1" width="108" height="108" viewBox="0 0 108 108"><defs><clipPath id="master_svg0_62_5862"><rect x="14" y="20" width="80" height="67" rx="0"/></clipPath></defs><g><g><rect x="0" y="0" width="108" height="108" rx="18.714801788330078" fill="#FFFFFF" fill-opacity="1"/></g><g clip-path="url(#master_svg0_62_5862)"><g><path d="M88.9206,87.000398828125L71.7201,87.000398828125C68.9106,87.000398828125,66.63300000000001,84.773798828125,66.63300000000001,82.02709882812499L66.63300000000001,60.486298828125L57.9904,71.215298828125C55.9476,73.721298828125,52.0524,73.721298828125,50.0096,71.215298828125L41.336200000000005,60.486298828125L41.336200000000005,82.02709882812499C41.336200000000005,84.773798828125,39.0587,87.000398828125,36.2492,87.000398828125L19.08706,87.000398828125C16.27755,87.000398828125,14,84.773798828125,14,82.02709882812499L14,24.973628828125C14.00198148,22.858278828125002,15.37247,20.975638828125,17.41617,20.280837828125C19.45987,19.586032828125,21.7295,20.231130828125,23.07359,21.888848828125L54.0192,60.110098828125L84.9264,21.888848828125C86.2621,20.199101828125,88.5521,19.531613828125,90.6162,20.230392828125C92.6803,20.929171828125,94.0577,22.838208828125,94.0385,24.973628828125L94.0385,82.02709882812499C94.0428,84.787298828125,91.7439,87.021298828125,88.9206,87.000398828125ZM76.83789999999999,77.053798828125L83.8336,77.053798828125L83.8336,39.276498828125L76.83789999999999,47.913898828125L76.83789999999999,77.053798828125ZM24.1741,77.053798828125L31.1621,77.053798828125L31.1621,47.913898828125L24.1741,39.276498828125L24.1741,77.053798828125ZM65.73259999999999,20.000358128125L54.0192,34.498798828125004L42.267399999999995,20.000358128125L29.2997,20.000358128125L50.0096,45.581498828125C52.0463,48.099698828125,55.9537,48.099698828125,57.9904,45.581498828125L78.7003,20.000358128125L65.73259999999999,20.000358128125Z" fill="#6A1CC7" fill-opacity="1" style="mix-blend-mode:passthrough"/></g></g></g></svg>