<svg xmlns="http://www.w3.org/2000/svg" xmlns:xlink="http://www.w3.org/1999/xlink" fill="none" version="1.1" width="750" height="596" viewBox="0 0 750 596"><defs><clipPath id="master_svg0_55_8760"><rect x="0" y="0" width="750" height="596" rx="0"/></clipPath></defs><g clip-path="url(#master_svg0_55_8760)"><g><path d="M481.7645,304.77128125L481.7645,291.21828125C481.6645,288.26128125,483.5955,285.62328125,486.4235,284.85628125L560.2645,265.06828125C565.8745,263.54228125,570.7895,260.10228125,574.1775,255.33328125L749.1185,10.04828125C750.5185,8.06564125,750.6765,5.44886125,749.5245,3.30921125C748.3715,1.16956125,746.1125,-0.11731675,743.7045,-0.00491083L553.3405,-0.00491083C547.2735,0.00878485,541.5825,2.96775125,538.0435,7.94854125L331.4375,298.02728125L538.0435,588.04128125C541.5825,593.02228125,547.2735,595.98128125,553.3405,595.99528125L743.7045,595.99528125C746.0554999999999,595.98428125,748.2045,594.64928125,749.2774999999999,592.53528125C750.3505,590.42028125,750.1675,587.87828125,748.8035,585.94228125L574.1145,340.65728125C570.7525,335.87528125,565.8605,332.41428125,560.2645,330.85828125L486.4235,310.94328125C483.6645,310.19228125,481.7525,307.65828125,481.7645,304.77128125Z" fill="#9669DA" fill-opacity="1" style="mix-blend-mode:passthrough"/></g><g><path d="M196.596,0L6.29512,0C3.94399,0.0109531,1.79485,1.34527,0.722256,3.45999C-0.350344,5.5747,-0.16762,8.11732,1.19607,10.0532L175.886,255.338C179.273,260.108,184.188,263.547,189.798,265.073L263.514,285.052C266.341,285.82,268.272,288.457,268.172,291.415L268.172,304.776C268.272,307.734,266.341,310.371,263.514,311.139L189.798,330.864C184.188,332.389,179.273,335.829,175.886,340.599L1.19607,585.947C-0.167625,587.883,-0.350351,590.425,0.72225,592.54C1.79485,594.655,3.94399,595.989,6.29512,596L196.596,596C202.686,596.007,208.405,593.046,211.957,588.047L413.274,305.413C416.416,300.981,416.416,295.019,413.274,290.587L211.831,7.95345C208.305,2.99079,202.641,0.034076,196.596,0Z" fill="#611EC7" fill-opacity="1" style="mix-blend-mode:passthrough"/></g></g></svg>